solid OpenSCAD_Model
  facet normal 0 0 -1
    outer loop
      vertex -12.5 0 -5
      vertex -12.2268 2.5989 -5
      vertex -12.2268 -2.5989 -5
    endloop
  endfacet
  facet normal 0 0 -1
    outer loop
      vertex -12.2268 -2.5989 -5
      vertex -12.2268 2.5989 -5
      vertex -11.4193 5.08421 -5
    endloop
  endfacet
  facet normal 0 0 -1
    outer loop
      vertex -12.2268 -2.5989 -5
      vertex -11.4193 5.08421 -5
      vertex -10.1127 7.34732 -5
    endloop
  endfacet
  facet normal 0 0 -1
    outer loop
      vertex -12.2268 -2.5989 -5
      vertex -10.1127 7.34732 -5
      vertex -8.36413 9.28931 -5
    endloop
  endfacet
  facet normal 0 0 -1
    outer loop
      vertex -12.2268 -2.5989 -5
      vertex -8.36413 9.28931 -5
      vertex -6.25 10.8253 -5
    endloop
  endfacet
  facet normal 0 0 -1
    outer loop
      vertex -12.2268 -2.5989 -5
      vertex -6.25 10.8253 -5
      vertex -3.86271 11.8882 -5
    endloop
  endfacet
  facet normal 0 0 -1
    outer loop
      vertex -12.2268 -2.5989 -5
      vertex -3.86271 11.8882 -5
      vertex -1.30661 12.4315 -5
    endloop
  endfacet
  facet normal 0 0 -1
    outer loop
      vertex -12.2268 -2.5989 -5
      vertex -1.30661 12.4315 -5
      vertex 1.30661 12.4315 -5
    endloop
  endfacet
  facet normal 0 0 -1
    outer loop
      vertex -12.2268 -2.5989 -5
      vertex 1.30661 12.4315 -5
      vertex 3.86271 11.8882 -5
    endloop
  endfacet
  facet normal 0 0 -1
    outer loop
      vertex -12.2268 -2.5989 -5
      vertex 3.86271 11.8882 -5
      vertex 6.25 10.8253 -5
    endloop
  endfacet
  facet normal 0 0 -1
    outer loop
      vertex 0 4.5 -5
      vertex 6.25 10.8253 -5
      vertex 8.36413 9.28931 -5
    endloop
  endfacet
  facet normal 0 0 -1
    outer loop
      vertex 1.39058 4.27975 -5
      vertex 8.36413 9.28931 -5
      vertex 10.1127 7.34732 -5
    endloop
  endfacet
  facet normal 0 0 -1
    outer loop
      vertex 3.64058 2.64503 -5
      vertex 10.1127 7.34732 -5
      vertex 11.4193 5.08421 -5
    endloop
  endfacet
  facet normal 0 0 -1
    outer loop
      vertex 4.27975 1.39058 -5
      vertex 11.4193 5.08421 -5
      vertex 12.2268 2.5989 -5
    endloop
  endfacet
  facet normal 0 0 -1
    outer loop
      vertex 4.5 0 -5
      vertex 12.2268 2.5989 -5
      vertex 12.5 0 -5
    endloop
  endfacet
  facet normal 0 0 -1
    outer loop
      vertex 4.27975 -1.39058 -5
      vertex 12.5 0 -5
      vertex 12.2268 -2.5989 -5
    endloop
  endfacet
  facet normal 0 0 -1
    outer loop
      vertex 2.64503 -3.64058 -5
      vertex 12.2268 -2.5989 -5
      vertex 11.4193 -5.08421 -5
    endloop
  endfacet
  facet normal 0 0 -1
    outer loop
      vertex 1.39058 -4.27975 -5
      vertex 11.4193 -5.08421 -5
      vertex 10.1127 -7.34732 -5
    endloop
  endfacet
  facet normal 0 0 -1
    outer loop
      vertex -12.2268 -2.5989 -5
      vertex 10.1127 -7.34732 -5
      vertex 8.36413 -9.28931 -5
    endloop
  endfacet
  facet normal 0 0 -1
    outer loop
      vertex -12.2268 -2.5989 -5
      vertex 8.36413 -9.28931 -5
      vertex 6.25 -10.8253 -5
    endloop
  endfacet
  facet normal 0 0 -1
    outer loop
      vertex -12.2268 -2.5989 -5
      vertex 6.25 -10.8253 -5
      vertex 3.86271 -11.8882 -5
    endloop
  endfacet
  facet normal 0 0 -1
    outer loop
      vertex -12.2268 -2.5989 -5
      vertex 3.86271 -11.8882 -5
      vertex 1.30661 -12.4315 -5
    endloop
  endfacet
  facet normal 0 0 -1
    outer loop
      vertex -12.2268 -2.5989 -5
      vertex 1.30661 -12.4315 -5
      vertex -1.30661 -12.4315 -5
    endloop
  endfacet
  facet normal 0 0 -1
    outer loop
      vertex -12.2268 -2.5989 -5
      vertex -1.30661 -12.4315 -5
      vertex -3.86271 -11.8882 -5
    endloop
  endfacet
  facet normal 0 0 -1
    outer loop
      vertex -12.2268 -2.5989 -5
      vertex -3.86271 -11.8882 -5
      vertex -6.25 -10.8253 -5
    endloop
  endfacet
  facet normal 0 0 -1
    outer loop
      vertex -12.2268 -2.5989 -5
      vertex -6.25 -10.8253 -5
      vertex -8.36413 -9.28931 -5
    endloop
  endfacet
  facet normal 0 0 -1
    outer loop
      vertex -12.2268 -2.5989 -5
      vertex -8.36413 -9.28931 -5
      vertex -10.1127 -7.34732 -5
    endloop
  endfacet
  facet normal 0 0 -1
    outer loop
      vertex -12.2268 -2.5989 -5
      vertex -10.1127 -7.34732 -5
      vertex -11.4193 -5.08421 -5
    endloop
  endfacet
  facet normal 0 0 -1
    outer loop
      vertex 1.39058 4.27975 -5
      vertex 10.1127 7.34732 -5
      vertex 2.64503 3.64058 -5
    endloop
  endfacet
  facet normal 0 0 -1
    outer loop
      vertex -3.64058 -2.64503 -5
      vertex -12.2268 -2.5989 -5
      vertex -4.27975 -1.39058 -5
    endloop
  endfacet
  facet normal 0 0 -1
    outer loop
      vertex -2.64503 -3.64058 -5
      vertex -12.2268 -2.5989 -5
      vertex -3.64058 -2.64503 -5
    endloop
  endfacet
  facet normal 0 0 -1
    outer loop
      vertex 1.39058 -4.27975 -5
      vertex 10.1127 -7.34732 -5
      vertex 0 -4.5 -5
    endloop
  endfacet
  facet normal 0 0 -1
    outer loop
      vertex -12.2268 -2.5989 -5
      vertex -2.64503 -3.64058 -5
      vertex -1.39058 -4.27975 -5
    endloop
  endfacet
  facet normal 0 0 -1
    outer loop
      vertex -12.2268 -2.5989 -5
      vertex -1.39058 -4.27975 -5
      vertex 10.1127 -7.34732 -5
    endloop
  endfacet
  facet normal 0 0 -1
    outer loop
      vertex -1.39058 -4.27975 -5
      vertex 0 -4.5 -5
      vertex 10.1127 -7.34732 -5
    endloop
  endfacet
  facet normal 0 0 -1
    outer loop
      vertex 2.64503 -3.64058 -5
      vertex 11.4193 -5.08421 -5
      vertex 1.39058 -4.27975 -5
    endloop
  endfacet
  facet normal 0 0 -1
    outer loop
      vertex 3.64058 -2.64503 -5
      vertex 12.2268 -2.5989 -5
      vertex 2.64503 -3.64058 -5
    endloop
  endfacet
  facet normal 0 0 -1
    outer loop
      vertex 4.27975 -1.39058 -5
      vertex 12.2268 -2.5989 -5
      vertex 3.64058 -2.64503 -5
    endloop
  endfacet
  facet normal 0 0 -1
    outer loop
      vertex 4.27975 1.39058 -5
      vertex 12.2268 2.5989 -5
      vertex 4.5 0 -5
    endloop
  endfacet
  facet normal 0 0 -1
    outer loop
      vertex 4.5 0 -5
      vertex 12.5 0 -5
      vertex 4.27975 -1.39058 -5
    endloop
  endfacet
  facet normal 0 0 -1
    outer loop
      vertex 2.64503 3.64058 -5
      vertex 10.1127 7.34732 -5
      vertex 3.64058 2.64503 -5
    endloop
  endfacet
  facet normal 0 0 -1
    outer loop
      vertex -4.27975 -1.39058 -5
      vertex -12.2268 -2.5989 -5
      vertex -4.5 0 -5
    endloop
  endfacet
  facet normal 0 0 -1
    outer loop
      vertex 0 4.5 -5
      vertex 8.36413 9.28931 -5
      vertex 1.39058 4.27975 -5
    endloop
  endfacet
  facet normal 0 0 -1
    outer loop
      vertex -1.39058 4.27975 -5
      vertex 6.25 10.8253 -5
      vertex 0 4.5 -5
    endloop
  endfacet
  facet normal 0 0 -1
    outer loop
      vertex -3.64058 2.64503 -5
      vertex -12.2268 -2.5989 -5
      vertex -2.64503 3.64058 -5
    endloop
  endfacet
  facet normal 0 0 -1
    outer loop
      vertex -2.64503 3.64058 -5
      vertex 6.25 10.8253 -5
      vertex -1.39058 4.27975 -5
    endloop
  endfacet
  facet normal 0 0 -1
    outer loop
      vertex -12.2268 -2.5989 -5
      vertex 6.25 10.8253 -5
      vertex -2.64503 3.64058 -5
    endloop
  endfacet
  facet normal 0 0 -1
    outer loop
      vertex -4.27975 1.39058 -5
      vertex -12.2268 -2.5989 -5
      vertex -3.64058 2.64503 -5
    endloop
  endfacet
  facet normal 0 0 -1
    outer loop
      vertex 3.64058 2.64503 -5
      vertex 11.4193 5.08421 -5
      vertex 4.27975 1.39058 -5
    endloop
  endfacet
  facet normal 0 0 -1
    outer loop
      vertex -4.5 0 -5
      vertex -12.2268 -2.5989 -5
      vertex -4.27975 1.39058 -5
    endloop
  endfacet
  facet normal -0.994522 0.104528 0
    outer loop
      vertex -12.5 0 -5
      vertex -12.5 0 5
      vertex -12.2268 2.5989 -5
    endloop
  endfacet
  facet normal -0.994522 0.104528 0
    outer loop
      vertex -12.2268 2.5989 -5
      vertex -12.5 0 5
      vertex -12.2268 2.5989 5
    endloop
  endfacet
  facet normal -0.994522 -0.104528 0
    outer loop
      vertex -12.5 0 -5
      vertex -12.2268 -2.5989 -5
      vertex -12.5 0 5
    endloop
  endfacet
  facet normal -0.994522 -0.104528 0
    outer loop
      vertex -12.5 0 5
      vertex -12.2268 -2.5989 -5
      vertex -12.2268 -2.5989 5
    endloop
  endfacet
  facet normal -0.951056 -0.309017 0
    outer loop
      vertex -12.2268 -2.5989 -5
      vertex -11.4193 -5.08421 -5
      vertex -12.2268 -2.5989 5
    endloop
  endfacet
  facet normal -0.951056 -0.309017 0
    outer loop
      vertex -12.2268 -2.5989 5
      vertex -11.4193 -5.08421 -5
      vertex -11.4193 -5.08421 5
    endloop
  endfacet
  facet normal -0.866025 -0.5 0
    outer loop
      vertex -11.4193 -5.08421 -5
      vertex -10.1127 -7.34732 -5
      vertex -11.4193 -5.08421 5
    endloop
  endfacet
  facet normal -0.866025 -0.5 0
    outer loop
      vertex -11.4193 -5.08421 5
      vertex -10.1127 -7.34732 -5
      vertex -10.1127 -7.34732 5
    endloop
  endfacet
  facet normal -0.743145 -0.669131 0
    outer loop
      vertex -10.1127 -7.34732 -5
      vertex -8.36413 -9.28931 -5
      vertex -10.1127 -7.34732 5
    endloop
  endfacet
  facet normal -0.743145 -0.669131 0
    outer loop
      vertex -10.1127 -7.34732 5
      vertex -8.36413 -9.28931 -5
      vertex -8.36413 -9.28931 5
    endloop
  endfacet
  facet normal -0.587785 -0.809017 0
    outer loop
      vertex -8.36413 -9.28931 5
      vertex -8.36413 -9.28931 -5
      vertex -6.25 -10.8253 -5
    endloop
  endfacet
  facet normal -0.587785 -0.809017 0
    outer loop
      vertex -6.25 -10.8253 5
      vertex -8.36413 -9.28931 5
      vertex -6.25 -10.8253 -5
    endloop
  endfacet
  facet normal -0.406736 -0.913546 0
    outer loop
      vertex -6.25 -10.8253 5
      vertex -6.25 -10.8253 -5
      vertex -3.86271 -11.8882 -5
    endloop
  endfacet
  facet normal -0.406736 -0.913546 0
    outer loop
      vertex -3.86271 -11.8882 5
      vertex -6.25 -10.8253 5
      vertex -3.86271 -11.8882 -5
    endloop
  endfacet
  facet normal -0.207912 -0.978148 0
    outer loop
      vertex -3.86271 -11.8882 5
      vertex -3.86271 -11.8882 -5
      vertex -1.30661 -12.4315 -5
    endloop
  endfacet
  facet normal -0.207912 -0.978148 0
    outer loop
      vertex -1.30661 -12.4315 5
      vertex -3.86271 -11.8882 5
      vertex -1.30661 -12.4315 -5
    endloop
  endfacet
  facet normal 0 -1 0
    outer loop
      vertex -1.30661 -12.4315 5
      vertex -1.30661 -12.4315 -5
      vertex 1.30661 -12.4315 -5
    endloop
  endfacet
  facet normal 0 -1 0
    outer loop
      vertex 1.30661 -12.4315 5
      vertex -1.30661 -12.4315 5
      vertex 1.30661 -12.4315 -5
    endloop
  endfacet
  facet normal 0.207912 -0.978148 0
    outer loop
      vertex 1.30661 -12.4315 5
      vertex 1.30661 -12.4315 -5
      vertex 3.86271 -11.8882 -5
    endloop
  endfacet
  facet normal 0.207912 -0.978148 0
    outer loop
      vertex 3.86271 -11.8882 5
      vertex 1.30661 -12.4315 5
      vertex 3.86271 -11.8882 -5
    endloop
  endfacet
  facet normal 0.406736 -0.913546 0
    outer loop
      vertex 3.86271 -11.8882 5
      vertex 3.86271 -11.8882 -5
      vertex 6.25 -10.8253 -5
    endloop
  endfacet
  facet normal 0.406736 -0.913546 0
    outer loop
      vertex 6.25 -10.8253 5
      vertex 3.86271 -11.8882 5
      vertex 6.25 -10.8253 -5
    endloop
  endfacet
  facet normal 0.587785 -0.809017 0
    outer loop
      vertex 6.25 -10.8253 5
      vertex 6.25 -10.8253 -5
      vertex 8.36413 -9.28931 -5
    endloop
  endfacet
  facet normal 0.587785 -0.809017 0
    outer loop
      vertex 8.36413 -9.28931 5
      vertex 6.25 -10.8253 5
      vertex 8.36413 -9.28931 -5
    endloop
  endfacet
  facet normal 0.743145 -0.669131 0
    outer loop
      vertex 8.36413 -9.28931 5
      vertex 8.36413 -9.28931 -5
      vertex 10.1127 -7.34732 -5
    endloop
  endfacet
  facet normal 0.743145 -0.669131 0
    outer loop
      vertex 10.1127 -7.34732 5
      vertex 8.36413 -9.28931 5
      vertex 10.1127 -7.34732 -5
    endloop
  endfacet
  facet normal 0.866025 -0.5 0
    outer loop
      vertex 10.1127 -7.34732 5
      vertex 10.1127 -7.34732 -5
      vertex 11.4193 -5.08421 -5
    endloop
  endfacet
  facet normal 0.866025 -0.5 0
    outer loop
      vertex 11.4193 -5.08421 5
      vertex 10.1127 -7.34732 5
      vertex 11.4193 -5.08421 -5
    endloop
  endfacet
  facet normal 0.951056 -0.309017 0
    outer loop
      vertex 11.4193 -5.08421 5
      vertex 11.4193 -5.08421 -5
      vertex 12.2268 -2.5989 -5
    endloop
  endfacet
  facet normal 0.951056 -0.309017 0
    outer loop
      vertex 12.2268 -2.5989 5
      vertex 11.4193 -5.08421 5
      vertex 12.2268 -2.5989 -5
    endloop
  endfacet
  facet normal 0.994522 -0.104528 0
    outer loop
      vertex 12.2268 -2.5989 5
      vertex 12.2268 -2.5989 -5
      vertex 12.5 0 -5
    endloop
  endfacet
  facet normal 0.994522 -0.104528 0
    outer loop
      vertex 12.5 0 5
      vertex 12.2268 -2.5989 5
      vertex 12.5 0 -5
    endloop
  endfacet
  facet normal 0.994522 0.104528 0
    outer loop
      vertex 12.5 0 -5
      vertex 12.2268 2.5989 -5
      vertex 12.2268 2.5989 5
    endloop
  endfacet
  facet normal 0.994522 0.104528 0
    outer loop
      vertex 12.5 0 5
      vertex 12.5 0 -5
      vertex 12.2268 2.5989 5
    endloop
  endfacet
  facet normal 0.951056 0.309017 0
    outer loop
      vertex 12.2268 2.5989 -5
      vertex 11.4193 5.08421 -5
      vertex 11.4193 5.08421 5
    endloop
  endfacet
  facet normal 0.951056 0.309017 0
    outer loop
      vertex 12.2268 2.5989 5
      vertex 12.2268 2.5989 -5
      vertex 11.4193 5.08421 5
    endloop
  endfacet
  facet normal 0.866025 0.5 0
    outer loop
      vertex 11.4193 5.08421 -5
      vertex 10.1127 7.34732 -5
      vertex 10.1127 7.34732 5
    endloop
  endfacet
  facet normal 0.866025 0.5 0
    outer loop
      vertex 11.4193 5.08421 5
      vertex 11.4193 5.08421 -5
      vertex 10.1127 7.34732 5
    endloop
  endfacet
  facet normal 0.743145 0.669131 0
    outer loop
      vertex 10.1127 7.34732 -5
      vertex 8.36413 9.28931 -5
      vertex 8.36413 9.28931 5
    endloop
  endfacet
  facet normal 0.743145 0.669131 0
    outer loop
      vertex 10.1127 7.34732 5
      vertex 10.1127 7.34732 -5
      vertex 8.36413 9.28931 5
    endloop
  endfacet
  facet normal 0.587785 0.809017 0
    outer loop
      vertex 6.25 10.8253 -5
      vertex 6.25 10.8253 5
      vertex 8.36413 9.28931 -5
    endloop
  endfacet
  facet normal 0.587785 0.809017 0
    outer loop
      vertex 8.36413 9.28931 -5
      vertex 6.25 10.8253 5
      vertex 8.36413 9.28931 5
    endloop
  endfacet
  facet normal 0.406736 0.913546 0
    outer loop
      vertex 3.86271 11.8882 -5
      vertex 3.86271 11.8882 5
      vertex 6.25 10.8253 -5
    endloop
  endfacet
  facet normal 0.406736 0.913546 0
    outer loop
      vertex 6.25 10.8253 -5
      vertex 3.86271 11.8882 5
      vertex 6.25 10.8253 5
    endloop
  endfacet
  facet normal 0.207912 0.978148 0
    outer loop
      vertex 1.30661 12.4315 -5
      vertex 1.30661 12.4315 5
      vertex 3.86271 11.8882 -5
    endloop
  endfacet
  facet normal 0.207912 0.978148 0
    outer loop
      vertex 3.86271 11.8882 -5
      vertex 1.30661 12.4315 5
      vertex 3.86271 11.8882 5
    endloop
  endfacet
  facet normal 0 1 0
    outer loop
      vertex -1.30661 12.4315 -5
      vertex -1.30661 12.4315 5
      vertex 1.30661 12.4315 -5
    endloop
  endfacet
  facet normal 0 1 0
    outer loop
      vertex 1.30661 12.4315 -5
      vertex -1.30661 12.4315 5
      vertex 1.30661 12.4315 5
    endloop
  endfacet
  facet normal -0.207912 0.978148 0
    outer loop
      vertex -3.86271 11.8882 -5
      vertex -3.86271 11.8882 5
      vertex -1.30661 12.4315 -5
    endloop
  endfacet
  facet normal -0.207912 0.978148 0
    outer loop
      vertex -1.30661 12.4315 -5
      vertex -3.86271 11.8882 5
      vertex -1.30661 12.4315 5
    endloop
  endfacet
  facet normal -0.406736 0.913546 0
    outer loop
      vertex -6.25 10.8253 -5
      vertex -6.25 10.8253 5
      vertex -3.86271 11.8882 -5
    endloop
  endfacet
  facet normal -0.406736 0.913546 0
    outer loop
      vertex -3.86271 11.8882 -5
      vertex -6.25 10.8253 5
      vertex -3.86271 11.8882 5
    endloop
  endfacet
  facet normal -0.587785 0.809017 0
    outer loop
      vertex -8.36413 9.28931 -5
      vertex -8.36413 9.28931 5
      vertex -6.25 10.8253 -5
    endloop
  endfacet
  facet normal -0.587785 0.809017 0
    outer loop
      vertex -6.25 10.8253 -5
      vertex -8.36413 9.28931 5
      vertex -6.25 10.8253 5
    endloop
  endfacet
  facet normal -0.743145 0.669131 0
    outer loop
      vertex -10.1127 7.34732 -5
      vertex -10.1127 7.34732 5
      vertex -8.36413 9.28931 -5
    endloop
  endfacet
  facet normal -0.743145 0.669131 0
    outer loop
      vertex -8.36413 9.28931 -5
      vertex -10.1127 7.34732 5
      vertex -8.36413 9.28931 5
    endloop
  endfacet
  facet normal -0.866025 0.5 0
    outer loop
      vertex -11.4193 5.08421 -5
      vertex -11.4193 5.08421 5
      vertex -10.1127 7.34732 -5
    endloop
  endfacet
  facet normal -0.866025 0.5 0
    outer loop
      vertex -10.1127 7.34732 -5
      vertex -11.4193 5.08421 5
      vertex -10.1127 7.34732 5
    endloop
  endfacet
  facet normal -0.951056 0.309017 0
    outer loop
      vertex -12.2268 2.5989 -5
      vertex -12.2268 2.5989 5
      vertex -11.4193 5.08421 -5
    endloop
  endfacet
  facet normal -0.951056 0.309017 0
    outer loop
      vertex -11.4193 5.08421 -5
      vertex -12.2268 2.5989 5
      vertex -11.4193 5.08421 5
    endloop
  endfacet
  facet normal 0.987688 -0.156435 0
    outer loop
      vertex -4.27975 1.39058 -5
      vertex -4.27975 1.39058 5
      vertex -4.5 0 5
    endloop
  endfacet
  facet normal 0.987688 -0.156435 0
    outer loop
      vertex -4.5 0 -5
      vertex -4.27975 1.39058 -5
      vertex -4.5 0 5
    endloop
  endfacet
  facet normal 0.987688 0.156435 0
    outer loop
      vertex -4.5 0 5
      vertex -4.27975 -1.39058 5
      vertex -4.27975 -1.39058 -5
    endloop
  endfacet
  facet normal 0.987688 0.156435 0
    outer loop
      vertex -4.5 0 -5
      vertex -4.5 0 5
      vertex -4.27975 -1.39058 -5
    endloop
  endfacet
  facet normal 0.891007 -0.45399 0
    outer loop
      vertex -3.64058 2.64503 -5
      vertex -3.64058 2.64503 5
      vertex -4.27975 1.39058 5
    endloop
  endfacet
  facet normal 0.891007 -0.45399 0
    outer loop
      vertex -4.27975 1.39058 -5
      vertex -3.64058 2.64503 -5
      vertex -4.27975 1.39058 5
    endloop
  endfacet
  facet normal 0.707107 -0.707107 0
    outer loop
      vertex -2.64503 3.64058 -5
      vertex -2.64503 3.64058 5
      vertex -3.64058 2.64503 5
    endloop
  endfacet
  facet normal 0.707107 -0.707107 0
    outer loop
      vertex -3.64058 2.64503 -5
      vertex -2.64503 3.64058 -5
      vertex -3.64058 2.64503 5
    endloop
  endfacet
  facet normal 0.45399 -0.891007 0
    outer loop
      vertex -1.39058 4.27975 -5
      vertex -1.39058 4.27975 5
      vertex -2.64503 3.64058 5
    endloop
  endfacet
  facet normal 0.45399 -0.891007 0
    outer loop
      vertex -2.64503 3.64058 -5
      vertex -1.39058 4.27975 -5
      vertex -2.64503 3.64058 5
    endloop
  endfacet
  facet normal 0.156435 -0.987688 0
    outer loop
      vertex 0 4.5 -5
      vertex 0 4.5 5
      vertex -1.39058 4.27975 5
    endloop
  endfacet
  facet normal 0.156435 -0.987688 0
    outer loop
      vertex -1.39058 4.27975 -5
      vertex 0 4.5 -5
      vertex -1.39058 4.27975 5
    endloop
  endfacet
  facet normal -0.156435 -0.987688 0
    outer loop
      vertex 1.39058 4.27975 -5
      vertex 1.39058 4.27975 5
      vertex 0 4.5 5
    endloop
  endfacet
  facet normal -0.156435 -0.987688 0
    outer loop
      vertex 0 4.5 -5
      vertex 1.39058 4.27975 -5
      vertex 0 4.5 5
    endloop
  endfacet
  facet normal -0.45399 -0.891007 0
    outer loop
      vertex 2.64503 3.64058 -5
      vertex 2.64503 3.64058 5
      vertex 1.39058 4.27975 5
    endloop
  endfacet
  facet normal -0.45399 -0.891007 0
    outer loop
      vertex 1.39058 4.27975 -5
      vertex 2.64503 3.64058 -5
      vertex 1.39058 4.27975 5
    endloop
  endfacet
  facet normal -0.707107 -0.707107 0
    outer loop
      vertex 3.64058 2.64503 -5
      vertex 3.64058 2.64503 5
      vertex 2.64503 3.64058 5
    endloop
  endfacet
  facet normal -0.707107 -0.707107 0
    outer loop
      vertex 2.64503 3.64058 -5
      vertex 3.64058 2.64503 -5
      vertex 2.64503 3.64058 5
    endloop
  endfacet
  facet normal -0.891007 -0.45399 0
    outer loop
      vertex 4.27975 1.39058 5
      vertex 3.64058 2.64503 5
      vertex 4.27975 1.39058 -5
    endloop
  endfacet
  facet normal -0.891007 -0.45399 0
    outer loop
      vertex 4.27975 1.39058 -5
      vertex 3.64058 2.64503 5
      vertex 3.64058 2.64503 -5
    endloop
  endfacet
  facet normal -0.987688 -0.156435 0
    outer loop
      vertex 4.5 0 5
      vertex 4.27975 1.39058 5
      vertex 4.5 0 -5
    endloop
  endfacet
  facet normal -0.987688 -0.156435 0
    outer loop
      vertex 4.5 0 -5
      vertex 4.27975 1.39058 5
      vertex 4.27975 1.39058 -5
    endloop
  endfacet
  facet normal -0.987688 0.156435 0
    outer loop
      vertex 4.5 0 5
      vertex 4.5 0 -5
      vertex 4.27975 -1.39058 5
    endloop
  endfacet
  facet normal -0.987688 0.156435 0
    outer loop
      vertex 4.27975 -1.39058 5
      vertex 4.5 0 -5
      vertex 4.27975 -1.39058 -5
    endloop
  endfacet
  facet normal -0.891007 0.45399 0
    outer loop
      vertex 4.27975 -1.39058 5
      vertex 4.27975 -1.39058 -5
      vertex 3.64058 -2.64503 5
    endloop
  endfacet
  facet normal -0.891007 0.45399 0
    outer loop
      vertex 3.64058 -2.64503 5
      vertex 4.27975 -1.39058 -5
      vertex 3.64058 -2.64503 -5
    endloop
  endfacet
  facet normal -0.707107 0.707107 0
    outer loop
      vertex 3.64058 -2.64503 5
      vertex 3.64058 -2.64503 -5
      vertex 2.64503 -3.64058 5
    endloop
  endfacet
  facet normal -0.707107 0.707107 0
    outer loop
      vertex 2.64503 -3.64058 5
      vertex 3.64058 -2.64503 -5
      vertex 2.64503 -3.64058 -5
    endloop
  endfacet
  facet normal -0.45399 0.891007 0
    outer loop
      vertex 2.64503 -3.64058 5
      vertex 2.64503 -3.64058 -5
      vertex 1.39058 -4.27975 5
    endloop
  endfacet
  facet normal -0.45399 0.891007 0
    outer loop
      vertex 1.39058 -4.27975 5
      vertex 2.64503 -3.64058 -5
      vertex 1.39058 -4.27975 -5
    endloop
  endfacet
  facet normal -0.156435 0.987688 0
    outer loop
      vertex 1.39058 -4.27975 5
      vertex 1.39058 -4.27975 -5
      vertex 0 -4.5 5
    endloop
  endfacet
  facet normal -0.156435 0.987688 0
    outer loop
      vertex 0 -4.5 5
      vertex 1.39058 -4.27975 -5
      vertex 0 -4.5 -5
    endloop
  endfacet
  facet normal 0.156435 0.987688 0
    outer loop
      vertex 0 -4.5 5
      vertex 0 -4.5 -5
      vertex -1.39058 -4.27975 5
    endloop
  endfacet
  facet normal 0.156435 0.987688 0
    outer loop
      vertex -1.39058 -4.27975 5
      vertex 0 -4.5 -5
      vertex -1.39058 -4.27975 -5
    endloop
  endfacet
  facet normal 0.45399 0.891007 0
    outer loop
      vertex -1.39058 -4.27975 5
      vertex -1.39058 -4.27975 -5
      vertex -2.64503 -3.64058 5
    endloop
  endfacet
  facet normal 0.45399 0.891007 0
    outer loop
      vertex -2.64503 -3.64058 5
      vertex -1.39058 -4.27975 -5
      vertex -2.64503 -3.64058 -5
    endloop
  endfacet
  facet normal 0.707107 0.707107 0
    outer loop
      vertex -2.64503 -3.64058 5
      vertex -2.64503 -3.64058 -5
      vertex -3.64058 -2.64503 5
    endloop
  endfacet
  facet normal 0.707107 0.707107 0
    outer loop
      vertex -3.64058 -2.64503 5
      vertex -2.64503 -3.64058 -5
      vertex -3.64058 -2.64503 -5
    endloop
  endfacet
  facet normal 0.891007 0.45399 0
    outer loop
      vertex -4.27975 -1.39058 5
      vertex -3.64058 -2.64503 5
      vertex -3.64058 -2.64503 -5
    endloop
  endfacet
  facet normal 0.891007 0.45399 0
    outer loop
      vertex -4.27975 -1.39058 -5
      vertex -4.27975 -1.39058 5
      vertex -3.64058 -2.64503 -5
    endloop
  endfacet
  facet normal 0 0 1
    outer loop
      vertex -12.2268 2.5989 5
      vertex -12.5 0 5
      vertex -12.2268 -2.5989 5
    endloop
  endfacet
  facet normal 0 0 1
    outer loop
      vertex -10.1127 -7.34732 5
      vertex -12.2268 2.5989 5
      vertex -11.4193 -5.08421 5
    endloop
  endfacet
  facet normal 0 0 1
    outer loop
      vertex -11.4193 -5.08421 5
      vertex -12.2268 2.5989 5
      vertex -12.2268 -2.5989 5
    endloop
  endfacet
  facet normal 0 0 1
    outer loop
      vertex -8.36413 -9.28931 5
      vertex -12.2268 2.5989 5
      vertex -10.1127 -7.34732 5
    endloop
  endfacet
  facet normal 0 0 1
    outer loop
      vertex -6.25 -10.8253 5
      vertex -12.2268 2.5989 5
      vertex -8.36413 -9.28931 5
    endloop
  endfacet
  facet normal 0 0 1
    outer loop
      vertex -3.86271 -11.8882 5
      vertex -12.2268 2.5989 5
      vertex -6.25 -10.8253 5
    endloop
  endfacet
  facet normal 0 0 1
    outer loop
      vertex -1.30661 -12.4315 5
      vertex -12.2268 2.5989 5
      vertex -3.86271 -11.8882 5
    endloop
  endfacet
  facet normal 0 0 1
    outer loop
      vertex 1.30661 -12.4315 5
      vertex -12.2268 2.5989 5
      vertex -1.30661 -12.4315 5
    endloop
  endfacet
  facet normal 0 0 1
    outer loop
      vertex 3.86271 -11.8882 5
      vertex -12.2268 2.5989 5
      vertex 1.30661 -12.4315 5
    endloop
  endfacet
  facet normal 0 0 1
    outer loop
      vertex 6.25 -10.8253 5
      vertex -12.2268 2.5989 5
      vertex 3.86271 -11.8882 5
    endloop
  endfacet
  facet normal 0 0 1
    outer loop
      vertex -2.64503 -3.64058 5
      vertex -12.2268 2.5989 5
      vertex 6.25 -10.8253 5
    endloop
  endfacet
  facet normal 0 0 1
    outer loop
      vertex 1.39058 -4.27975 5
      vertex 0 -4.5 5
      vertex 8.36413 -9.28931 5
    endloop
  endfacet
  facet normal 0 0 1
    outer loop
      vertex 4.5 0 5
      vertex 4.27975 -1.39058 5
      vertex 12.2268 -2.5989 5
    endloop
  endfacet
  facet normal 0 0 1
    outer loop
      vertex 1.39058 4.27975 5
      vertex 2.64503 3.64058 5
      vertex 11.4193 5.08421 5
    endloop
  endfacet
  facet normal 0 0 1
    outer loop
      vertex 3.64058 2.64503 5
      vertex 4.27975 1.39058 5
      vertex 12.2268 2.5989 5
    endloop
  endfacet
  facet normal 0 0 1
    outer loop
      vertex 8.36413 9.28931 5
      vertex -12.2268 2.5989 5
      vertex 10.1127 7.34732 5
    endloop
  endfacet
  facet normal 0 0 1
    outer loop
      vertex 6.25 10.8253 5
      vertex -12.2268 2.5989 5
      vertex 8.36413 9.28931 5
    endloop
  endfacet
  facet normal 0 0 1
    outer loop
      vertex 3.86271 11.8882 5
      vertex -12.2268 2.5989 5
      vertex 6.25 10.8253 5
    endloop
  endfacet
  facet normal 0 0 1
    outer loop
      vertex 1.30661 12.4315 5
      vertex -12.2268 2.5989 5
      vertex 3.86271 11.8882 5
    endloop
  endfacet
  facet normal 0 0 1
    outer loop
      vertex -1.30661 12.4315 5
      vertex -12.2268 2.5989 5
      vertex 1.30661 12.4315 5
    endloop
  endfacet
  facet normal 0 0 1
    outer loop
      vertex -3.86271 11.8882 5
      vertex -12.2268 2.5989 5
      vertex -1.30661 12.4315 5
    endloop
  endfacet
  facet normal 0 0 1
    outer loop
      vertex -6.25 10.8253 5
      vertex -12.2268 2.5989 5
      vertex -3.86271 11.8882 5
    endloop
  endfacet
  facet normal 0 0 1
    outer loop
      vertex -8.36413 9.28931 5
      vertex -12.2268 2.5989 5
      vertex -6.25 10.8253 5
    endloop
  endfacet
  facet normal 0 0 1
    outer loop
      vertex -10.1127 7.34732 5
      vertex -12.2268 2.5989 5
      vertex -8.36413 9.28931 5
    endloop
  endfacet
  facet normal 0 0 1
    outer loop
      vertex -11.4193 5.08421 5
      vertex -12.2268 2.5989 5
      vertex -10.1127 7.34732 5
    endloop
  endfacet
  facet normal 0 0 1
    outer loop
      vertex -2.64503 -3.64058 5
      vertex -3.64058 -2.64503 5
      vertex -12.2268 2.5989 5
    endloop
  endfacet
  facet normal 0 0 1
    outer loop
      vertex 3.64058 -2.64503 5
      vertex 2.64503 -3.64058 5
      vertex 10.1127 -7.34732 5
    endloop
  endfacet
  facet normal 0 0 1
    outer loop
      vertex 2.64503 -3.64058 5
      vertex 1.39058 -4.27975 5
      vertex 10.1127 -7.34732 5
    endloop
  endfacet
  facet normal 0 0 1
    outer loop
      vertex -4.27975 1.39058 5
      vertex -3.64058 2.64503 5
      vertex -12.2268 2.5989 5
    endloop
  endfacet
  facet normal 0 0 1
    outer loop
      vertex 0 4.5 5
      vertex 1.39058 4.27975 5
      vertex 10.1127 7.34732 5
    endloop
  endfacet
  facet normal 0 0 1
    outer loop
      vertex 4.27975 1.39058 5
      vertex 4.5 0 5
      vertex 12.5 0 5
    endloop
  endfacet
  facet normal 0 0 1
    outer loop
      vertex -1.39058 4.27975 5
      vertex -12.2268 2.5989 5
      vertex -2.64503 3.64058 5
    endloop
  endfacet
  facet normal 0 0 1
    outer loop
      vertex 10.1127 7.34732 5
      vertex -12.2268 2.5989 5
      vertex -1.39058 4.27975 5
    endloop
  endfacet
  facet normal 0 0 1
    outer loop
      vertex 10.1127 7.34732 5
      vertex -1.39058 4.27975 5
      vertex 0 4.5 5
    endloop
  endfacet
  facet normal 0 0 1
    outer loop
      vertex 10.1127 7.34732 5
      vertex 1.39058 4.27975 5
      vertex 11.4193 5.08421 5
    endloop
  endfacet
  facet normal 0 0 1
    outer loop
      vertex 11.4193 5.08421 5
      vertex 2.64503 3.64058 5
      vertex 12.2268 2.5989 5
    endloop
  endfacet
  facet normal 0 0 1
    outer loop
      vertex 2.64503 3.64058 5
      vertex 3.64058 2.64503 5
      vertex 12.2268 2.5989 5
    endloop
  endfacet
  facet normal 0 0 1
    outer loop
      vertex 12.2268 2.5989 5
      vertex 4.27975 1.39058 5
      vertex 12.5 0 5
    endloop
  endfacet
  facet normal 0 0 1
    outer loop
      vertex -3.64058 2.64503 5
      vertex -2.64503 3.64058 5
      vertex -12.2268 2.5989 5
    endloop
  endfacet
  facet normal 0 0 1
    outer loop
      vertex 12.5 0 5
      vertex 4.5 0 5
      vertex 12.2268 -2.5989 5
    endloop
  endfacet
  facet normal 0 0 1
    outer loop
      vertex 12.2268 -2.5989 5
      vertex 4.27975 -1.39058 5
      vertex 11.4193 -5.08421 5
    endloop
  endfacet
  facet normal 0 0 1
    outer loop
      vertex 4.27975 -1.39058 5
      vertex 3.64058 -2.64503 5
      vertex 11.4193 -5.08421 5
    endloop
  endfacet
  facet normal 0 0 1
    outer loop
      vertex 11.4193 -5.08421 5
      vertex 3.64058 -2.64503 5
      vertex 10.1127 -7.34732 5
    endloop
  endfacet
  facet normal 0 0 1
    outer loop
      vertex 10.1127 -7.34732 5
      vertex 1.39058 -4.27975 5
      vertex 8.36413 -9.28931 5
    endloop
  endfacet
  facet normal 0 0 1
    outer loop
      vertex 8.36413 -9.28931 5
      vertex 0 -4.5 5
      vertex 6.25 -10.8253 5
    endloop
  endfacet
  facet normal 0 0 1
    outer loop
      vertex 0 -4.5 5
      vertex -1.39058 -4.27975 5
      vertex 6.25 -10.8253 5
    endloop
  endfacet
  facet normal 0 0 1
    outer loop
      vertex -1.39058 -4.27975 5
      vertex -2.64503 -3.64058 5
      vertex 6.25 -10.8253 5
    endloop
  endfacet
  facet normal 0 0 1
    outer loop
      vertex -4.27975 -1.39058 5
      vertex -4.5 0 5
      vertex -12.2268 2.5989 5
    endloop
  endfacet
  facet normal 0 0 1
    outer loop
      vertex -3.64058 -2.64503 5
      vertex -4.27975 -1.39058 5
      vertex -12.2268 2.5989 5
    endloop
  endfacet
  facet normal 0 0 1
    outer loop
      vertex -4.5 0 5
      vertex -4.27975 1.39058 5
      vertex -12.2268 2.5989 5
    endloop
  endfacet
endsolid OpenSCAD_Model
