solid OpenSCAD_Model
  facet normal 0 -1 0
    outer loop
      vertex -24.503 -24.658 4
      vertex -24.503 -24.658 0
      vertex -6.866 -24.658 0
    endloop
  endfacet
  facet normal 0 -1 0
    outer loop
      vertex -6.866 -24.658 4
      vertex -24.503 -24.658 4
      vertex -6.866 -24.658 0
    endloop
  endfacet
  facet normal 0 0 -1
    outer loop
      vertex -24.503 -24.658 0
      vertex -7.898 -0.313 0
      vertex -6.866 -24.658 0
    endloop
  endfacet
  facet normal 0 0 -1
    outer loop
      vertex -17 18.5 0
      vertex -7.898 -0.313 0
      vertex -23.987 23 0
    endloop
  endfacet
  facet normal 0 0 -1
    outer loop
      vertex -6.866 -24.658 0
      vertex -7.898 -0.313 0
      vertex -6.454 23 0
    endloop
  endfacet
  facet normal 0 0 -1
    outer loop
      vertex -6.866 -24.658 0
      vertex -6.454 23 0
      vertex 0.044 11.55 0
    endloop
  endfacet
  facet normal 0 0 -1
    outer loop
      vertex -6.866 -24.658 0
      vertex 0.044 11.55 0
      vertex 6.747 22.897 0
    endloop
  endfacet
  facet normal 0 0 -1
    outer loop
      vertex 8.294 -0.416 0
      vertex 6.747 22.897 0
      vertex 24.074 22.897 0
    endloop
  endfacet
  facet normal 0 0 -1
    outer loop
      vertex 0.044 -12.898 0
      vertex 6.747 22.897 0
      vertex 8.294 -0.416 0
    endloop
  endfacet
  facet normal 0 0 -1
    outer loop
      vertex 0.044 -12.898 0
      vertex 8.294 -0.416 0
      vertex 7.263 -24.658 0
    endloop
  endfacet
  facet normal 0 0 -1
    outer loop
      vertex -6.866 -24.658 0
      vertex 6.747 22.897 0
      vertex 0.044 -12.898 0
    endloop
  endfacet
  facet normal 0 0 -1
    outer loop
      vertex -9 18.5 0
      vertex -7.898 -0.313 0
      vertex -17 18.5 0
    endloop
  endfacet
  facet normal 0 0 -1
    outer loop
      vertex -6.454 23 0
      vertex -17 21.5 0
      vertex -23.987 23 0
    endloop
  endfacet
  facet normal 0 0 -1
    outer loop
      vertex -17 21.5 0
      vertex -17 18.5 0
      vertex -23.987 23 0
    endloop
  endfacet
  facet normal 0 0 -1
    outer loop
      vertex -6.454 23 0
      vertex -7.898 -0.313 0
      vertex -9 18.5 0
    endloop
  endfacet
  facet normal 0 0 -1
    outer loop
      vertex -6.454 23 0
      vertex -9 18.5 0
      vertex -9 21.5 0
    endloop
  endfacet
  facet normal 0 0 -1
    outer loop
      vertex -6.454 23 0
      vertex -9 21.5 0
      vertex -17 21.5 0
    endloop
  endfacet
  facet normal 0 0 -1
    outer loop
      vertex 24.796 -24.658 0
      vertex 7.263 -24.658 0
      vertex 8.294 -0.416 0
    endloop
  endfacet
  facet normal -0.82613 0.563479 0
    outer loop
      vertex -24.503 -24.658 0
      vertex -24.503 -24.658 4
      vertex -7.898 -0.313 0
    endloop
  endfacet
  facet normal -0.82613 0.563479 0
    outer loop
      vertex -7.898 -0.313 0
      vertex -24.503 -24.658 4
      vertex -7.898 -0.313 4
    endloop
  endfacet
  facet normal 0 0 1
    outer loop
      vertex -7.898 -0.313 4
      vertex -24.503 -24.658 4
      vertex -6.866 -24.658 4
    endloop
  endfacet
  facet normal 0 0 1
    outer loop
      vertex 24.796 -24.658 4
      vertex -7.898 -0.313 4
      vertex 0.044 -12.898 4
    endloop
  endfacet
  facet normal 0 0 1
    outer loop
      vertex 0.044 -12.898 4
      vertex -7.898 -0.313 4
      vertex -6.866 -24.658 4
    endloop
  endfacet
  facet normal 0 0 1
    outer loop
      vertex 24.796 -24.658 4
      vertex 0.044 -12.898 4
      vertex 7.263 -24.658 4
    endloop
  endfacet
  facet normal 0 0 1
    outer loop
      vertex 8.294 -0.416 4
      vertex -7.898 -0.313 4
      vertex 24.796 -24.658 4
    endloop
  endfacet
  facet normal 0 0 1
    outer loop
      vertex 24.074 22.897 4
      vertex -7.898 -0.313 4
      vertex 8.294 -0.416 4
    endloop
  endfacet
  facet normal 0 0 1
    outer loop
      vertex 0.044 11.55 4
      vertex -7.898 -0.313 4
      vertex 24.074 22.897 4
    endloop
  endfacet
  facet normal 0 0 1
    outer loop
      vertex 0.044 11.55 4
      vertex -9 18.5 4
      vertex -7.898 -0.313 4
    endloop
  endfacet
  facet normal 0 0 1
    outer loop
      vertex 6.747 22.897 4
      vertex 0.044 11.55 4
      vertex 24.074 22.897 4
    endloop
  endfacet
  facet normal 0 0 1
    outer loop
      vertex 0.044 11.55 4
      vertex -6.454 23 4
      vertex -9 18.5 4
    endloop
  endfacet
  facet normal 0 0 1
    outer loop
      vertex -23.987 23 4
      vertex -17 21.5 4
      vertex -6.454 23 4
    endloop
  endfacet
  facet normal 0 0 1
    outer loop
      vertex -23.987 23 4
      vertex -17 18.5 4
      vertex -17 21.5 4
    endloop
  endfacet
  facet normal 0 0 1
    outer loop
      vertex -9 21.5 4
      vertex -9 18.5 4
      vertex -6.454 23 4
    endloop
  endfacet
  facet normal 0 0 1
    outer loop
      vertex -17 21.5 4
      vertex -9 21.5 4
      vertex -6.454 23 4
    endloop
  endfacet
  facet normal 0 0 1
    outer loop
      vertex -17 18.5 4
      vertex -7.898 -0.313 4
      vertex -9 18.5 4
    endloop
  endfacet
  facet normal 0 0 1
    outer loop
      vertex -23.987 23 4
      vertex -7.898 -0.313 4
      vertex -17 18.5 4
    endloop
  endfacet
  facet normal 0.862179 -0.506604 0
    outer loop
      vertex -6.866 -24.658 4
      vertex -6.866 -24.658 0
      vertex 0.044 -12.898 0
    endloop
  endfacet
  facet normal 0.862179 -0.506604 0
    outer loop
      vertex 0.044 -12.898 4
      vertex -6.866 -24.658 4
      vertex 0.044 -12.898 0
    endloop
  endfacet
  facet normal -0.852238 -0.523155 0
    outer loop
      vertex 0.044 -12.898 0
      vertex 7.263 -24.658 0
      vertex 0.044 -12.898 4
    endloop
  endfacet
  facet normal -0.852238 -0.523155 0
    outer loop
      vertex 0.044 -12.898 4
      vertex 7.263 -24.658 0
      vertex 7.263 -24.658 4
    endloop
  endfacet
  facet normal 0 -1 0
    outer loop
      vertex 7.263 -24.658 4
      vertex 7.263 -24.658 0
      vertex 24.796 -24.658 0
    endloop
  endfacet
  facet normal 0 -1 0
    outer loop
      vertex 24.796 -24.658 4
      vertex 7.263 -24.658 4
      vertex 24.796 -24.658 0
    endloop
  endfacet
  facet normal 0.82665 0.562717 0
    outer loop
      vertex 24.796 -24.658 0
      vertex 8.294 -0.416 0
      vertex 8.294 -0.416 4
    endloop
  endfacet
  facet normal 0.82665 0.562717 0
    outer loop
      vertex 24.796 -24.658 4
      vertex 24.796 -24.658 0
      vertex 8.294 -0.416 4
    endloop
  endfacet
  facet normal 0.828128 -0.560539 0
    outer loop
      vertex 8.294 -0.416 4
      vertex 8.294 -0.416 0
      vertex 24.074 22.897 0
    endloop
  endfacet
  facet normal 0.828128 -0.560539 0
    outer loop
      vertex 24.074 22.897 4
      vertex 8.294 -0.416 4
      vertex 24.074 22.897 0
    endloop
  endfacet
  facet normal 0 1 0
    outer loop
      vertex 6.747 22.897 0
      vertex 6.747 22.897 4
      vertex 24.074 22.897 0
    endloop
  endfacet
  facet normal 0 1 0
    outer loop
      vertex 24.074 22.897 0
      vertex 6.747 22.897 4
      vertex 24.074 22.897 4
    endloop
  endfacet
  facet normal -0.860994 0.508614 0
    outer loop
      vertex 0.044 11.55 0
      vertex 0.044 11.55 4
      vertex 6.747 22.897 0
    endloop
  endfacet
  facet normal -0.860994 0.508614 0
    outer loop
      vertex 6.747 22.897 0
      vertex 0.044 11.55 4
      vertex 6.747 22.897 4
    endloop
  endfacet
  facet normal 0.869707 0.493568 0
    outer loop
      vertex 0.044 11.55 0
      vertex -6.454 23 0
      vertex -6.454 23 4
    endloop
  endfacet
  facet normal 0.869707 0.493568 0
    outer loop
      vertex 0.044 11.55 4
      vertex 0.044 11.55 0
      vertex -6.454 23 4
    endloop
  endfacet
  facet normal 0 1 0
    outer loop
      vertex -23.987 23 0
      vertex -23.987 23 4
      vertex -6.454 23 0
    endloop
  endfacet
  facet normal 0 1 0
    outer loop
      vertex -6.454 23 0
      vertex -23.987 23 4
      vertex -6.454 23 4
    endloop
  endfacet
  facet normal -0.82303 -0.567998 0
    outer loop
      vertex -23.987 23 0
      vertex -7.898 -0.313 0
      vertex -23.987 23 4
    endloop
  endfacet
  facet normal -0.82303 -0.567998 0
    outer loop
      vertex -23.987 23 4
      vertex -7.898 -0.313 0
      vertex -7.898 -0.313 4
    endloop
  endfacet
  facet normal 1 0 0
    outer loop
      vertex -17 21.5 0
      vertex -17 21.5 4
      vertex -17 18.5 4
    endloop
  endfacet
  facet normal 1 0 0
    outer loop
      vertex -17 18.5 0
      vertex -17 21.5 0
      vertex -17 18.5 4
    endloop
  endfacet
  facet normal 0 -1 0
    outer loop
      vertex -9 21.5 0
      vertex -9 21.5 4
      vertex -17 21.5 4
    endloop
  endfacet
  facet normal 0 -1 0
    outer loop
      vertex -17 21.5 0
      vertex -9 21.5 0
      vertex -17 21.5 4
    endloop
  endfacet
  facet normal -1 0 0
    outer loop
      vertex -9 21.5 4
      vertex -9 21.5 0
      vertex -9 18.5 4
    endloop
  endfacet
  facet normal -1 0 0
    outer loop
      vertex -9 18.5 4
      vertex -9 21.5 0
      vertex -9 18.5 0
    endloop
  endfacet
  facet normal 0 1 0
    outer loop
      vertex -9 18.5 4
      vertex -9 18.5 0
      vertex -17 18.5 4
    endloop
  endfacet
  facet normal 0 1 0
    outer loop
      vertex -17 18.5 4
      vertex -9 18.5 0
      vertex -17 18.5 0
    endloop
  endfacet
endsolid OpenSCAD_Model
