solid OpenSCAD_Model
  facet normal 0 0 -1
    outer loop
      vertex -10 0 -45
      vertex -9.92115 1.56666 -45
      vertex -9.92115 -1.56666 -45
    endloop
  endfacet
  facet normal 0 0 -1
    outer loop
      vertex -9.92115 -1.56666 -45
      vertex -9.92115 1.56666 -45
      vertex -9.68583 3.10862 -45
    endloop
  endfacet
  facet normal 0 0 -1
    outer loop
      vertex -9.92115 -1.56666 -45
      vertex -9.68583 3.10862 -45
      vertex -9.29776 4.60156 -45
    endloop
  endfacet
  facet normal 0 0 -1
    outer loop
      vertex -9.92115 -1.56666 -45
      vertex -9.29776 4.60156 -45
      vertex -8.76307 6.02192 -45
    endloop
  endfacet
  facet normal 0 0 -1
    outer loop
      vertex -9.92115 -1.56666 -45
      vertex -8.76307 6.02192 -45
      vertex -8.09017 7.34732 -45
    endloop
  endfacet
  facet normal 0 0 -1
    outer loop
      vertex -9.92115 -1.56666 -45
      vertex -8.09017 7.34732 -45
      vertex -7.28969 8.55684 -45
    endloop
  endfacet
  facet normal 0 0 -1
    outer loop
      vertex -9.92115 -1.56666 -45
      vertex -7.28969 8.55684 -45
      vertex -6.37424 9.63142 -45
    endloop
  endfacet
  facet normal 0 0 -1
    outer loop
      vertex -9.92115 -1.56666 -45
      vertex -6.37424 9.63142 -45
      vertex -5.35827 10.5541 -45
    endloop
  endfacet
  facet normal 0 0 -1
    outer loop
      vertex -9.92115 -1.56666 -45
      vertex -5.35827 10.5541 -45
      vertex -4.25779 11.3103 -45
    endloop
  endfacet
  facet normal 0 0 -1
    outer loop
      vertex -9.92115 -1.56666 -45
      vertex -4.25779 11.3103 -45
      vertex -3.09017 11.8882 -45
    endloop
  endfacet
  facet normal 0 0 -1
    outer loop
      vertex -9.92115 -1.56666 -45
      vertex -3.09017 11.8882 -45
      vertex -1.87381 12.2786 -45
    endloop
  endfacet
  facet normal 0 0 -1
    outer loop
      vertex -9.92115 -1.56666 -45
      vertex -1.87381 12.2786 -45
      vertex -0.627905 12.4753 -45
    endloop
  endfacet
  facet normal 0 0 -1
    outer loop
      vertex -9.92115 -1.56666 -45
      vertex -0.627905 12.4753 -45
      vertex 0.627905 12.4753 -45
    endloop
  endfacet
  facet normal 0 0 -1
    outer loop
      vertex -9.92115 -1.56666 -45
      vertex 0.627905 12.4753 -45
      vertex 1.87381 12.2786 -45
    endloop
  endfacet
  facet normal 0 0 -1
    outer loop
      vertex -9.92115 -1.56666 -45
      vertex 1.87381 12.2786 -45
      vertex 3.09017 11.8882 -45
    endloop
  endfacet
  facet normal 0 0 -1
    outer loop
      vertex -9.92115 -1.56666 -45
      vertex 3.09017 11.8882 -45
      vertex 4.25779 11.3103 -45
    endloop
  endfacet
  facet normal 0 0 -1
    outer loop
      vertex -9.92115 -1.56666 -45
      vertex 4.25779 11.3103 -45
      vertex 5.35827 10.5541 -45
    endloop
  endfacet
  facet normal 0 0 -1
    outer loop
      vertex -9.92115 -1.56666 -45
      vertex 5.35827 10.5541 -45
      vertex 6.37424 9.63142 -45
    endloop
  endfacet
  facet normal 0 0 -1
    outer loop
      vertex -9.92115 -1.56666 -45
      vertex 6.37424 9.63142 -45
      vertex 7.28969 8.55684 -45
    endloop
  endfacet
  facet normal 0 0 -1
    outer loop
      vertex -9.92115 -1.56666 -45
      vertex 7.28969 8.55684 -45
      vertex 8.09017 7.34732 -45
    endloop
  endfacet
  facet normal 0 0 -1
    outer loop
      vertex -9.92115 -1.56666 -45
      vertex 8.09017 7.34732 -45
      vertex 8.76307 6.02192 -45
    endloop
  endfacet
  facet normal 0 0 -1
    outer loop
      vertex -9.92115 -1.56666 -45
      vertex 8.76307 6.02192 -45
      vertex 9.29776 4.60156 -45
    endloop
  endfacet
  facet normal 0 0 -1
    outer loop
      vertex -9.92115 -1.56666 -45
      vertex 9.29776 4.60156 -45
      vertex 9.68583 3.10862 -45
    endloop
  endfacet
  facet normal 0 0 -1
    outer loop
      vertex -9.92115 -1.56666 -45
      vertex 9.68583 3.10862 -45
      vertex 9.92115 1.56666 -45
    endloop
  endfacet
  facet normal 0 0 -1
    outer loop
      vertex -9.92115 -1.56666 -45
      vertex 9.92115 1.56666 -45
      vertex 10 0 -45
    endloop
  endfacet
  facet normal 0 0 -1
    outer loop
      vertex -9.92115 -1.56666 -45
      vertex 10 0 -45
      vertex 9.92115 -1.56666 -45
    endloop
  endfacet
  facet normal 0 0 -1
    outer loop
      vertex -9.92115 -1.56666 -45
      vertex 9.92115 -1.56666 -45
      vertex 9.68583 -3.10862 -45
    endloop
  endfacet
  facet normal 0 0 -1
    outer loop
      vertex -9.92115 -1.56666 -45
      vertex 9.68583 -3.10862 -45
      vertex 9.29776 -4.60156 -45
    endloop
  endfacet
  facet normal 0 0 -1
    outer loop
      vertex -9.92115 -1.56666 -45
      vertex 9.29776 -4.60156 -45
      vertex 8.76307 -6.02192 -45
    endloop
  endfacet
  facet normal 0 0 -1
    outer loop
      vertex -9.92115 -1.56666 -45
      vertex 8.76307 -6.02192 -45
      vertex 8.09017 -7.34732 -45
    endloop
  endfacet
  facet normal 0 0 -1
    outer loop
      vertex -9.92115 -1.56666 -45
      vertex 8.09017 -7.34732 -45
      vertex 7.28969 -8.55684 -45
    endloop
  endfacet
  facet normal 0 0 -1
    outer loop
      vertex -9.92115 -1.56666 -45
      vertex 7.28969 -8.55684 -45
      vertex 6.37424 -9.63142 -45
    endloop
  endfacet
  facet normal 0 0 -1
    outer loop
      vertex -9.92115 -1.56666 -45
      vertex 6.37424 -9.63142 -45
      vertex 5.35827 -10.5541 -45
    endloop
  endfacet
  facet normal 0 0 -1
    outer loop
      vertex -9.92115 -1.56666 -45
      vertex 5.35827 -10.5541 -45
      vertex 4.25779 -11.3103 -45
    endloop
  endfacet
  facet normal 0 0 -1
    outer loop
      vertex -9.92115 -1.56666 -45
      vertex 4.25779 -11.3103 -45
      vertex 3.09017 -11.8882 -45
    endloop
  endfacet
  facet normal 0 0 -1
    outer loop
      vertex -9.92115 -1.56666 -45
      vertex 3.09017 -11.8882 -45
      vertex 1.87381 -12.2786 -45
    endloop
  endfacet
  facet normal 0 0 -1
    outer loop
      vertex -9.92115 -1.56666 -45
      vertex 1.87381 -12.2786 -45
      vertex 0.627905 -12.4753 -45
    endloop
  endfacet
  facet normal 0 0 -1
    outer loop
      vertex -9.92115 -1.56666 -45
      vertex 0.627905 -12.4753 -45
      vertex -0.627905 -12.4753 -45
    endloop
  endfacet
  facet normal 0 0 -1
    outer loop
      vertex -9.92115 -1.56666 -45
      vertex -0.627905 -12.4753 -45
      vertex -1.87381 -12.2786 -45
    endloop
  endfacet
  facet normal 0 0 -1
    outer loop
      vertex -9.92115 -1.56666 -45
      vertex -1.87381 -12.2786 -45
      vertex -3.09017 -11.8882 -45
    endloop
  endfacet
  facet normal 0 0 -1
    outer loop
      vertex -9.92115 -1.56666 -45
      vertex -3.09017 -11.8882 -45
      vertex -4.25779 -11.3103 -45
    endloop
  endfacet
  facet normal 0 0 -1
    outer loop
      vertex -9.92115 -1.56666 -45
      vertex -4.25779 -11.3103 -45
      vertex -5.35827 -10.5541 -45
    endloop
  endfacet
  facet normal 0 0 -1
    outer loop
      vertex -9.92115 -1.56666 -45
      vertex -5.35827 -10.5541 -45
      vertex -6.37424 -9.63142 -45
    endloop
  endfacet
  facet normal 0 0 -1
    outer loop
      vertex -9.92115 -1.56666 -45
      vertex -6.37424 -9.63142 -45
      vertex -7.28969 -8.55684 -45
    endloop
  endfacet
  facet normal 0 0 -1
    outer loop
      vertex -9.92115 -1.56666 -45
      vertex -7.28969 -8.55684 -45
      vertex -8.09017 -7.34732 -45
    endloop
  endfacet
  facet normal 0 0 -1
    outer loop
      vertex -9.92115 -1.56666 -45
      vertex -8.09017 -7.34732 -45
      vertex -8.76307 -6.02192 -45
    endloop
  endfacet
  facet normal 0 0 -1
    outer loop
      vertex -9.92115 -1.56666 -45
      vertex -8.76307 -6.02192 -45
      vertex -9.29776 -4.60156 -45
    endloop
  endfacet
  facet normal 0 0 -1
    outer loop
      vertex -9.92115 -1.56666 -45
      vertex -9.29776 -4.60156 -45
      vertex -9.68583 -3.10862 -45
    endloop
  endfacet
  facet normal -0.998736 0.050268 0
    outer loop
      vertex -10 0 -45
      vertex -10 0 -42
      vertex -9.92115 1.56666 -45
    endloop
  endfacet
  facet normal -0.998736 0.050268 0
    outer loop
      vertex -9.92115 1.56666 -45
      vertex -10 0 -42
      vertex -9.92115 1.56666 -42
    endloop
  endfacet
  facet normal -0.998736 -0.050268 0
    outer loop
      vertex -10 0 -45
      vertex -9.92115 -1.56666 -45
      vertex -10 0 -42
    endloop
  endfacet
  facet normal -0.998736 -0.050268 0
    outer loop
      vertex -10 0 -42
      vertex -9.92115 -1.56666 -45
      vertex -9.92115 -1.56666 -42
    endloop
  endfacet
  facet normal -0.988555 -0.150861 0
    outer loop
      vertex -9.92115 -1.56666 -45
      vertex -9.68583 -3.10862 -45
      vertex -9.92115 -1.56666 -42
    endloop
  endfacet
  facet normal -0.988555 -0.150861 0
    outer loop
      vertex -9.92115 -1.56666 -42
      vertex -9.68583 -3.10862 -45
      vertex -9.68583 -3.10862 -42
    endloop
  endfacet
  facet normal -0.967838 -0.251576 0
    outer loop
      vertex -9.68583 -3.10862 -45
      vertex -9.29776 -4.60156 -45
      vertex -9.68583 -3.10862 -42
    endloop
  endfacet
  facet normal -0.967838 -0.251576 0
    outer loop
      vertex -9.68583 -3.10862 -42
      vertex -9.29776 -4.60156 -45
      vertex -9.29776 -4.60156 -42
    endloop
  endfacet
  facet normal -0.935882 -0.352314 0
    outer loop
      vertex -9.29776 -4.60156 -45
      vertex -8.76307 -6.02192 -45
      vertex -9.29776 -4.60156 -42
    endloop
  endfacet
  facet normal -0.935882 -0.352314 0
    outer loop
      vertex -9.29776 -4.60156 -42
      vertex -8.76307 -6.02192 -45
      vertex -8.76307 -6.02192 -42
    endloop
  endfacet
  facet normal -0.891665 -0.452695 0
    outer loop
      vertex -8.76307 -6.02192 -45
      vertex -8.09017 -7.34732 -45
      vertex -8.76307 -6.02192 -42
    endloop
  endfacet
  facet normal -0.891665 -0.452695 0
    outer loop
      vertex -8.76307 -6.02192 -42
      vertex -8.09017 -7.34732 -45
      vertex -8.09017 -7.34732 -42
    endloop
  endfacet
  facet normal -0.833912 -0.551897 0
    outer loop
      vertex -8.09017 -7.34732 -45
      vertex -7.28969 -8.55684 -45
      vertex -8.09017 -7.34732 -42
    endloop
  endfacet
  facet normal -0.833912 -0.551897 0
    outer loop
      vertex -8.09017 -7.34732 -42
      vertex -7.28969 -8.55684 -45
      vertex -7.28969 -8.55684 -42
    endloop
  endfacet
  facet normal -0.76122 -0.648494 0
    outer loop
      vertex -7.28969 -8.55684 -45
      vertex -6.37424 -9.63142 -45
      vertex -7.28969 -8.55684 -42
    endloop
  endfacet
  facet normal -0.76122 -0.648494 0
    outer loop
      vertex -7.28969 -8.55684 -42
      vertex -6.37424 -9.63142 -45
      vertex -6.37424 -9.63142 -42
    endloop
  endfacet
  facet normal -0.672303 -0.740277 0
    outer loop
      vertex -6.37424 -9.63142 -42
      vertex -6.37424 -9.63142 -45
      vertex -5.35827 -10.5541 -45
    endloop
  endfacet
  facet normal -0.672303 -0.740277 0
    outer loop
      vertex -5.35827 -10.5541 -42
      vertex -6.37424 -9.63142 -42
      vertex -5.35827 -10.5541 -45
    endloop
  endfacet
  facet normal -0.566357 -0.82416 0
    outer loop
      vertex -5.35827 -10.5541 -42
      vertex -5.35827 -10.5541 -45
      vertex -4.25779 -11.3103 -45
    endloop
  endfacet
  facet normal -0.566357 -0.82416 0
    outer loop
      vertex -4.25779 -11.3103 -42
      vertex -5.35827 -10.5541 -42
      vertex -4.25779 -11.3103 -45
    endloop
  endfacet
  facet normal -0.44356 -0.896245 0
    outer loop
      vertex -4.25779 -11.3103 -42
      vertex -4.25779 -11.3103 -45
      vertex -3.09017 -11.8882 -45
    endloop
  endfacet
  facet normal -0.44356 -0.896245 0
    outer loop
      vertex -3.09017 -11.8882 -42
      vertex -4.25779 -11.3103 -42
      vertex -3.09017 -11.8882 -45
    endloop
  endfacet
  facet normal -0.305593 -0.952162 0
    outer loop
      vertex -3.09017 -11.8882 -42
      vertex -3.09017 -11.8882 -45
      vertex -1.87381 -12.2786 -45
    endloop
  endfacet
  facet normal -0.305593 -0.952162 0
    outer loop
      vertex -1.87381 -12.2786 -42
      vertex -3.09017 -11.8882 -42
      vertex -1.87381 -12.2786 -45
    endloop
  endfacet
  facet normal -0.155979 -0.98776 0
    outer loop
      vertex -1.87381 -12.2786 -42
      vertex -1.87381 -12.2786 -45
      vertex -0.627905 -12.4753 -45
    endloop
  endfacet
  facet normal -0.155979 -0.98776 0
    outer loop
      vertex -0.627905 -12.4753 -42
      vertex -1.87381 -12.2786 -42
      vertex -0.627905 -12.4753 -45
    endloop
  endfacet
  facet normal 0 -1 0
    outer loop
      vertex -0.627905 -12.4753 -42
      vertex -0.627905 -12.4753 -45
      vertex 0.627905 -12.4753 -45
    endloop
  endfacet
  facet normal 0 -1 0
    outer loop
      vertex 0.627905 -12.4753 -42
      vertex -0.627905 -12.4753 -42
      vertex 0.627905 -12.4753 -45
    endloop
  endfacet
  facet normal 0.155979 -0.98776 0
    outer loop
      vertex 0.627905 -12.4753 -42
      vertex 0.627905 -12.4753 -45
      vertex 1.87381 -12.2786 -45
    endloop
  endfacet
  facet normal 0.155979 -0.98776 0
    outer loop
      vertex 1.87381 -12.2786 -42
      vertex 0.627905 -12.4753 -42
      vertex 1.87381 -12.2786 -45
    endloop
  endfacet
  facet normal 0.305593 -0.952162 0
    outer loop
      vertex 1.87381 -12.2786 -42
      vertex 1.87381 -12.2786 -45
      vertex 3.09017 -11.8882 -45
    endloop
  endfacet
  facet normal 0.305593 -0.952162 0
    outer loop
      vertex 3.09017 -11.8882 -42
      vertex 1.87381 -12.2786 -42
      vertex 3.09017 -11.8882 -45
    endloop
  endfacet
  facet normal 0.44356 -0.896245 0
    outer loop
      vertex 3.09017 -11.8882 -42
      vertex 3.09017 -11.8882 -45
      vertex 4.25779 -11.3103 -45
    endloop
  endfacet
  facet normal 0.44356 -0.896245 0
    outer loop
      vertex 4.25779 -11.3103 -42
      vertex 3.09017 -11.8882 -42
      vertex 4.25779 -11.3103 -45
    endloop
  endfacet
  facet normal 0.566357 -0.82416 0
    outer loop
      vertex 4.25779 -11.3103 -42
      vertex 4.25779 -11.3103 -45
      vertex 5.35827 -10.5541 -45
    endloop
  endfacet
  facet normal 0.566357 -0.82416 0
    outer loop
      vertex 5.35827 -10.5541 -42
      vertex 4.25779 -11.3103 -42
      vertex 5.35827 -10.5541 -45
    endloop
  endfacet
  facet normal 0.672303 -0.740277 0
    outer loop
      vertex 5.35827 -10.5541 -42
      vertex 5.35827 -10.5541 -45
      vertex 6.37424 -9.63142 -45
    endloop
  endfacet
  facet normal 0.672303 -0.740277 0
    outer loop
      vertex 6.37424 -9.63142 -42
      vertex 5.35827 -10.5541 -42
      vertex 6.37424 -9.63142 -45
    endloop
  endfacet
  facet normal 0.76122 -0.648494 0
    outer loop
      vertex 6.37424 -9.63142 -42
      vertex 6.37424 -9.63142 -45
      vertex 7.28969 -8.55684 -45
    endloop
  endfacet
  facet normal 0.76122 -0.648494 0
    outer loop
      vertex 7.28969 -8.55684 -42
      vertex 6.37424 -9.63142 -42
      vertex 7.28969 -8.55684 -45
    endloop
  endfacet
  facet normal 0.833912 -0.551897 0
    outer loop
      vertex 7.28969 -8.55684 -42
      vertex 7.28969 -8.55684 -45
      vertex 8.09017 -7.34732 -45
    endloop
  endfacet
  facet normal 0.833912 -0.551897 0
    outer loop
      vertex 8.09017 -7.34732 -42
      vertex 7.28969 -8.55684 -42
      vertex 8.09017 -7.34732 -45
    endloop
  endfacet
  facet normal 0.891665 -0.452695 0
    outer loop
      vertex 8.09017 -7.34732 -42
      vertex 8.09017 -7.34732 -45
      vertex 8.76307 -6.02192 -45
    endloop
  endfacet
  facet normal 0.891665 -0.452695 0
    outer loop
      vertex 8.76307 -6.02192 -42
      vertex 8.09017 -7.34732 -42
      vertex 8.76307 -6.02192 -45
    endloop
  endfacet
  facet normal 0.935882 -0.352314 0
    outer loop
      vertex 8.76307 -6.02192 -42
      vertex 8.76307 -6.02192 -45
      vertex 9.29776 -4.60156 -45
    endloop
  endfacet
  facet normal 0.935882 -0.352314 0
    outer loop
      vertex 9.29776 -4.60156 -42
      vertex 8.76307 -6.02192 -42
      vertex 9.29776 -4.60156 -45
    endloop
  endfacet
  facet normal 0.967838 -0.251576 0
    outer loop
      vertex 9.29776 -4.60156 -42
      vertex 9.29776 -4.60156 -45
      vertex 9.68583 -3.10862 -45
    endloop
  endfacet
  facet normal 0.967838 -0.251576 0
    outer loop
      vertex 9.68583 -3.10862 -42
      vertex 9.29776 -4.60156 -42
      vertex 9.68583 -3.10862 -45
    endloop
  endfacet
  facet normal 0.988555 -0.150861 0
    outer loop
      vertex 9.68583 -3.10862 -42
      vertex 9.68583 -3.10862 -45
      vertex 9.92115 -1.56666 -45
    endloop
  endfacet
  facet normal 0.988555 -0.150861 0
    outer loop
      vertex 9.92115 -1.56666 -42
      vertex 9.68583 -3.10862 -42
      vertex 9.92115 -1.56666 -45
    endloop
  endfacet
  facet normal 0.998736 -0.050268 0
    outer loop
      vertex 9.92115 -1.56666 -42
      vertex 9.92115 -1.56666 -45
      vertex 10 0 -45
    endloop
  endfacet
  facet normal 0.998736 -0.050268 0
    outer loop
      vertex 10 0 -42
      vertex 9.92115 -1.56666 -42
      vertex 10 0 -45
    endloop
  endfacet
  facet normal 0.998736 0.050268 0
    outer loop
      vertex 10 0 -45
      vertex 9.92115 1.56666 -45
      vertex 9.92115 1.56666 -42
    endloop
  endfacet
  facet normal 0.998736 0.050268 0
    outer loop
      vertex 10 0 -42
      vertex 10 0 -45
      vertex 9.92115 1.56666 -42
    endloop
  endfacet
  facet normal 0.988555 0.150861 0
    outer loop
      vertex 9.92115 1.56666 -45
      vertex 9.68583 3.10862 -45
      vertex 9.68583 3.10862 -42
    endloop
  endfacet
  facet normal 0.988555 0.150861 0
    outer loop
      vertex 9.92115 1.56666 -42
      vertex 9.92115 1.56666 -45
      vertex 9.68583 3.10862 -42
    endloop
  endfacet
  facet normal 0.967838 0.251576 0
    outer loop
      vertex 9.68583 3.10862 -45
      vertex 9.29776 4.60156 -45
      vertex 9.29776 4.60156 -42
    endloop
  endfacet
  facet normal 0.967838 0.251576 0
    outer loop
      vertex 9.68583 3.10862 -42
      vertex 9.68583 3.10862 -45
      vertex 9.29776 4.60156 -42
    endloop
  endfacet
  facet normal 0.935882 0.352314 0
    outer loop
      vertex 9.29776 4.60156 -45
      vertex 8.76307 6.02192 -45
      vertex 8.76307 6.02192 -42
    endloop
  endfacet
  facet normal 0.935882 0.352314 0
    outer loop
      vertex 9.29776 4.60156 -42
      vertex 9.29776 4.60156 -45
      vertex 8.76307 6.02192 -42
    endloop
  endfacet
  facet normal 0.891665 0.452695 0
    outer loop
      vertex 8.76307 6.02192 -45
      vertex 8.09017 7.34732 -45
      vertex 8.09017 7.34732 -42
    endloop
  endfacet
  facet normal 0.891665 0.452695 0
    outer loop
      vertex 8.76307 6.02192 -42
      vertex 8.76307 6.02192 -45
      vertex 8.09017 7.34732 -42
    endloop
  endfacet
  facet normal 0.833912 0.551897 0
    outer loop
      vertex 8.09017 7.34732 -45
      vertex 7.28969 8.55684 -45
      vertex 7.28969 8.55684 -42
    endloop
  endfacet
  facet normal 0.833912 0.551897 0
    outer loop
      vertex 8.09017 7.34732 -42
      vertex 8.09017 7.34732 -45
      vertex 7.28969 8.55684 -42
    endloop
  endfacet
  facet normal 0.76122 0.648494 0
    outer loop
      vertex 7.28969 8.55684 -45
      vertex 6.37424 9.63142 -45
      vertex 6.37424 9.63142 -42
    endloop
  endfacet
  facet normal 0.76122 0.648494 0
    outer loop
      vertex 7.28969 8.55684 -42
      vertex 7.28969 8.55684 -45
      vertex 6.37424 9.63142 -42
    endloop
  endfacet
  facet normal 0.672303 0.740277 0
    outer loop
      vertex 5.35827 10.5541 -45
      vertex 5.35827 10.5541 -42
      vertex 6.37424 9.63142 -45
    endloop
  endfacet
  facet normal 0.672303 0.740277 0
    outer loop
      vertex 6.37424 9.63142 -45
      vertex 5.35827 10.5541 -42
      vertex 6.37424 9.63142 -42
    endloop
  endfacet
  facet normal 0.566357 0.82416 0
    outer loop
      vertex 4.25779 11.3103 -45
      vertex 4.25779 11.3103 -42
      vertex 5.35827 10.5541 -45
    endloop
  endfacet
  facet normal 0.566357 0.82416 0
    outer loop
      vertex 5.35827 10.5541 -45
      vertex 4.25779 11.3103 -42
      vertex 5.35827 10.5541 -42
    endloop
  endfacet
  facet normal 0.44356 0.896245 0
    outer loop
      vertex 3.09017 11.8882 -45
      vertex 3.09017 11.8882 -42
      vertex 4.25779 11.3103 -45
    endloop
  endfacet
  facet normal 0.44356 0.896245 0
    outer loop
      vertex 4.25779 11.3103 -45
      vertex 3.09017 11.8882 -42
      vertex 4.25779 11.3103 -42
    endloop
  endfacet
  facet normal 0.305593 0.952162 0
    outer loop
      vertex 1.87381 12.2786 -45
      vertex 1.87381 12.2786 -42
      vertex 3.09017 11.8882 -45
    endloop
  endfacet
  facet normal 0.305593 0.952162 0
    outer loop
      vertex 3.09017 11.8882 -45
      vertex 1.87381 12.2786 -42
      vertex 3.09017 11.8882 -42
    endloop
  endfacet
  facet normal 0.155979 0.98776 0
    outer loop
      vertex 0.627905 12.4753 -45
      vertex 0.627905 12.4753 -42
      vertex 1.87381 12.2786 -45
    endloop
  endfacet
  facet normal 0.155979 0.98776 0
    outer loop
      vertex 1.87381 12.2786 -45
      vertex 0.627905 12.4753 -42
      vertex 1.87381 12.2786 -42
    endloop
  endfacet
  facet normal 0 1 0
    outer loop
      vertex -0.627905 12.4753 -45
      vertex -0.627905 12.4753 -42
      vertex 0.627905 12.4753 -45
    endloop
  endfacet
  facet normal 0 1 0
    outer loop
      vertex 0.627905 12.4753 -45
      vertex -0.627905 12.4753 -42
      vertex 0.627905 12.4753 -42
    endloop
  endfacet
  facet normal -0.155979 0.98776 0
    outer loop
      vertex -1.87381 12.2786 -45
      vertex -1.87381 12.2786 -42
      vertex -0.627905 12.4753 -45
    endloop
  endfacet
  facet normal -0.155979 0.98776 0
    outer loop
      vertex -0.627905 12.4753 -45
      vertex -1.87381 12.2786 -42
      vertex -0.627905 12.4753 -42
    endloop
  endfacet
  facet normal -0.305593 0.952162 0
    outer loop
      vertex -3.09017 11.8882 -45
      vertex -3.09017 11.8882 -42
      vertex -1.87381 12.2786 -45
    endloop
  endfacet
  facet normal -0.305593 0.952162 0
    outer loop
      vertex -1.87381 12.2786 -45
      vertex -3.09017 11.8882 -42
      vertex -1.87381 12.2786 -42
    endloop
  endfacet
  facet normal -0.44356 0.896245 0
    outer loop
      vertex -4.25779 11.3103 -45
      vertex -4.25779 11.3103 -42
      vertex -3.09017 11.8882 -45
    endloop
  endfacet
  facet normal -0.44356 0.896245 0
    outer loop
      vertex -3.09017 11.8882 -45
      vertex -4.25779 11.3103 -42
      vertex -3.09017 11.8882 -42
    endloop
  endfacet
  facet normal -0.566357 0.82416 0
    outer loop
      vertex -5.35827 10.5541 -45
      vertex -5.35827 10.5541 -42
      vertex -4.25779 11.3103 -45
    endloop
  endfacet
  facet normal -0.566357 0.82416 0
    outer loop
      vertex -4.25779 11.3103 -45
      vertex -5.35827 10.5541 -42
      vertex -4.25779 11.3103 -42
    endloop
  endfacet
  facet normal -0.672303 0.740277 0
    outer loop
      vertex -6.37424 9.63142 -45
      vertex -6.37424 9.63142 -42
      vertex -5.35827 10.5541 -45
    endloop
  endfacet
  facet normal -0.672303 0.740277 0
    outer loop
      vertex -5.35827 10.5541 -45
      vertex -6.37424 9.63142 -42
      vertex -5.35827 10.5541 -42
    endloop
  endfacet
  facet normal -0.76122 0.648494 0
    outer loop
      vertex -7.28969 8.55684 -45
      vertex -7.28969 8.55684 -42
      vertex -6.37424 9.63142 -45
    endloop
  endfacet
  facet normal -0.76122 0.648494 0
    outer loop
      vertex -6.37424 9.63142 -45
      vertex -7.28969 8.55684 -42
      vertex -6.37424 9.63142 -42
    endloop
  endfacet
  facet normal -0.833912 0.551897 0
    outer loop
      vertex -8.09017 7.34732 -45
      vertex -8.09017 7.34732 -42
      vertex -7.28969 8.55684 -45
    endloop
  endfacet
  facet normal -0.833912 0.551897 0
    outer loop
      vertex -7.28969 8.55684 -45
      vertex -8.09017 7.34732 -42
      vertex -7.28969 8.55684 -42
    endloop
  endfacet
  facet normal -0.891665 0.452695 0
    outer loop
      vertex -8.76307 6.02192 -45
      vertex -8.76307 6.02192 -42
      vertex -8.09017 7.34732 -45
    endloop
  endfacet
  facet normal -0.891665 0.452695 0
    outer loop
      vertex -8.09017 7.34732 -45
      vertex -8.76307 6.02192 -42
      vertex -8.09017 7.34732 -42
    endloop
  endfacet
  facet normal -0.935882 0.352314 0
    outer loop
      vertex -9.29776 4.60156 -45
      vertex -9.29776 4.60156 -42
      vertex -8.76307 6.02192 -45
    endloop
  endfacet
  facet normal -0.935882 0.352314 0
    outer loop
      vertex -8.76307 6.02192 -45
      vertex -9.29776 4.60156 -42
      vertex -8.76307 6.02192 -42
    endloop
  endfacet
  facet normal -0.967838 0.251576 0
    outer loop
      vertex -9.68583 3.10862 -45
      vertex -9.68583 3.10862 -42
      vertex -9.29776 4.60156 -45
    endloop
  endfacet
  facet normal -0.967838 0.251576 0
    outer loop
      vertex -9.29776 4.60156 -45
      vertex -9.68583 3.10862 -42
      vertex -9.29776 4.60156 -42
    endloop
  endfacet
  facet normal -0.988555 0.150861 0
    outer loop
      vertex -9.92115 1.56666 -45
      vertex -9.92115 1.56666 -42
      vertex -9.68583 3.10862 -45
    endloop
  endfacet
  facet normal -0.988555 0.150861 0
    outer loop
      vertex -9.68583 3.10862 -45
      vertex -9.92115 1.56666 -42
      vertex -9.68583 3.10862 -42
    endloop
  endfacet
  facet normal 0 0 1
    outer loop
      vertex -9.92115 1.56666 -42
      vertex -10 0 -42
      vertex -9.92115 -1.56666 -42
    endloop
  endfacet
  facet normal 0 0 1
    outer loop
      vertex -9.29776 -4.60156 -42
      vertex -9.92115 1.56666 -42
      vertex -9.68583 -3.10862 -42
    endloop
  endfacet
  facet normal 0 0 1
    outer loop
      vertex -9.68583 -3.10862 -42
      vertex -9.92115 1.56666 -42
      vertex -9.92115 -1.56666 -42
    endloop
  endfacet
  facet normal 0 0 1
    outer loop
      vertex -8.76307 -6.02192 -42
      vertex -9.92115 1.56666 -42
      vertex -9.29776 -4.60156 -42
    endloop
  endfacet
  facet normal 0 0 1
    outer loop
      vertex -8.09017 -7.34732 -42
      vertex -9.92115 1.56666 -42
      vertex -8.76307 -6.02192 -42
    endloop
  endfacet
  facet normal 0 0 1
    outer loop
      vertex -7.28969 -8.55684 -42
      vertex -9.92115 1.56666 -42
      vertex -8.09017 -7.34732 -42
    endloop
  endfacet
  facet normal 0 0 1
    outer loop
      vertex -6.37424 -9.63142 -42
      vertex -9.92115 1.56666 -42
      vertex -7.28969 -8.55684 -42
    endloop
  endfacet
  facet normal 0 0 1
    outer loop
      vertex -5.35827 -10.5541 -42
      vertex -9.92115 1.56666 -42
      vertex -6.37424 -9.63142 -42
    endloop
  endfacet
  facet normal 0 0 1
    outer loop
      vertex -4.25779 -11.3103 -42
      vertex -9.92115 1.56666 -42
      vertex -5.35827 -10.5541 -42
    endloop
  endfacet
  facet normal 0 0 1
    outer loop
      vertex -3.09017 -11.8882 -42
      vertex -9.92115 1.56666 -42
      vertex -4.25779 -11.3103 -42
    endloop
  endfacet
  facet normal 0 0 1
    outer loop
      vertex -1.87381 -12.2786 -42
      vertex -9.92115 1.56666 -42
      vertex -3.09017 -11.8882 -42
    endloop
  endfacet
  facet normal 0 0 1
    outer loop
      vertex -0.627905 -12.4753 -42
      vertex -9.92115 1.56666 -42
      vertex -1.87381 -12.2786 -42
    endloop
  endfacet
  facet normal 0 0 1
    outer loop
      vertex -5.86537 -4.26144 -42
      vertex -9.92115 1.56666 -42
      vertex -0.627905 -12.4753 -42
    endloop
  endfacet
  facet normal 0 0 1
    outer loop
      vertex -6.56 -3.0869 -42
      vertex -6.74088 -2.6689 -42
      vertex -9.92115 1.56666 -42
    endloop
  endfacet
  facet normal 0 0 1
    outer loop
      vertex -2.6689 -6.74088 -42
      vertex -3.0869 -6.56 -42
      vertex 1.87381 -12.2786 -42
    endloop
  endfacet
  facet normal 0 0 1
    outer loop
      vertex 4.96297 -5.28502 -42
      vertex 4.62132 -5.58622 -42
      vertex 8.09017 -7.34732 -42
    endloop
  endfacet
  facet normal 0 0 1
    outer loop
      vertex 3.88474 -6.12138 -42
      vertex 3.49271 -6.35322 -42
      vertex 7.28969 -8.55684 -42
    endloop
  endfacet
  facet normal 0 0 1
    outer loop
      vertex 7.23569 0.455231 -42
      vertex 7.25 0 -42
      vertex 10 0 -42
    endloop
  endfacet
  facet normal 0 0 1
    outer loop
      vertex 6.56 3.0869 -42
      vertex 6.74088 2.6689 -42
      vertex 9.68583 3.10862 -42
    endloop
  endfacet
  facet normal 0 0 1
    outer loop
      vertex 3.88474 6.12138 -42
      vertex 4.26144 5.86537 -42
      vertex 8.09017 7.34732 -42
    endloop
  endfacet
  facet normal 0 0 1
    outer loop
      vertex 0.908666 7.19283 -42
      vertex 1.35851 7.12158 -42
      vertex 6.37424 9.63142 -42
    endloop
  endfacet
  facet normal 0 0 1
    outer loop
      vertex -1.803 7.02223 -42
      vertex -1.35851 7.12158 -42
      vertex 4.25779 11.3103 -42
    endloop
  endfacet
  facet normal 0 0 1
    outer loop
      vertex 1.87381 12.2786 -42
      vertex -9.92115 1.56666 -42
      vertex 3.09017 11.8882 -42
    endloop
  endfacet
  facet normal 0 0 1
    outer loop
      vertex 0.627905 12.4753 -42
      vertex -9.92115 1.56666 -42
      vertex 1.87381 12.2786 -42
    endloop
  endfacet
  facet normal 0 0 1
    outer loop
      vertex -0.627905 12.4753 -42
      vertex -9.92115 1.56666 -42
      vertex 0.627905 12.4753 -42
    endloop
  endfacet
  facet normal 0 0 1
    outer loop
      vertex -1.87381 12.2786 -42
      vertex -9.92115 1.56666 -42
      vertex -0.627905 12.4753 -42
    endloop
  endfacet
  facet normal 0 0 1
    outer loop
      vertex -3.09017 11.8882 -42
      vertex -9.92115 1.56666 -42
      vertex -1.87381 12.2786 -42
    endloop
  endfacet
  facet normal 0 0 1
    outer loop
      vertex -4.25779 11.3103 -42
      vertex -9.92115 1.56666 -42
      vertex -3.09017 11.8882 -42
    endloop
  endfacet
  facet normal 0 0 1
    outer loop
      vertex -5.35827 10.5541 -42
      vertex -9.92115 1.56666 -42
      vertex -4.25779 11.3103 -42
    endloop
  endfacet
  facet normal 0 0 1
    outer loop
      vertex -6.37424 9.63142 -42
      vertex -9.92115 1.56666 -42
      vertex -5.35827 10.5541 -42
    endloop
  endfacet
  facet normal 0 0 1
    outer loop
      vertex -7.28969 8.55684 -42
      vertex -9.92115 1.56666 -42
      vertex -6.37424 9.63142 -42
    endloop
  endfacet
  facet normal 0 0 1
    outer loop
      vertex -8.09017 7.34732 -42
      vertex -9.92115 1.56666 -42
      vertex -7.28969 8.55684 -42
    endloop
  endfacet
  facet normal 0 0 1
    outer loop
      vertex -8.76307 6.02192 -42
      vertex -9.92115 1.56666 -42
      vertex -8.09017 7.34732 -42
    endloop
  endfacet
  facet normal 0 0 1
    outer loop
      vertex -9.29776 4.60156 -42
      vertex -9.92115 1.56666 -42
      vertex -8.76307 6.02192 -42
    endloop
  endfacet
  facet normal 0 0 1
    outer loop
      vertex -9.68583 3.10862 -42
      vertex -9.92115 1.56666 -42
      vertex -9.29776 4.60156 -42
    endloop
  endfacet
  facet normal 0 0 1
    outer loop
      vertex -7.23569 0.455231 -42
      vertex -7.19283 0.908666 -42
      vertex -9.92115 1.56666 -42
    endloop
  endfacet
  facet normal 0 0 1
    outer loop
      vertex 4.62132 -5.58622 -42
      vertex 4.26144 -5.86537 -42
      vertex 8.09017 -7.34732 -42
    endloop
  endfacet
  facet normal 0 0 1
    outer loop
      vertex 7.19283 -0.908666 -42
      vertex 7.12158 -1.35851 -42
      vertex 9.92115 -1.56666 -42
    endloop
  endfacet
  facet normal 0 0 1
    outer loop
      vertex -6.89516 2.24037 -42
      vertex -6.74088 2.6689 -42
      vertex -9.92115 1.56666 -42
    endloop
  endfacet
  facet normal 0 0 1
    outer loop
      vertex 7.02223 1.803 -42
      vertex 7.12158 1.35851 -42
      vertex 9.92115 1.56666 -42
    endloop
  endfacet
  facet normal 0 0 1
    outer loop
      vertex 4.96297 5.28502 -42
      vertex 5.28502 4.96297 -42
      vertex 8.76307 6.02192 -42
    endloop
  endfacet
  facet normal 0 0 1
    outer loop
      vertex -3.88474 6.12138 -42
      vertex -3.49271 6.35322 -42
      vertex 3.09017 11.8882 -42
    endloop
  endfacet
  facet normal 0 0 1
    outer loop
      vertex 1.35851 7.12158 -42
      vertex 1.803 7.02223 -42
      vertex 6.37424 9.63142 -42
    endloop
  endfacet
  facet normal 0 0 1
    outer loop
      vertex -5.86537 4.26144 -42
      vertex -5.58622 4.62132 -42
      vertex -9.92115 1.56666 -42
    endloop
  endfacet
  facet normal 0 0 1
    outer loop
      vertex 2.6689 6.74088 -42
      vertex 3.0869 6.56 -42
      vertex 7.28969 8.55684 -42
    endloop
  endfacet
  facet normal 0 0 1
    outer loop
      vertex -5.86537 4.26144 -42
      vertex -9.92115 1.56666 -42
      vertex -6.12138 3.88474 -42
    endloop
  endfacet
  facet normal 0 0 1
    outer loop
      vertex -4.26144 5.86537 -42
      vertex -3.88474 6.12138 -42
      vertex 3.09017 11.8882 -42
    endloop
  endfacet
  facet normal 0 0 1
    outer loop
      vertex -0.455231 7.23569 -42
      vertex 0 7.25 -42
      vertex 5.35827 10.5541 -42
    endloop
  endfacet
  facet normal 0 0 1
    outer loop
      vertex -5.28502 4.96297 -42
      vertex -9.92115 1.56666 -42
      vertex -5.58622 4.62132 -42
    endloop
  endfacet
  facet normal 0 0 1
    outer loop
      vertex -4.96297 5.28502 -42
      vertex -9.92115 1.56666 -42
      vertex -5.28502 4.96297 -42
    endloop
  endfacet
  facet normal 0 0 1
    outer loop
      vertex -4.62132 5.58622 -42
      vertex -9.92115 1.56666 -42
      vertex -4.96297 5.28502 -42
    endloop
  endfacet
  facet normal 0 0 1
    outer loop
      vertex 3.09017 11.8882 -42
      vertex -9.92115 1.56666 -42
      vertex -4.62132 5.58622 -42
    endloop
  endfacet
  facet normal 0 0 1
    outer loop
      vertex 3.09017 11.8882 -42
      vertex -4.62132 5.58622 -42
      vertex -4.26144 5.86537 -42
    endloop
  endfacet
  facet normal 0 0 1
    outer loop
      vertex -2.24037 6.89516 -42
      vertex -1.803 7.02223 -42
      vertex 4.25779 11.3103 -42
    endloop
  endfacet
  facet normal 0 0 1
    outer loop
      vertex 3.09017 11.8882 -42
      vertex -3.49271 6.35322 -42
      vertex 4.25779 11.3103 -42
    endloop
  endfacet
  facet normal 0 0 1
    outer loop
      vertex -3.49271 6.35322 -42
      vertex -3.0869 6.56 -42
      vertex 4.25779 11.3103 -42
    endloop
  endfacet
  facet normal 0 0 1
    outer loop
      vertex -3.0869 6.56 -42
      vertex -2.6689 6.74088 -42
      vertex 4.25779 11.3103 -42
    endloop
  endfacet
  facet normal 0 0 1
    outer loop
      vertex -2.6689 6.74088 -42
      vertex -2.24037 6.89516 -42
      vertex 4.25779 11.3103 -42
    endloop
  endfacet
  facet normal 0 0 1
    outer loop
      vertex 4.25779 11.3103 -42
      vertex -1.35851 7.12158 -42
      vertex 5.35827 10.5541 -42
    endloop
  endfacet
  facet normal 0 0 1
    outer loop
      vertex -1.35851 7.12158 -42
      vertex -0.908666 7.19283 -42
      vertex 5.35827 10.5541 -42
    endloop
  endfacet
  facet normal 0 0 1
    outer loop
      vertex -0.908666 7.19283 -42
      vertex -0.455231 7.23569 -42
      vertex 5.35827 10.5541 -42
    endloop
  endfacet
  facet normal 0 0 1
    outer loop
      vertex 5.35827 10.5541 -42
      vertex 0 7.25 -42
      vertex 6.37424 9.63142 -42
    endloop
  endfacet
  facet normal 0 0 1
    outer loop
      vertex 0 7.25 -42
      vertex 0.455231 7.23569 -42
      vertex 6.37424 9.63142 -42
    endloop
  endfacet
  facet normal 0 0 1
    outer loop
      vertex 0.455231 7.23569 -42
      vertex 0.908666 7.19283 -42
      vertex 6.37424 9.63142 -42
    endloop
  endfacet
  facet normal 0 0 1
    outer loop
      vertex -6.35322 3.49271 -42
      vertex -6.12138 3.88474 -42
      vertex -9.92115 1.56666 -42
    endloop
  endfacet
  facet normal 0 0 1
    outer loop
      vertex 6.37424 9.63142 -42
      vertex 1.803 7.02223 -42
      vertex 7.28969 8.55684 -42
    endloop
  endfacet
  facet normal 0 0 1
    outer loop
      vertex 1.803 7.02223 -42
      vertex 2.24037 6.89516 -42
      vertex 7.28969 8.55684 -42
    endloop
  endfacet
  facet normal 0 0 1
    outer loop
      vertex 2.24037 6.89516 -42
      vertex 2.6689 6.74088 -42
      vertex 7.28969 8.55684 -42
    endloop
  endfacet
  facet normal 0 0 1
    outer loop
      vertex 7.28969 8.55684 -42
      vertex 3.0869 6.56 -42
      vertex 8.09017 7.34732 -42
    endloop
  endfacet
  facet normal 0 0 1
    outer loop
      vertex 3.0869 6.56 -42
      vertex 3.49271 6.35322 -42
      vertex 8.09017 7.34732 -42
    endloop
  endfacet
  facet normal 0 0 1
    outer loop
      vertex 3.49271 6.35322 -42
      vertex 3.88474 6.12138 -42
      vertex 8.09017 7.34732 -42
    endloop
  endfacet
  facet normal 0 0 1
    outer loop
      vertex 8.09017 7.34732 -42
      vertex 4.26144 5.86537 -42
      vertex 8.76307 6.02192 -42
    endloop
  endfacet
  facet normal 0 0 1
    outer loop
      vertex -6.74088 2.6689 -42
      vertex -6.56 3.0869 -42
      vertex -9.92115 1.56666 -42
    endloop
  endfacet
  facet normal 0 0 1
    outer loop
      vertex 4.26144 5.86537 -42
      vertex 4.62132 5.58622 -42
      vertex 8.76307 6.02192 -42
    endloop
  endfacet
  facet normal 0 0 1
    outer loop
      vertex -6.56 3.0869 -42
      vertex -6.35322 3.49271 -42
      vertex -9.92115 1.56666 -42
    endloop
  endfacet
  facet normal 0 0 1
    outer loop
      vertex 4.62132 5.58622 -42
      vertex 4.96297 5.28502 -42
      vertex 8.76307 6.02192 -42
    endloop
  endfacet
  facet normal 0 0 1
    outer loop
      vertex -7.02223 -1.803 -42
      vertex -7.12158 -1.35851 -42
      vertex -9.92115 1.56666 -42
    endloop
  endfacet
  facet normal 0 0 1
    outer loop
      vertex 8.76307 6.02192 -42
      vertex 5.28502 4.96297 -42
      vertex 9.29776 4.60156 -42
    endloop
  endfacet
  facet normal 0 0 1
    outer loop
      vertex 5.28502 4.96297 -42
      vertex 5.58622 4.62132 -42
      vertex 9.29776 4.60156 -42
    endloop
  endfacet
  facet normal 0 0 1
    outer loop
      vertex 5.58622 4.62132 -42
      vertex 5.86537 4.26144 -42
      vertex 9.29776 4.60156 -42
    endloop
  endfacet
  facet normal 0 0 1
    outer loop
      vertex 9.29776 4.60156 -42
      vertex 6.12138 3.88474 -42
      vertex 9.68583 3.10862 -42
    endloop
  endfacet
  facet normal 0 0 1
    outer loop
      vertex 6.12138 3.88474 -42
      vertex 6.35322 3.49271 -42
      vertex 9.68583 3.10862 -42
    endloop
  endfacet
  facet normal 0 0 1
    outer loop
      vertex 6.35322 3.49271 -42
      vertex 6.56 3.0869 -42
      vertex 9.68583 3.10862 -42
    endloop
  endfacet
  facet normal 0 0 1
    outer loop
      vertex 9.68583 3.10862 -42
      vertex 6.74088 2.6689 -42
      vertex 9.92115 1.56666 -42
    endloop
  endfacet
  facet normal 0 0 1
    outer loop
      vertex -7.02223 1.803 -42
      vertex -6.89516 2.24037 -42
      vertex -9.92115 1.56666 -42
    endloop
  endfacet
  facet normal 0 0 1
    outer loop
      vertex 6.74088 2.6689 -42
      vertex 6.89516 2.24037 -42
      vertex 9.92115 1.56666 -42
    endloop
  endfacet
  facet normal 0 0 1
    outer loop
      vertex 6.89516 2.24037 -42
      vertex 7.02223 1.803 -42
      vertex 9.92115 1.56666 -42
    endloop
  endfacet
  facet normal 0 0 1
    outer loop
      vertex 5.86537 4.26144 -42
      vertex 6.12138 3.88474 -42
      vertex 9.29776 4.60156 -42
    endloop
  endfacet
  facet normal 0 0 1
    outer loop
      vertex 9.92115 1.56666 -42
      vertex 7.12158 1.35851 -42
      vertex 10 0 -42
    endloop
  endfacet
  facet normal 0 0 1
    outer loop
      vertex 7.12158 1.35851 -42
      vertex 7.19283 0.908666 -42
      vertex 10 0 -42
    endloop
  endfacet
  facet normal 0 0 1
    outer loop
      vertex 7.19283 0.908666 -42
      vertex 7.23569 0.455231 -42
      vertex 10 0 -42
    endloop
  endfacet
  facet normal 0 0 1
    outer loop
      vertex 10 0 -42
      vertex 7.25 0 -42
      vertex 9.92115 -1.56666 -42
    endloop
  endfacet
  facet normal 0 0 1
    outer loop
      vertex 7.25 0 -42
      vertex 7.23569 -0.455231 -42
      vertex 9.92115 -1.56666 -42
    endloop
  endfacet
  facet normal 0 0 1
    outer loop
      vertex 7.23569 -0.455231 -42
      vertex 7.19283 -0.908666 -42
      vertex 9.92115 -1.56666 -42
    endloop
  endfacet
  facet normal 0 0 1
    outer loop
      vertex 6.89516 -2.24037 -42
      vertex 6.74088 -2.6689 -42
      vertex 9.68583 -3.10862 -42
    endloop
  endfacet
  facet normal 0 0 1
    outer loop
      vertex 9.92115 -1.56666 -42
      vertex 7.12158 -1.35851 -42
      vertex 9.68583 -3.10862 -42
    endloop
  endfacet
  facet normal 0 0 1
    outer loop
      vertex -7.12158 1.35851 -42
      vertex -7.02223 1.803 -42
      vertex -9.92115 1.56666 -42
    endloop
  endfacet
  facet normal 0 0 1
    outer loop
      vertex 7.12158 -1.35851 -42
      vertex 7.02223 -1.803 -42
      vertex 9.68583 -3.10862 -42
    endloop
  endfacet
  facet normal 0 0 1
    outer loop
      vertex 7.02223 -1.803 -42
      vertex 6.89516 -2.24037 -42
      vertex 9.68583 -3.10862 -42
    endloop
  endfacet
  facet normal 0 0 1
    outer loop
      vertex 9.68583 -3.10862 -42
      vertex 6.74088 -2.6689 -42
      vertex 9.29776 -4.60156 -42
    endloop
  endfacet
  facet normal 0 0 1
    outer loop
      vertex 6.74088 -2.6689 -42
      vertex 6.56 -3.0869 -42
      vertex 9.29776 -4.60156 -42
    endloop
  endfacet
  facet normal 0 0 1
    outer loop
      vertex 6.56 -3.0869 -42
      vertex 6.35322 -3.49271 -42
      vertex 9.29776 -4.60156 -42
    endloop
  endfacet
  facet normal 0 0 1
    outer loop
      vertex 9.29776 -4.60156 -42
      vertex 6.12138 -3.88474 -42
      vertex 8.76307 -6.02192 -42
    endloop
  endfacet
  facet normal 0 0 1
    outer loop
      vertex 6.12138 -3.88474 -42
      vertex 5.86537 -4.26144 -42
      vertex 8.76307 -6.02192 -42
    endloop
  endfacet
  facet normal 0 0 1
    outer loop
      vertex 5.86537 -4.26144 -42
      vertex 5.58622 -4.62132 -42
      vertex 8.76307 -6.02192 -42
    endloop
  endfacet
  facet normal 0 0 1
    outer loop
      vertex 8.76307 -6.02192 -42
      vertex 5.28502 -4.96297 -42
      vertex 8.09017 -7.34732 -42
    endloop
  endfacet
  facet normal 0 0 1
    outer loop
      vertex 5.28502 -4.96297 -42
      vertex 4.96297 -5.28502 -42
      vertex 8.09017 -7.34732 -42
    endloop
  endfacet
  facet normal 0 0 1
    outer loop
      vertex 8.09017 -7.34732 -42
      vertex 4.26144 -5.86537 -42
      vertex 7.28969 -8.55684 -42
    endloop
  endfacet
  facet normal 0 0 1
    outer loop
      vertex 4.26144 -5.86537 -42
      vertex 3.88474 -6.12138 -42
      vertex 7.28969 -8.55684 -42
    endloop
  endfacet
  facet normal 0 0 1
    outer loop
      vertex 7.28969 -8.55684 -42
      vertex 3.49271 -6.35322 -42
      vertex 6.37424 -9.63142 -42
    endloop
  endfacet
  facet normal 0 0 1
    outer loop
      vertex 3.49271 -6.35322 -42
      vertex 3.0869 -6.56 -42
      vertex 6.37424 -9.63142 -42
    endloop
  endfacet
  facet normal 0 0 1
    outer loop
      vertex -7.25 0 -42
      vertex -7.23569 0.455231 -42
      vertex -9.92115 1.56666 -42
    endloop
  endfacet
  facet normal 0 0 1
    outer loop
      vertex 3.0869 -6.56 -42
      vertex 2.6689 -6.74088 -42
      vertex 6.37424 -9.63142 -42
    endloop
  endfacet
  facet normal 0 0 1
    outer loop
      vertex 2.6689 -6.74088 -42
      vertex 2.24037 -6.89516 -42
      vertex 6.37424 -9.63142 -42
    endloop
  endfacet
  facet normal 0 0 1
    outer loop
      vertex 6.37424 -9.63142 -42
      vertex 2.24037 -6.89516 -42
      vertex 5.35827 -10.5541 -42
    endloop
  endfacet
  facet normal 0 0 1
    outer loop
      vertex 2.24037 -6.89516 -42
      vertex 1.803 -7.02223 -42
      vertex 5.35827 -10.5541 -42
    endloop
  endfacet
  facet normal 0 0 1
    outer loop
      vertex 1.803 -7.02223 -42
      vertex 1.35851 -7.12158 -42
      vertex 5.35827 -10.5541 -42
    endloop
  endfacet
  facet normal 0 0 1
    outer loop
      vertex 5.35827 -10.5541 -42
      vertex 0.908666 -7.19283 -42
      vertex 4.25779 -11.3103 -42
    endloop
  endfacet
  facet normal 0 0 1
    outer loop
      vertex 0.908666 -7.19283 -42
      vertex 0.455231 -7.23569 -42
      vertex 4.25779 -11.3103 -42
    endloop
  endfacet
  facet normal 0 0 1
    outer loop
      vertex 0.455231 -7.23569 -42
      vertex 0 -7.25 -42
      vertex 4.25779 -11.3103 -42
    endloop
  endfacet
  facet normal 0 0 1
    outer loop
      vertex 0 -7.25 -42
      vertex -0.455231 -7.23569 -42
      vertex 4.25779 -11.3103 -42
    endloop
  endfacet
  facet normal 0 0 1
    outer loop
      vertex 4.25779 -11.3103 -42
      vertex -0.455231 -7.23569 -42
      vertex 3.09017 -11.8882 -42
    endloop
  endfacet
  facet normal 0 0 1
    outer loop
      vertex -0.455231 -7.23569 -42
      vertex -0.908666 -7.19283 -42
      vertex 3.09017 -11.8882 -42
    endloop
  endfacet
  facet normal 0 0 1
    outer loop
      vertex -0.908666 -7.19283 -42
      vertex -1.35851 -7.12158 -42
      vertex 3.09017 -11.8882 -42
    endloop
  endfacet
  facet normal 0 0 1
    outer loop
      vertex 3.09017 -11.8882 -42
      vertex -1.803 -7.02223 -42
      vertex 1.87381 -12.2786 -42
    endloop
  endfacet
  facet normal 0 0 1
    outer loop
      vertex -1.803 -7.02223 -42
      vertex -2.24037 -6.89516 -42
      vertex 1.87381 -12.2786 -42
    endloop
  endfacet
  facet normal 0 0 1
    outer loop
      vertex -2.24037 -6.89516 -42
      vertex -2.6689 -6.74088 -42
      vertex 1.87381 -12.2786 -42
    endloop
  endfacet
  facet normal 0 0 1
    outer loop
      vertex 1.87381 -12.2786 -42
      vertex -3.0869 -6.56 -42
      vertex 0.627905 -12.4753 -42
    endloop
  endfacet
  facet normal 0 0 1
    outer loop
      vertex -6.89516 -2.24037 -42
      vertex -7.02223 -1.803 -42
      vertex -9.92115 1.56666 -42
    endloop
  endfacet
  facet normal 0 0 1
    outer loop
      vertex -3.0869 -6.56 -42
      vertex -3.49271 -6.35322 -42
      vertex 0.627905 -12.4753 -42
    endloop
  endfacet
  facet normal 0 0 1
    outer loop
      vertex -3.49271 -6.35322 -42
      vertex -3.88474 -6.12138 -42
      vertex 0.627905 -12.4753 -42
    endloop
  endfacet
  facet normal 0 0 1
    outer loop
      vertex -3.88474 -6.12138 -42
      vertex -4.26144 -5.86537 -42
      vertex 0.627905 -12.4753 -42
    endloop
  endfacet
  facet normal 0 0 1
    outer loop
      vertex 0.627905 -12.4753 -42
      vertex -4.62132 -5.58622 -42
      vertex -0.627905 -12.4753 -42
    endloop
  endfacet
  facet normal 0 0 1
    outer loop
      vertex -4.62132 -5.58622 -42
      vertex -4.96297 -5.28502 -42
      vertex -0.627905 -12.4753 -42
    endloop
  endfacet
  facet normal 0 0 1
    outer loop
      vertex -4.96297 -5.28502 -42
      vertex -5.28502 -4.96297 -42
      vertex -0.627905 -12.4753 -42
    endloop
  endfacet
  facet normal 0 0 1
    outer loop
      vertex -5.28502 -4.96297 -42
      vertex -5.58622 -4.62132 -42
      vertex -0.627905 -12.4753 -42
    endloop
  endfacet
  facet normal 0 0 1
    outer loop
      vertex -5.58622 -4.62132 -42
      vertex -5.86537 -4.26144 -42
      vertex -0.627905 -12.4753 -42
    endloop
  endfacet
  facet normal 0 0 1
    outer loop
      vertex -6.12138 -3.88474 -42
      vertex -9.92115 1.56666 -42
      vertex -5.86537 -4.26144 -42
    endloop
  endfacet
  facet normal 0 0 1
    outer loop
      vertex -6.35322 -3.49271 -42
      vertex -6.56 -3.0869 -42
      vertex -9.92115 1.56666 -42
    endloop
  endfacet
  facet normal 0 0 1
    outer loop
      vertex -6.74088 -2.6689 -42
      vertex -6.89516 -2.24037 -42
      vertex -9.92115 1.56666 -42
    endloop
  endfacet
  facet normal 0 0 1
    outer loop
      vertex -6.12138 -3.88474 -42
      vertex -6.35322 -3.49271 -42
      vertex -9.92115 1.56666 -42
    endloop
  endfacet
  facet normal 0 0 1
    outer loop
      vertex -4.26144 -5.86537 -42
      vertex -4.62132 -5.58622 -42
      vertex 0.627905 -12.4753 -42
    endloop
  endfacet
  facet normal 0 0 1
    outer loop
      vertex -7.12158 -1.35851 -42
      vertex -7.19283 -0.908666 -42
      vertex -9.92115 1.56666 -42
    endloop
  endfacet
  facet normal 0 0 1
    outer loop
      vertex -1.35851 -7.12158 -42
      vertex -1.803 -7.02223 -42
      vertex 3.09017 -11.8882 -42
    endloop
  endfacet
  facet normal 0 0 1
    outer loop
      vertex 1.35851 -7.12158 -42
      vertex 0.908666 -7.19283 -42
      vertex 5.35827 -10.5541 -42
    endloop
  endfacet
  facet normal 0 0 1
    outer loop
      vertex -7.19283 -0.908666 -42
      vertex -7.23569 -0.455231 -42
      vertex -9.92115 1.56666 -42
    endloop
  endfacet
  facet normal 0 0 1
    outer loop
      vertex -7.23569 -0.455231 -42
      vertex -7.25 0 -42
      vertex -9.92115 1.56666 -42
    endloop
  endfacet
  facet normal 0 0 1
    outer loop
      vertex 5.58622 -4.62132 -42
      vertex 5.28502 -4.96297 -42
      vertex 8.76307 -6.02192 -42
    endloop
  endfacet
  facet normal 0 0 1
    outer loop
      vertex 6.35322 -3.49271 -42
      vertex 6.12138 -3.88474 -42
      vertex 9.29776 -4.60156 -42
    endloop
  endfacet
  facet normal 0 0 1
    outer loop
      vertex -7.19283 0.908666 -42
      vertex -7.12158 1.35851 -42
      vertex -9.92115 1.56666 -42
    endloop
  endfacet
  facet normal -0.999507 -0.0314103 0
    outer loop
      vertex -7.25 0 -42
      vertex -7.23569 -0.455231 -42
      vertex -7.25 0 45
    endloop
  endfacet
  facet normal -0.999507 -0.0314103 0
    outer loop
      vertex -7.25 0 45
      vertex -7.23569 -0.455231 -42
      vertex -7.23569 -0.455231 45
    endloop
  endfacet
  facet normal -0.995562 -0.0941078 0
    outer loop
      vertex -7.23569 -0.455231 -42
      vertex -7.19283 -0.908666 -42
      vertex -7.23569 -0.455231 45
    endloop
  endfacet
  facet normal -0.995562 -0.0941078 0
    outer loop
      vertex -7.23569 -0.455231 45
      vertex -7.19283 -0.908666 -42
      vertex -7.19283 -0.908666 45
    endloop
  endfacet
  facet normal -0.987688 -0.156434 0
    outer loop
      vertex -7.19283 -0.908666 -42
      vertex -7.12158 -1.35851 -42
      vertex -7.19283 -0.908666 45
    endloop
  endfacet
  facet normal -0.987688 -0.156434 0
    outer loop
      vertex -7.19283 -0.908666 45
      vertex -7.12158 -1.35851 -42
      vertex -7.12158 -1.35851 45
    endloop
  endfacet
  facet normal -0.975917 -0.218144 0
    outer loop
      vertex -7.12158 -1.35851 -42
      vertex -7.02223 -1.803 -42
      vertex -7.12158 -1.35851 45
    endloop
  endfacet
  facet normal -0.975917 -0.218144 0
    outer loop
      vertex -7.12158 -1.35851 45
      vertex -7.02223 -1.803 -42
      vertex -7.02223 -1.803 45
    endloop
  endfacet
  facet normal -0.960294 -0.278991 0
    outer loop
      vertex -7.02223 -1.803 -42
      vertex -6.89516 -2.24037 -42
      vertex -7.02223 -1.803 45
    endloop
  endfacet
  facet normal -0.960294 -0.278991 0
    outer loop
      vertex -7.02223 -1.803 45
      vertex -6.89516 -2.24037 -42
      vertex -6.89516 -2.24037 45
    endloop
  endfacet
  facet normal -0.940881 -0.338737 0
    outer loop
      vertex -6.89516 -2.24037 -42
      vertex -6.74088 -2.6689 -42
      vertex -6.89516 -2.24037 45
    endloop
  endfacet
  facet normal -0.940881 -0.338737 0
    outer loop
      vertex -6.89516 -2.24037 45
      vertex -6.74088 -2.6689 -42
      vertex -6.74088 -2.6689 45
    endloop
  endfacet
  facet normal -0.917754 -0.397149 0
    outer loop
      vertex -6.74088 -2.6689 -42
      vertex -6.56 -3.0869 -42
      vertex -6.74088 -2.6689 45
    endloop
  endfacet
  facet normal -0.917754 -0.397149 0
    outer loop
      vertex -6.74088 -2.6689 45
      vertex -6.56 -3.0869 -42
      vertex -6.56 -3.0869 45
    endloop
  endfacet
  facet normal -0.891006 -0.453991 0
    outer loop
      vertex -6.56 -3.0869 -42
      vertex -6.35322 -3.49271 -42
      vertex -6.56 -3.0869 45
    endloop
  endfacet
  facet normal -0.891006 -0.453991 0
    outer loop
      vertex -6.56 -3.0869 45
      vertex -6.35322 -3.49271 -42
      vertex -6.35322 -3.49271 45
    endloop
  endfacet
  facet normal -0.860742 -0.509042 0
    outer loop
      vertex -6.35322 -3.49271 -42
      vertex -6.12138 -3.88474 -42
      vertex -6.35322 -3.49271 45
    endloop
  endfacet
  facet normal -0.860742 -0.509042 0
    outer loop
      vertex -6.35322 -3.49271 45
      vertex -6.12138 -3.88474 -42
      vertex -6.12138 -3.88474 45
    endloop
  endfacet
  facet normal -0.827081 -0.562083 0
    outer loop
      vertex -6.12138 -3.88474 -42
      vertex -5.86537 -4.26144 -42
      vertex -6.12138 -3.88474 45
    endloop
  endfacet
  facet normal -0.827081 -0.562083 0
    outer loop
      vertex -6.12138 -3.88474 45
      vertex -5.86537 -4.26144 -42
      vertex -5.86537 -4.26144 45
    endloop
  endfacet
  facet normal -0.790155 -0.612907 0
    outer loop
      vertex -5.86537 -4.26144 -42
      vertex -5.58622 -4.62132 -42
      vertex -5.86537 -4.26144 45
    endloop
  endfacet
  facet normal -0.790155 -0.612907 0
    outer loop
      vertex -5.86537 -4.26144 45
      vertex -5.58622 -4.62132 -42
      vertex -5.58622 -4.62132 45
    endloop
  endfacet
  facet normal -0.750112 -0.661311 0
    outer loop
      vertex -5.58622 -4.62132 -42
      vertex -5.28502 -4.96297 -42
      vertex -5.58622 -4.62132 45
    endloop
  endfacet
  facet normal -0.750112 -0.661311 0
    outer loop
      vertex -5.58622 -4.62132 45
      vertex -5.28502 -4.96297 -42
      vertex -5.28502 -4.96297 45
    endloop
  endfacet
  facet normal -0.707107 -0.707107 0
    outer loop
      vertex -5.28502 -4.96297 45
      vertex -5.28502 -4.96297 -42
      vertex -4.96297 -5.28502 -42
    endloop
  endfacet
  facet normal -0.707107 -0.707107 0
    outer loop
      vertex -4.96297 -5.28502 45
      vertex -5.28502 -4.96297 45
      vertex -4.96297 -5.28502 -42
    endloop
  endfacet
  facet normal -0.661311 -0.750112 0
    outer loop
      vertex -4.96297 -5.28502 45
      vertex -4.96297 -5.28502 -42
      vertex -4.62132 -5.58622 -42
    endloop
  endfacet
  facet normal -0.661311 -0.750112 0
    outer loop
      vertex -4.62132 -5.58622 45
      vertex -4.96297 -5.28502 45
      vertex -4.62132 -5.58622 -42
    endloop
  endfacet
  facet normal -0.612907 -0.790155 0
    outer loop
      vertex -4.62132 -5.58622 45
      vertex -4.62132 -5.58622 -42
      vertex -4.26144 -5.86537 -42
    endloop
  endfacet
  facet normal -0.612907 -0.790155 0
    outer loop
      vertex -4.26144 -5.86537 45
      vertex -4.62132 -5.58622 45
      vertex -4.26144 -5.86537 -42
    endloop
  endfacet
  facet normal -0.562083 -0.827081 0
    outer loop
      vertex -4.26144 -5.86537 45
      vertex -4.26144 -5.86537 -42
      vertex -3.88474 -6.12138 -42
    endloop
  endfacet
  facet normal -0.562083 -0.827081 0
    outer loop
      vertex -3.88474 -6.12138 45
      vertex -4.26144 -5.86537 45
      vertex -3.88474 -6.12138 -42
    endloop
  endfacet
  facet normal -0.509042 -0.860742 0
    outer loop
      vertex -3.88474 -6.12138 45
      vertex -3.88474 -6.12138 -42
      vertex -3.49271 -6.35322 -42
    endloop
  endfacet
  facet normal -0.509042 -0.860742 0
    outer loop
      vertex -3.49271 -6.35322 45
      vertex -3.88474 -6.12138 45
      vertex -3.49271 -6.35322 -42
    endloop
  endfacet
  facet normal -0.453991 -0.891006 0
    outer loop
      vertex -3.49271 -6.35322 45
      vertex -3.49271 -6.35322 -42
      vertex -3.0869 -6.56 -42
    endloop
  endfacet
  facet normal -0.453991 -0.891006 0
    outer loop
      vertex -3.0869 -6.56 45
      vertex -3.49271 -6.35322 45
      vertex -3.0869 -6.56 -42
    endloop
  endfacet
  facet normal -0.397149 -0.917754 0
    outer loop
      vertex -3.0869 -6.56 45
      vertex -3.0869 -6.56 -42
      vertex -2.6689 -6.74088 -42
    endloop
  endfacet
  facet normal -0.397149 -0.917754 0
    outer loop
      vertex -2.6689 -6.74088 45
      vertex -3.0869 -6.56 45
      vertex -2.6689 -6.74088 -42
    endloop
  endfacet
  facet normal -0.338737 -0.940881 0
    outer loop
      vertex -2.6689 -6.74088 45
      vertex -2.6689 -6.74088 -42
      vertex -2.24037 -6.89516 -42
    endloop
  endfacet
  facet normal -0.338737 -0.940881 0
    outer loop
      vertex -2.24037 -6.89516 45
      vertex -2.6689 -6.74088 45
      vertex -2.24037 -6.89516 -42
    endloop
  endfacet
  facet normal -0.278991 -0.960294 0
    outer loop
      vertex -2.24037 -6.89516 45
      vertex -2.24037 -6.89516 -42
      vertex -1.803 -7.02223 -42
    endloop
  endfacet
  facet normal -0.278991 -0.960294 0
    outer loop
      vertex -1.803 -7.02223 45
      vertex -2.24037 -6.89516 45
      vertex -1.803 -7.02223 -42
    endloop
  endfacet
  facet normal -0.218144 -0.975917 0
    outer loop
      vertex -1.803 -7.02223 45
      vertex -1.803 -7.02223 -42
      vertex -1.35851 -7.12158 -42
    endloop
  endfacet
  facet normal -0.218144 -0.975917 0
    outer loop
      vertex -1.35851 -7.12158 45
      vertex -1.803 -7.02223 45
      vertex -1.35851 -7.12158 -42
    endloop
  endfacet
  facet normal -0.156434 -0.987688 0
    outer loop
      vertex -1.35851 -7.12158 45
      vertex -1.35851 -7.12158 -42
      vertex -0.908666 -7.19283 -42
    endloop
  endfacet
  facet normal -0.156434 -0.987688 0
    outer loop
      vertex -0.908666 -7.19283 45
      vertex -1.35851 -7.12158 45
      vertex -0.908666 -7.19283 -42
    endloop
  endfacet
  facet normal -0.0941078 -0.995562 0
    outer loop
      vertex -0.908666 -7.19283 45
      vertex -0.908666 -7.19283 -42
      vertex -0.455231 -7.23569 -42
    endloop
  endfacet
  facet normal -0.0941078 -0.995562 0
    outer loop
      vertex -0.455231 -7.23569 45
      vertex -0.908666 -7.19283 45
      vertex -0.455231 -7.23569 -42
    endloop
  endfacet
  facet normal -0.0314103 -0.999507 0
    outer loop
      vertex -0.455231 -7.23569 45
      vertex -0.455231 -7.23569 -42
      vertex 0 -7.25 -42
    endloop
  endfacet
  facet normal -0.0314103 -0.999507 0
    outer loop
      vertex 0 -7.25 45
      vertex -0.455231 -7.23569 45
      vertex 0 -7.25 -42
    endloop
  endfacet
  facet normal 0.0314103 -0.999507 0
    outer loop
      vertex 0 -7.25 45
      vertex 0 -7.25 -42
      vertex 0.455231 -7.23569 -42
    endloop
  endfacet
  facet normal 0.0314103 -0.999507 0
    outer loop
      vertex 0.455231 -7.23569 45
      vertex 0 -7.25 45
      vertex 0.455231 -7.23569 -42
    endloop
  endfacet
  facet normal 0.0941078 -0.995562 0
    outer loop
      vertex 0.455231 -7.23569 45
      vertex 0.455231 -7.23569 -42
      vertex 0.908666 -7.19283 -42
    endloop
  endfacet
  facet normal 0.0941078 -0.995562 0
    outer loop
      vertex 0.908666 -7.19283 45
      vertex 0.455231 -7.23569 45
      vertex 0.908666 -7.19283 -42
    endloop
  endfacet
  facet normal 0.156434 -0.987688 0
    outer loop
      vertex 0.908666 -7.19283 45
      vertex 0.908666 -7.19283 -42
      vertex 1.35851 -7.12158 -42
    endloop
  endfacet
  facet normal 0.156434 -0.987688 0
    outer loop
      vertex 1.35851 -7.12158 45
      vertex 0.908666 -7.19283 45
      vertex 1.35851 -7.12158 -42
    endloop
  endfacet
  facet normal 0.218144 -0.975917 0
    outer loop
      vertex 1.35851 -7.12158 45
      vertex 1.35851 -7.12158 -42
      vertex 1.803 -7.02223 -42
    endloop
  endfacet
  facet normal 0.218144 -0.975917 0
    outer loop
      vertex 1.803 -7.02223 45
      vertex 1.35851 -7.12158 45
      vertex 1.803 -7.02223 -42
    endloop
  endfacet
  facet normal 0.278991 -0.960294 0
    outer loop
      vertex 1.803 -7.02223 45
      vertex 1.803 -7.02223 -42
      vertex 2.24037 -6.89516 -42
    endloop
  endfacet
  facet normal 0.278991 -0.960294 0
    outer loop
      vertex 2.24037 -6.89516 45
      vertex 1.803 -7.02223 45
      vertex 2.24037 -6.89516 -42
    endloop
  endfacet
  facet normal 0.338737 -0.940881 0
    outer loop
      vertex 2.24037 -6.89516 45
      vertex 2.24037 -6.89516 -42
      vertex 2.6689 -6.74088 -42
    endloop
  endfacet
  facet normal 0.338737 -0.940881 0
    outer loop
      vertex 2.6689 -6.74088 45
      vertex 2.24037 -6.89516 45
      vertex 2.6689 -6.74088 -42
    endloop
  endfacet
  facet normal 0.397149 -0.917754 0
    outer loop
      vertex 2.6689 -6.74088 45
      vertex 2.6689 -6.74088 -42
      vertex 3.0869 -6.56 -42
    endloop
  endfacet
  facet normal 0.397149 -0.917754 0
    outer loop
      vertex 3.0869 -6.56 45
      vertex 2.6689 -6.74088 45
      vertex 3.0869 -6.56 -42
    endloop
  endfacet
  facet normal 0.453991 -0.891006 0
    outer loop
      vertex 3.0869 -6.56 45
      vertex 3.0869 -6.56 -42
      vertex 3.49271 -6.35322 -42
    endloop
  endfacet
  facet normal 0.453991 -0.891006 0
    outer loop
      vertex 3.49271 -6.35322 45
      vertex 3.0869 -6.56 45
      vertex 3.49271 -6.35322 -42
    endloop
  endfacet
  facet normal 0.509042 -0.860742 0
    outer loop
      vertex 3.49271 -6.35322 45
      vertex 3.49271 -6.35322 -42
      vertex 3.88474 -6.12138 -42
    endloop
  endfacet
  facet normal 0.509042 -0.860742 0
    outer loop
      vertex 3.88474 -6.12138 45
      vertex 3.49271 -6.35322 45
      vertex 3.88474 -6.12138 -42
    endloop
  endfacet
  facet normal 0.562083 -0.827081 0
    outer loop
      vertex 3.88474 -6.12138 45
      vertex 3.88474 -6.12138 -42
      vertex 4.26144 -5.86537 -42
    endloop
  endfacet
  facet normal 0.562083 -0.827081 0
    outer loop
      vertex 4.26144 -5.86537 45
      vertex 3.88474 -6.12138 45
      vertex 4.26144 -5.86537 -42
    endloop
  endfacet
  facet normal 0.612907 -0.790155 0
    outer loop
      vertex 4.26144 -5.86537 45
      vertex 4.26144 -5.86537 -42
      vertex 4.62132 -5.58622 -42
    endloop
  endfacet
  facet normal 0.612907 -0.790155 0
    outer loop
      vertex 4.62132 -5.58622 45
      vertex 4.26144 -5.86537 45
      vertex 4.62132 -5.58622 -42
    endloop
  endfacet
  facet normal 0.661311 -0.750112 0
    outer loop
      vertex 4.62132 -5.58622 45
      vertex 4.62132 -5.58622 -42
      vertex 4.96297 -5.28502 -42
    endloop
  endfacet
  facet normal 0.661311 -0.750112 0
    outer loop
      vertex 4.96297 -5.28502 45
      vertex 4.62132 -5.58622 45
      vertex 4.96297 -5.28502 -42
    endloop
  endfacet
  facet normal 0.707107 -0.707107 0
    outer loop
      vertex 4.96297 -5.28502 45
      vertex 4.96297 -5.28502 -42
      vertex 5.28502 -4.96297 -42
    endloop
  endfacet
  facet normal 0.707107 -0.707107 0
    outer loop
      vertex 5.28502 -4.96297 45
      vertex 4.96297 -5.28502 45
      vertex 5.28502 -4.96297 -42
    endloop
  endfacet
  facet normal 0.750112 -0.661311 0
    outer loop
      vertex 5.28502 -4.96297 45
      vertex 5.28502 -4.96297 -42
      vertex 5.58622 -4.62132 -42
    endloop
  endfacet
  facet normal 0.750112 -0.661311 0
    outer loop
      vertex 5.58622 -4.62132 45
      vertex 5.28502 -4.96297 45
      vertex 5.58622 -4.62132 -42
    endloop
  endfacet
  facet normal 0.790155 -0.612907 0
    outer loop
      vertex 5.58622 -4.62132 45
      vertex 5.58622 -4.62132 -42
      vertex 5.86537 -4.26144 -42
    endloop
  endfacet
  facet normal 0.790155 -0.612907 0
    outer loop
      vertex 5.86537 -4.26144 45
      vertex 5.58622 -4.62132 45
      vertex 5.86537 -4.26144 -42
    endloop
  endfacet
  facet normal 0.827081 -0.562083 0
    outer loop
      vertex 5.86537 -4.26144 45
      vertex 5.86537 -4.26144 -42
      vertex 6.12138 -3.88474 -42
    endloop
  endfacet
  facet normal 0.827081 -0.562083 0
    outer loop
      vertex 6.12138 -3.88474 45
      vertex 5.86537 -4.26144 45
      vertex 6.12138 -3.88474 -42
    endloop
  endfacet
  facet normal 0.860742 -0.509042 0
    outer loop
      vertex 6.12138 -3.88474 45
      vertex 6.12138 -3.88474 -42
      vertex 6.35322 -3.49271 -42
    endloop
  endfacet
  facet normal 0.860742 -0.509042 0
    outer loop
      vertex 6.35322 -3.49271 45
      vertex 6.12138 -3.88474 45
      vertex 6.35322 -3.49271 -42
    endloop
  endfacet
  facet normal 0.891006 -0.453991 0
    outer loop
      vertex 6.35322 -3.49271 45
      vertex 6.35322 -3.49271 -42
      vertex 6.56 -3.0869 -42
    endloop
  endfacet
  facet normal 0.891006 -0.453991 0
    outer loop
      vertex 6.56 -3.0869 45
      vertex 6.35322 -3.49271 45
      vertex 6.56 -3.0869 -42
    endloop
  endfacet
  facet normal 0.917754 -0.397149 0
    outer loop
      vertex 6.56 -3.0869 45
      vertex 6.56 -3.0869 -42
      vertex 6.74088 -2.6689 -42
    endloop
  endfacet
  facet normal 0.917754 -0.397149 0
    outer loop
      vertex 6.74088 -2.6689 45
      vertex 6.56 -3.0869 45
      vertex 6.74088 -2.6689 -42
    endloop
  endfacet
  facet normal 0.940881 -0.338737 0
    outer loop
      vertex 6.74088 -2.6689 45
      vertex 6.74088 -2.6689 -42
      vertex 6.89516 -2.24037 -42
    endloop
  endfacet
  facet normal 0.940881 -0.338737 0
    outer loop
      vertex 6.89516 -2.24037 45
      vertex 6.74088 -2.6689 45
      vertex 6.89516 -2.24037 -42
    endloop
  endfacet
  facet normal 0.960294 -0.278991 0
    outer loop
      vertex 6.89516 -2.24037 45
      vertex 6.89516 -2.24037 -42
      vertex 7.02223 -1.803 -42
    endloop
  endfacet
  facet normal 0.960294 -0.278991 0
    outer loop
      vertex 7.02223 -1.803 45
      vertex 6.89516 -2.24037 45
      vertex 7.02223 -1.803 -42
    endloop
  endfacet
  facet normal 0.975917 -0.218144 0
    outer loop
      vertex 7.02223 -1.803 45
      vertex 7.02223 -1.803 -42
      vertex 7.12158 -1.35851 -42
    endloop
  endfacet
  facet normal 0.975917 -0.218144 0
    outer loop
      vertex 7.12158 -1.35851 45
      vertex 7.02223 -1.803 45
      vertex 7.12158 -1.35851 -42
    endloop
  endfacet
  facet normal 0.987688 -0.156434 0
    outer loop
      vertex 7.12158 -1.35851 45
      vertex 7.12158 -1.35851 -42
      vertex 7.19283 -0.908666 -42
    endloop
  endfacet
  facet normal 0.987688 -0.156434 0
    outer loop
      vertex 7.19283 -0.908666 45
      vertex 7.12158 -1.35851 45
      vertex 7.19283 -0.908666 -42
    endloop
  endfacet
  facet normal 0.995562 -0.0941078 0
    outer loop
      vertex 7.19283 -0.908666 45
      vertex 7.19283 -0.908666 -42
      vertex 7.23569 -0.455231 -42
    endloop
  endfacet
  facet normal 0.995562 -0.0941078 0
    outer loop
      vertex 7.23569 -0.455231 45
      vertex 7.19283 -0.908666 45
      vertex 7.23569 -0.455231 -42
    endloop
  endfacet
  facet normal 0.999507 -0.0314103 0
    outer loop
      vertex 7.23569 -0.455231 45
      vertex 7.23569 -0.455231 -42
      vertex 7.25 0 -42
    endloop
  endfacet
  facet normal 0.999507 -0.0314103 0
    outer loop
      vertex 7.25 0 45
      vertex 7.23569 -0.455231 45
      vertex 7.25 0 -42
    endloop
  endfacet
  facet normal 0.999507 0.0314103 0
    outer loop
      vertex 7.25 0 -42
      vertex 7.23569 0.455231 -42
      vertex 7.23569 0.455231 45
    endloop
  endfacet
  facet normal 0.999507 0.0314103 0
    outer loop
      vertex 7.25 0 45
      vertex 7.25 0 -42
      vertex 7.23569 0.455231 45
    endloop
  endfacet
  facet normal 0.995562 0.0941078 0
    outer loop
      vertex 7.23569 0.455231 -42
      vertex 7.19283 0.908666 -42
      vertex 7.19283 0.908666 45
    endloop
  endfacet
  facet normal 0.995562 0.0941078 0
    outer loop
      vertex 7.23569 0.455231 45
      vertex 7.23569 0.455231 -42
      vertex 7.19283 0.908666 45
    endloop
  endfacet
  facet normal 0.987688 0.156434 0
    outer loop
      vertex 7.19283 0.908666 -42
      vertex 7.12158 1.35851 -42
      vertex 7.12158 1.35851 45
    endloop
  endfacet
  facet normal 0.987688 0.156434 0
    outer loop
      vertex 7.19283 0.908666 45
      vertex 7.19283 0.908666 -42
      vertex 7.12158 1.35851 45
    endloop
  endfacet
  facet normal 0.975917 0.218144 0
    outer loop
      vertex 7.12158 1.35851 -42
      vertex 7.02223 1.803 -42
      vertex 7.02223 1.803 45
    endloop
  endfacet
  facet normal 0.975917 0.218144 0
    outer loop
      vertex 7.12158 1.35851 45
      vertex 7.12158 1.35851 -42
      vertex 7.02223 1.803 45
    endloop
  endfacet
  facet normal 0.960294 0.278991 0
    outer loop
      vertex 7.02223 1.803 -42
      vertex 6.89516 2.24037 -42
      vertex 6.89516 2.24037 45
    endloop
  endfacet
  facet normal 0.960294 0.278991 0
    outer loop
      vertex 7.02223 1.803 45
      vertex 7.02223 1.803 -42
      vertex 6.89516 2.24037 45
    endloop
  endfacet
  facet normal 0.940881 0.338737 0
    outer loop
      vertex 6.89516 2.24037 -42
      vertex 6.74088 2.6689 -42
      vertex 6.74088 2.6689 45
    endloop
  endfacet
  facet normal 0.940881 0.338737 0
    outer loop
      vertex 6.89516 2.24037 45
      vertex 6.89516 2.24037 -42
      vertex 6.74088 2.6689 45
    endloop
  endfacet
  facet normal 0.917754 0.397149 0
    outer loop
      vertex 6.74088 2.6689 -42
      vertex 6.56 3.0869 -42
      vertex 6.56 3.0869 45
    endloop
  endfacet
  facet normal 0.917754 0.397149 0
    outer loop
      vertex 6.74088 2.6689 45
      vertex 6.74088 2.6689 -42
      vertex 6.56 3.0869 45
    endloop
  endfacet
  facet normal 0.891006 0.453991 0
    outer loop
      vertex 6.56 3.0869 -42
      vertex 6.35322 3.49271 -42
      vertex 6.35322 3.49271 45
    endloop
  endfacet
  facet normal 0.891006 0.453991 0
    outer loop
      vertex 6.56 3.0869 45
      vertex 6.56 3.0869 -42
      vertex 6.35322 3.49271 45
    endloop
  endfacet
  facet normal 0.860742 0.509042 0
    outer loop
      vertex 6.35322 3.49271 -42
      vertex 6.12138 3.88474 -42
      vertex 6.12138 3.88474 45
    endloop
  endfacet
  facet normal 0.860742 0.509042 0
    outer loop
      vertex 6.35322 3.49271 45
      vertex 6.35322 3.49271 -42
      vertex 6.12138 3.88474 45
    endloop
  endfacet
  facet normal 0.827081 0.562083 0
    outer loop
      vertex 6.12138 3.88474 -42
      vertex 5.86537 4.26144 -42
      vertex 5.86537 4.26144 45
    endloop
  endfacet
  facet normal 0.827081 0.562083 0
    outer loop
      vertex 6.12138 3.88474 45
      vertex 6.12138 3.88474 -42
      vertex 5.86537 4.26144 45
    endloop
  endfacet
  facet normal 0.790155 0.612907 0
    outer loop
      vertex 5.86537 4.26144 -42
      vertex 5.58622 4.62132 -42
      vertex 5.58622 4.62132 45
    endloop
  endfacet
  facet normal 0.790155 0.612907 0
    outer loop
      vertex 5.86537 4.26144 45
      vertex 5.86537 4.26144 -42
      vertex 5.58622 4.62132 45
    endloop
  endfacet
  facet normal 0.750112 0.661311 0
    outer loop
      vertex 5.58622 4.62132 -42
      vertex 5.28502 4.96297 -42
      vertex 5.28502 4.96297 45
    endloop
  endfacet
  facet normal 0.750112 0.661311 0
    outer loop
      vertex 5.58622 4.62132 45
      vertex 5.58622 4.62132 -42
      vertex 5.28502 4.96297 45
    endloop
  endfacet
  facet normal 0.707107 0.707107 0
    outer loop
      vertex 4.96297 5.28502 -42
      vertex 4.96297 5.28502 45
      vertex 5.28502 4.96297 -42
    endloop
  endfacet
  facet normal 0.707107 0.707107 0
    outer loop
      vertex 5.28502 4.96297 -42
      vertex 4.96297 5.28502 45
      vertex 5.28502 4.96297 45
    endloop
  endfacet
  facet normal 0.661311 0.750112 0
    outer loop
      vertex 4.62132 5.58622 -42
      vertex 4.62132 5.58622 45
      vertex 4.96297 5.28502 -42
    endloop
  endfacet
  facet normal 0.661311 0.750112 0
    outer loop
      vertex 4.96297 5.28502 -42
      vertex 4.62132 5.58622 45
      vertex 4.96297 5.28502 45
    endloop
  endfacet
  facet normal 0.612907 0.790155 0
    outer loop
      vertex 4.26144 5.86537 -42
      vertex 4.26144 5.86537 45
      vertex 4.62132 5.58622 -42
    endloop
  endfacet
  facet normal 0.612907 0.790155 0
    outer loop
      vertex 4.62132 5.58622 -42
      vertex 4.26144 5.86537 45
      vertex 4.62132 5.58622 45
    endloop
  endfacet
  facet normal 0.562083 0.827081 0
    outer loop
      vertex 3.88474 6.12138 -42
      vertex 3.88474 6.12138 45
      vertex 4.26144 5.86537 -42
    endloop
  endfacet
  facet normal 0.562083 0.827081 0
    outer loop
      vertex 4.26144 5.86537 -42
      vertex 3.88474 6.12138 45
      vertex 4.26144 5.86537 45
    endloop
  endfacet
  facet normal 0.509042 0.860742 0
    outer loop
      vertex 3.49271 6.35322 -42
      vertex 3.49271 6.35322 45
      vertex 3.88474 6.12138 -42
    endloop
  endfacet
  facet normal 0.509042 0.860742 0
    outer loop
      vertex 3.88474 6.12138 -42
      vertex 3.49271 6.35322 45
      vertex 3.88474 6.12138 45
    endloop
  endfacet
  facet normal 0.453991 0.891006 0
    outer loop
      vertex 3.0869 6.56 -42
      vertex 3.0869 6.56 45
      vertex 3.49271 6.35322 -42
    endloop
  endfacet
  facet normal 0.453991 0.891006 0
    outer loop
      vertex 3.49271 6.35322 -42
      vertex 3.0869 6.56 45
      vertex 3.49271 6.35322 45
    endloop
  endfacet
  facet normal 0.397149 0.917754 0
    outer loop
      vertex 2.6689 6.74088 -42
      vertex 2.6689 6.74088 45
      vertex 3.0869 6.56 -42
    endloop
  endfacet
  facet normal 0.397149 0.917754 0
    outer loop
      vertex 3.0869 6.56 -42
      vertex 2.6689 6.74088 45
      vertex 3.0869 6.56 45
    endloop
  endfacet
  facet normal 0.338737 0.940881 0
    outer loop
      vertex 2.24037 6.89516 -42
      vertex 2.24037 6.89516 45
      vertex 2.6689 6.74088 -42
    endloop
  endfacet
  facet normal 0.338737 0.940881 0
    outer loop
      vertex 2.6689 6.74088 -42
      vertex 2.24037 6.89516 45
      vertex 2.6689 6.74088 45
    endloop
  endfacet
  facet normal 0.278991 0.960294 0
    outer loop
      vertex 1.803 7.02223 -42
      vertex 1.803 7.02223 45
      vertex 2.24037 6.89516 -42
    endloop
  endfacet
  facet normal 0.278991 0.960294 0
    outer loop
      vertex 2.24037 6.89516 -42
      vertex 1.803 7.02223 45
      vertex 2.24037 6.89516 45
    endloop
  endfacet
  facet normal 0.218144 0.975917 0
    outer loop
      vertex 1.35851 7.12158 -42
      vertex 1.35851 7.12158 45
      vertex 1.803 7.02223 -42
    endloop
  endfacet
  facet normal 0.218144 0.975917 0
    outer loop
      vertex 1.803 7.02223 -42
      vertex 1.35851 7.12158 45
      vertex 1.803 7.02223 45
    endloop
  endfacet
  facet normal 0.156434 0.987688 0
    outer loop
      vertex 0.908666 7.19283 -42
      vertex 0.908666 7.19283 45
      vertex 1.35851 7.12158 -42
    endloop
  endfacet
  facet normal 0.156434 0.987688 0
    outer loop
      vertex 1.35851 7.12158 -42
      vertex 0.908666 7.19283 45
      vertex 1.35851 7.12158 45
    endloop
  endfacet
  facet normal 0.0941078 0.995562 0
    outer loop
      vertex 0.455231 7.23569 -42
      vertex 0.455231 7.23569 45
      vertex 0.908666 7.19283 -42
    endloop
  endfacet
  facet normal 0.0941078 0.995562 0
    outer loop
      vertex 0.908666 7.19283 -42
      vertex 0.455231 7.23569 45
      vertex 0.908666 7.19283 45
    endloop
  endfacet
  facet normal 0.0314103 0.999507 0
    outer loop
      vertex 0 7.25 -42
      vertex 0 7.25 45
      vertex 0.455231 7.23569 -42
    endloop
  endfacet
  facet normal 0.0314103 0.999507 0
    outer loop
      vertex 0.455231 7.23569 -42
      vertex 0 7.25 45
      vertex 0.455231 7.23569 45
    endloop
  endfacet
  facet normal -0.0314103 0.999507 0
    outer loop
      vertex -0.455231 7.23569 -42
      vertex -0.455231 7.23569 45
      vertex 0 7.25 -42
    endloop
  endfacet
  facet normal -0.0314103 0.999507 0
    outer loop
      vertex 0 7.25 -42
      vertex -0.455231 7.23569 45
      vertex 0 7.25 45
    endloop
  endfacet
  facet normal -0.0941078 0.995562 0
    outer loop
      vertex -0.908666 7.19283 -42
      vertex -0.908666 7.19283 45
      vertex -0.455231 7.23569 -42
    endloop
  endfacet
  facet normal -0.0941078 0.995562 0
    outer loop
      vertex -0.455231 7.23569 -42
      vertex -0.908666 7.19283 45
      vertex -0.455231 7.23569 45
    endloop
  endfacet
  facet normal -0.156434 0.987688 0
    outer loop
      vertex -1.35851 7.12158 -42
      vertex -1.35851 7.12158 45
      vertex -0.908666 7.19283 -42
    endloop
  endfacet
  facet normal -0.156434 0.987688 0
    outer loop
      vertex -0.908666 7.19283 -42
      vertex -1.35851 7.12158 45
      vertex -0.908666 7.19283 45
    endloop
  endfacet
  facet normal -0.218144 0.975917 0
    outer loop
      vertex -1.803 7.02223 -42
      vertex -1.803 7.02223 45
      vertex -1.35851 7.12158 -42
    endloop
  endfacet
  facet normal -0.218144 0.975917 0
    outer loop
      vertex -1.35851 7.12158 -42
      vertex -1.803 7.02223 45
      vertex -1.35851 7.12158 45
    endloop
  endfacet
  facet normal -0.278991 0.960294 0
    outer loop
      vertex -2.24037 6.89516 -42
      vertex -2.24037 6.89516 45
      vertex -1.803 7.02223 -42
    endloop
  endfacet
  facet normal -0.278991 0.960294 0
    outer loop
      vertex -1.803 7.02223 -42
      vertex -2.24037 6.89516 45
      vertex -1.803 7.02223 45
    endloop
  endfacet
  facet normal -0.338737 0.940881 0
    outer loop
      vertex -2.6689 6.74088 -42
      vertex -2.6689 6.74088 45
      vertex -2.24037 6.89516 -42
    endloop
  endfacet
  facet normal -0.338737 0.940881 0
    outer loop
      vertex -2.24037 6.89516 -42
      vertex -2.6689 6.74088 45
      vertex -2.24037 6.89516 45
    endloop
  endfacet
  facet normal -0.397149 0.917754 0
    outer loop
      vertex -3.0869 6.56 -42
      vertex -3.0869 6.56 45
      vertex -2.6689 6.74088 -42
    endloop
  endfacet
  facet normal -0.397149 0.917754 0
    outer loop
      vertex -2.6689 6.74088 -42
      vertex -3.0869 6.56 45
      vertex -2.6689 6.74088 45
    endloop
  endfacet
  facet normal -0.453991 0.891006 0
    outer loop
      vertex -3.49271 6.35322 -42
      vertex -3.49271 6.35322 45
      vertex -3.0869 6.56 -42
    endloop
  endfacet
  facet normal -0.453991 0.891006 0
    outer loop
      vertex -3.0869 6.56 -42
      vertex -3.49271 6.35322 45
      vertex -3.0869 6.56 45
    endloop
  endfacet
  facet normal -0.509042 0.860742 0
    outer loop
      vertex -3.88474 6.12138 -42
      vertex -3.88474 6.12138 45
      vertex -3.49271 6.35322 -42
    endloop
  endfacet
  facet normal -0.509042 0.860742 0
    outer loop
      vertex -3.49271 6.35322 -42
      vertex -3.88474 6.12138 45
      vertex -3.49271 6.35322 45
    endloop
  endfacet
  facet normal -0.562083 0.827081 0
    outer loop
      vertex -4.26144 5.86537 -42
      vertex -4.26144 5.86537 45
      vertex -3.88474 6.12138 -42
    endloop
  endfacet
  facet normal -0.562083 0.827081 0
    outer loop
      vertex -3.88474 6.12138 -42
      vertex -4.26144 5.86537 45
      vertex -3.88474 6.12138 45
    endloop
  endfacet
  facet normal -0.612907 0.790155 0
    outer loop
      vertex -4.62132 5.58622 -42
      vertex -4.62132 5.58622 45
      vertex -4.26144 5.86537 -42
    endloop
  endfacet
  facet normal -0.612907 0.790155 0
    outer loop
      vertex -4.26144 5.86537 -42
      vertex -4.62132 5.58622 45
      vertex -4.26144 5.86537 45
    endloop
  endfacet
  facet normal -0.661311 0.750112 0
    outer loop
      vertex -4.96297 5.28502 -42
      vertex -4.96297 5.28502 45
      vertex -4.62132 5.58622 -42
    endloop
  endfacet
  facet normal -0.661311 0.750112 0
    outer loop
      vertex -4.62132 5.58622 -42
      vertex -4.96297 5.28502 45
      vertex -4.62132 5.58622 45
    endloop
  endfacet
  facet normal -0.707107 0.707107 0
    outer loop
      vertex -5.28502 4.96297 -42
      vertex -5.28502 4.96297 45
      vertex -4.96297 5.28502 -42
    endloop
  endfacet
  facet normal -0.707107 0.707107 0
    outer loop
      vertex -4.96297 5.28502 -42
      vertex -5.28502 4.96297 45
      vertex -4.96297 5.28502 45
    endloop
  endfacet
  facet normal -0.750112 0.661311 0
    outer loop
      vertex -5.58622 4.62132 -42
      vertex -5.58622 4.62132 45
      vertex -5.28502 4.96297 -42
    endloop
  endfacet
  facet normal -0.750112 0.661311 0
    outer loop
      vertex -5.28502 4.96297 -42
      vertex -5.58622 4.62132 45
      vertex -5.28502 4.96297 45
    endloop
  endfacet
  facet normal -0.790155 0.612907 0
    outer loop
      vertex -5.86537 4.26144 -42
      vertex -5.86537 4.26144 45
      vertex -5.58622 4.62132 -42
    endloop
  endfacet
  facet normal -0.790155 0.612907 0
    outer loop
      vertex -5.58622 4.62132 -42
      vertex -5.86537 4.26144 45
      vertex -5.58622 4.62132 45
    endloop
  endfacet
  facet normal -0.827081 0.562083 0
    outer loop
      vertex -6.12138 3.88474 -42
      vertex -6.12138 3.88474 45
      vertex -5.86537 4.26144 -42
    endloop
  endfacet
  facet normal -0.827081 0.562083 0
    outer loop
      vertex -5.86537 4.26144 -42
      vertex -6.12138 3.88474 45
      vertex -5.86537 4.26144 45
    endloop
  endfacet
  facet normal -0.860742 0.509042 0
    outer loop
      vertex -6.35322 3.49271 -42
      vertex -6.35322 3.49271 45
      vertex -6.12138 3.88474 -42
    endloop
  endfacet
  facet normal -0.860742 0.509042 0
    outer loop
      vertex -6.12138 3.88474 -42
      vertex -6.35322 3.49271 45
      vertex -6.12138 3.88474 45
    endloop
  endfacet
  facet normal -0.891006 0.453991 0
    outer loop
      vertex -6.56 3.0869 -42
      vertex -6.56 3.0869 45
      vertex -6.35322 3.49271 -42
    endloop
  endfacet
  facet normal -0.891006 0.453991 0
    outer loop
      vertex -6.35322 3.49271 -42
      vertex -6.56 3.0869 45
      vertex -6.35322 3.49271 45
    endloop
  endfacet
  facet normal -0.917754 0.397149 0
    outer loop
      vertex -6.74088 2.6689 -42
      vertex -6.74088 2.6689 45
      vertex -6.56 3.0869 -42
    endloop
  endfacet
  facet normal -0.917754 0.397149 0
    outer loop
      vertex -6.56 3.0869 -42
      vertex -6.74088 2.6689 45
      vertex -6.56 3.0869 45
    endloop
  endfacet
  facet normal -0.940881 0.338737 0
    outer loop
      vertex -6.89516 2.24037 -42
      vertex -6.89516 2.24037 45
      vertex -6.74088 2.6689 -42
    endloop
  endfacet
  facet normal -0.940881 0.338737 0
    outer loop
      vertex -6.74088 2.6689 -42
      vertex -6.89516 2.24037 45
      vertex -6.74088 2.6689 45
    endloop
  endfacet
  facet normal -0.960294 0.278991 0
    outer loop
      vertex -7.02223 1.803 -42
      vertex -7.02223 1.803 45
      vertex -6.89516 2.24037 -42
    endloop
  endfacet
  facet normal -0.960294 0.278991 0
    outer loop
      vertex -6.89516 2.24037 -42
      vertex -7.02223 1.803 45
      vertex -6.89516 2.24037 45
    endloop
  endfacet
  facet normal -0.975917 0.218144 0
    outer loop
      vertex -7.12158 1.35851 -42
      vertex -7.12158 1.35851 45
      vertex -7.02223 1.803 -42
    endloop
  endfacet
  facet normal -0.975917 0.218144 0
    outer loop
      vertex -7.02223 1.803 -42
      vertex -7.12158 1.35851 45
      vertex -7.02223 1.803 45
    endloop
  endfacet
  facet normal -0.987688 0.156434 0
    outer loop
      vertex -7.19283 0.908666 -42
      vertex -7.19283 0.908666 45
      vertex -7.12158 1.35851 -42
    endloop
  endfacet
  facet normal -0.987688 0.156434 0
    outer loop
      vertex -7.12158 1.35851 -42
      vertex -7.19283 0.908666 45
      vertex -7.12158 1.35851 45
    endloop
  endfacet
  facet normal -0.995562 0.0941078 0
    outer loop
      vertex -7.23569 0.455231 -42
      vertex -7.23569 0.455231 45
      vertex -7.19283 0.908666 -42
    endloop
  endfacet
  facet normal -0.995562 0.0941078 0
    outer loop
      vertex -7.19283 0.908666 -42
      vertex -7.23569 0.455231 45
      vertex -7.19283 0.908666 45
    endloop
  endfacet
  facet normal -0.999507 0.0314103 0
    outer loop
      vertex -7.25 0 -42
      vertex -7.25 0 45
      vertex -7.23569 0.455231 -42
    endloop
  endfacet
  facet normal -0.999507 0.0314103 0
    outer loop
      vertex -7.23569 0.455231 -42
      vertex -7.25 0 45
      vertex -7.23569 0.455231 45
    endloop
  endfacet
  facet normal 0 0 1
    outer loop
      vertex -7.23569 0.455231 45
      vertex -7.25 0 45
      vertex -7.23569 -0.455231 45
    endloop
  endfacet
  facet normal 0 0 1
    outer loop
      vertex -7.12158 -1.35851 45
      vertex -7.23569 0.455231 45
      vertex -7.19283 -0.908666 45
    endloop
  endfacet
  facet normal 0 0 1
    outer loop
      vertex -7.19283 -0.908666 45
      vertex -7.23569 0.455231 45
      vertex -7.23569 -0.455231 45
    endloop
  endfacet
  facet normal 0 0 1
    outer loop
      vertex -7.02223 -1.803 45
      vertex -7.23569 0.455231 45
      vertex -7.12158 -1.35851 45
    endloop
  endfacet
  facet normal 0 0 1
    outer loop
      vertex -6.89516 -2.24037 45
      vertex -7.23569 0.455231 45
      vertex -7.02223 -1.803 45
    endloop
  endfacet
  facet normal 0 0 1
    outer loop
      vertex -6.74088 -2.6689 45
      vertex -7.23569 0.455231 45
      vertex -6.89516 -2.24037 45
    endloop
  endfacet
  facet normal 0 0 1
    outer loop
      vertex -6.56 -3.0869 45
      vertex -7.23569 0.455231 45
      vertex -6.74088 -2.6689 45
    endloop
  endfacet
  facet normal 0 0 1
    outer loop
      vertex -6.35322 -3.49271 45
      vertex -7.23569 0.455231 45
      vertex -6.56 -3.0869 45
    endloop
  endfacet
  facet normal 0 0 1
    outer loop
      vertex -6.12138 -3.88474 45
      vertex -7.23569 0.455231 45
      vertex -6.35322 -3.49271 45
    endloop
  endfacet
  facet normal 0 0 1
    outer loop
      vertex -5.86537 -4.26144 45
      vertex -7.23569 0.455231 45
      vertex -6.12138 -3.88474 45
    endloop
  endfacet
  facet normal 0 0 1
    outer loop
      vertex -5.58622 -4.62132 45
      vertex -7.23569 0.455231 45
      vertex -5.86537 -4.26144 45
    endloop
  endfacet
  facet normal 0 0 1
    outer loop
      vertex -5.28502 -4.96297 45
      vertex -7.23569 0.455231 45
      vertex -5.58622 -4.62132 45
    endloop
  endfacet
  facet normal 0 0 1
    outer loop
      vertex -4.96297 -5.28502 45
      vertex -7.23569 0.455231 45
      vertex -5.28502 -4.96297 45
    endloop
  endfacet
  facet normal 0 0 1
    outer loop
      vertex -4.62132 -5.58622 45
      vertex -7.23569 0.455231 45
      vertex -4.96297 -5.28502 45
    endloop
  endfacet
  facet normal 0 0 1
    outer loop
      vertex -4.26144 -5.86537 45
      vertex -7.23569 0.455231 45
      vertex -4.62132 -5.58622 45
    endloop
  endfacet
  facet normal 0 0 1
    outer loop
      vertex -3.88474 -6.12138 45
      vertex -7.23569 0.455231 45
      vertex -4.26144 -5.86537 45
    endloop
  endfacet
  facet normal 0 0 1
    outer loop
      vertex -3.49271 -6.35322 45
      vertex -7.23569 0.455231 45
      vertex -3.88474 -6.12138 45
    endloop
  endfacet
  facet normal 0 0 1
    outer loop
      vertex -3.0869 -6.56 45
      vertex -7.23569 0.455231 45
      vertex -3.49271 -6.35322 45
    endloop
  endfacet
  facet normal 0 0 1
    outer loop
      vertex -2.6689 -6.74088 45
      vertex -7.23569 0.455231 45
      vertex -3.0869 -6.56 45
    endloop
  endfacet
  facet normal 0 0 1
    outer loop
      vertex -2.24037 -6.89516 45
      vertex -7.23569 0.455231 45
      vertex -2.6689 -6.74088 45
    endloop
  endfacet
  facet normal 0 0 1
    outer loop
      vertex -1.803 -7.02223 45
      vertex -7.23569 0.455231 45
      vertex -2.24037 -6.89516 45
    endloop
  endfacet
  facet normal 0 0 1
    outer loop
      vertex -1.35851 -7.12158 45
      vertex -7.23569 0.455231 45
      vertex -1.803 -7.02223 45
    endloop
  endfacet
  facet normal 0 0 1
    outer loop
      vertex -0.908666 -7.19283 45
      vertex -7.23569 0.455231 45
      vertex -1.35851 -7.12158 45
    endloop
  endfacet
  facet normal 0 0 1
    outer loop
      vertex -0.455231 -7.23569 45
      vertex -7.23569 0.455231 45
      vertex -0.908666 -7.19283 45
    endloop
  endfacet
  facet normal 0 0 1
    outer loop
      vertex 0 -7.25 45
      vertex -7.23569 0.455231 45
      vertex -0.455231 -7.23569 45
    endloop
  endfacet
  facet normal 0 0 1
    outer loop
      vertex 0.455231 -7.23569 45
      vertex -7.23569 0.455231 45
      vertex 0 -7.25 45
    endloop
  endfacet
  facet normal 0 0 1
    outer loop
      vertex 0.908666 -7.19283 45
      vertex -7.23569 0.455231 45
      vertex 0.455231 -7.23569 45
    endloop
  endfacet
  facet normal 0 0 1
    outer loop
      vertex 1.35851 -7.12158 45
      vertex -7.23569 0.455231 45
      vertex 0.908666 -7.19283 45
    endloop
  endfacet
  facet normal 0 0 1
    outer loop
      vertex 1.803 -7.02223 45
      vertex -7.23569 0.455231 45
      vertex 1.35851 -7.12158 45
    endloop
  endfacet
  facet normal 0 0 1
    outer loop
      vertex 2.24037 -6.89516 45
      vertex -7.23569 0.455231 45
      vertex 1.803 -7.02223 45
    endloop
  endfacet
  facet normal 0 0 1
    outer loop
      vertex 2.6689 -6.74088 45
      vertex -7.23569 0.455231 45
      vertex 2.24037 -6.89516 45
    endloop
  endfacet
  facet normal 0 0 1
    outer loop
      vertex 3.0869 -6.56 45
      vertex -7.23569 0.455231 45
      vertex 2.6689 -6.74088 45
    endloop
  endfacet
  facet normal 0 0 1
    outer loop
      vertex 3.49271 -6.35322 45
      vertex -7.23569 0.455231 45
      vertex 3.0869 -6.56 45
    endloop
  endfacet
  facet normal 0 0 1
    outer loop
      vertex 3.88474 -6.12138 45
      vertex -7.23569 0.455231 45
      vertex 3.49271 -6.35322 45
    endloop
  endfacet
  facet normal 0 0 1
    outer loop
      vertex 4.26144 -5.86537 45
      vertex -7.23569 0.455231 45
      vertex 3.88474 -6.12138 45
    endloop
  endfacet
  facet normal 0 0 1
    outer loop
      vertex 4.62132 -5.58622 45
      vertex -7.23569 0.455231 45
      vertex 4.26144 -5.86537 45
    endloop
  endfacet
  facet normal 0 0 1
    outer loop
      vertex 4.96297 -5.28502 45
      vertex -7.23569 0.455231 45
      vertex 4.62132 -5.58622 45
    endloop
  endfacet
  facet normal 0 0 1
    outer loop
      vertex 5.28502 -4.96297 45
      vertex -7.23569 0.455231 45
      vertex 4.96297 -5.28502 45
    endloop
  endfacet
  facet normal 0 0 1
    outer loop
      vertex 5.58622 -4.62132 45
      vertex -7.23569 0.455231 45
      vertex 5.28502 -4.96297 45
    endloop
  endfacet
  facet normal 0 0 1
    outer loop
      vertex 5.86537 -4.26144 45
      vertex -7.23569 0.455231 45
      vertex 5.58622 -4.62132 45
    endloop
  endfacet
  facet normal 0 0 1
    outer loop
      vertex 6.12138 -3.88474 45
      vertex -7.23569 0.455231 45
      vertex 5.86537 -4.26144 45
    endloop
  endfacet
  facet normal 0 0 1
    outer loop
      vertex 6.35322 -3.49271 45
      vertex -7.23569 0.455231 45
      vertex 6.12138 -3.88474 45
    endloop
  endfacet
  facet normal 0 0 1
    outer loop
      vertex 6.56 -3.0869 45
      vertex -7.23569 0.455231 45
      vertex 6.35322 -3.49271 45
    endloop
  endfacet
  facet normal 0 0 1
    outer loop
      vertex 6.74088 -2.6689 45
      vertex -7.23569 0.455231 45
      vertex 6.56 -3.0869 45
    endloop
  endfacet
  facet normal 0 0 1
    outer loop
      vertex 6.89516 -2.24037 45
      vertex -7.23569 0.455231 45
      vertex 6.74088 -2.6689 45
    endloop
  endfacet
  facet normal 0 0 1
    outer loop
      vertex 7.02223 -1.803 45
      vertex -7.23569 0.455231 45
      vertex 6.89516 -2.24037 45
    endloop
  endfacet
  facet normal 0 0 1
    outer loop
      vertex 7.12158 -1.35851 45
      vertex -7.23569 0.455231 45
      vertex 7.02223 -1.803 45
    endloop
  endfacet
  facet normal 0 0 1
    outer loop
      vertex 7.19283 -0.908666 45
      vertex -7.23569 0.455231 45
      vertex 7.12158 -1.35851 45
    endloop
  endfacet
  facet normal 0 0 1
    outer loop
      vertex 7.23569 -0.455231 45
      vertex -7.23569 0.455231 45
      vertex 7.19283 -0.908666 45
    endloop
  endfacet
  facet normal 0 0 1
    outer loop
      vertex 7.25 0 45
      vertex -7.23569 0.455231 45
      vertex 7.23569 -0.455231 45
    endloop
  endfacet
  facet normal 0 0 1
    outer loop
      vertex 7.23569 0.455231 45
      vertex -7.23569 0.455231 45
      vertex 7.25 0 45
    endloop
  endfacet
  facet normal 0 0 1
    outer loop
      vertex 7.19283 0.908666 45
      vertex -7.23569 0.455231 45
      vertex 7.23569 0.455231 45
    endloop
  endfacet
  facet normal 0 0 1
    outer loop
      vertex 7.12158 1.35851 45
      vertex -7.23569 0.455231 45
      vertex 7.19283 0.908666 45
    endloop
  endfacet
  facet normal 0 0 1
    outer loop
      vertex 7.02223 1.803 45
      vertex -7.23569 0.455231 45
      vertex 7.12158 1.35851 45
    endloop
  endfacet
  facet normal 0 0 1
    outer loop
      vertex 6.89516 2.24037 45
      vertex -7.23569 0.455231 45
      vertex 7.02223 1.803 45
    endloop
  endfacet
  facet normal 0 0 1
    outer loop
      vertex 6.74088 2.6689 45
      vertex -7.23569 0.455231 45
      vertex 6.89516 2.24037 45
    endloop
  endfacet
  facet normal 0 0 1
    outer loop
      vertex 6.56 3.0869 45
      vertex -7.23569 0.455231 45
      vertex 6.74088 2.6689 45
    endloop
  endfacet
  facet normal 0 0 1
    outer loop
      vertex 6.35322 3.49271 45
      vertex -7.23569 0.455231 45
      vertex 6.56 3.0869 45
    endloop
  endfacet
  facet normal 0 0 1
    outer loop
      vertex 6.12138 3.88474 45
      vertex -7.23569 0.455231 45
      vertex 6.35322 3.49271 45
    endloop
  endfacet
  facet normal 0 0 1
    outer loop
      vertex 5.86537 4.26144 45
      vertex -7.23569 0.455231 45
      vertex 6.12138 3.88474 45
    endloop
  endfacet
  facet normal 0 0 1
    outer loop
      vertex 5.58622 4.62132 45
      vertex -7.23569 0.455231 45
      vertex 5.86537 4.26144 45
    endloop
  endfacet
  facet normal 0 0 1
    outer loop
      vertex 5.28502 4.96297 45
      vertex -7.23569 0.455231 45
      vertex 5.58622 4.62132 45
    endloop
  endfacet
  facet normal 0 0 1
    outer loop
      vertex 4.96297 5.28502 45
      vertex -7.23569 0.455231 45
      vertex 5.28502 4.96297 45
    endloop
  endfacet
  facet normal 0 0 1
    outer loop
      vertex 4.62132 5.58622 45
      vertex -7.23569 0.455231 45
      vertex 4.96297 5.28502 45
    endloop
  endfacet
  facet normal 0 0 1
    outer loop
      vertex 4.26144 5.86537 45
      vertex -7.23569 0.455231 45
      vertex 4.62132 5.58622 45
    endloop
  endfacet
  facet normal 0 0 1
    outer loop
      vertex 3.88474 6.12138 45
      vertex -7.23569 0.455231 45
      vertex 4.26144 5.86537 45
    endloop
  endfacet
  facet normal 0 0 1
    outer loop
      vertex 3.49271 6.35322 45
      vertex -7.23569 0.455231 45
      vertex 3.88474 6.12138 45
    endloop
  endfacet
  facet normal 0 0 1
    outer loop
      vertex 3.0869 6.56 45
      vertex -7.23569 0.455231 45
      vertex 3.49271 6.35322 45
    endloop
  endfacet
  facet normal 0 0 1
    outer loop
      vertex 2.6689 6.74088 45
      vertex -7.23569 0.455231 45
      vertex 3.0869 6.56 45
    endloop
  endfacet
  facet normal 0 0 1
    outer loop
      vertex 2.24037 6.89516 45
      vertex -7.23569 0.455231 45
      vertex 2.6689 6.74088 45
    endloop
  endfacet
  facet normal 0 0 1
    outer loop
      vertex 1.803 7.02223 45
      vertex -7.23569 0.455231 45
      vertex 2.24037 6.89516 45
    endloop
  endfacet
  facet normal 0 0 1
    outer loop
      vertex 1.35851 7.12158 45
      vertex -7.23569 0.455231 45
      vertex 1.803 7.02223 45
    endloop
  endfacet
  facet normal 0 0 1
    outer loop
      vertex 0.908666 7.19283 45
      vertex -7.23569 0.455231 45
      vertex 1.35851 7.12158 45
    endloop
  endfacet
  facet normal 0 0 1
    outer loop
      vertex 0.455231 7.23569 45
      vertex -7.23569 0.455231 45
      vertex 0.908666 7.19283 45
    endloop
  endfacet
  facet normal 0 0 1
    outer loop
      vertex 0 7.25 45
      vertex -7.23569 0.455231 45
      vertex 0.455231 7.23569 45
    endloop
  endfacet
  facet normal 0 0 1
    outer loop
      vertex -0.455231 7.23569 45
      vertex -7.23569 0.455231 45
      vertex 0 7.25 45
    endloop
  endfacet
  facet normal 0 0 1
    outer loop
      vertex -0.908666 7.19283 45
      vertex -7.23569 0.455231 45
      vertex -0.455231 7.23569 45
    endloop
  endfacet
  facet normal 0 0 1
    outer loop
      vertex -1.35851 7.12158 45
      vertex -7.23569 0.455231 45
      vertex -0.908666 7.19283 45
    endloop
  endfacet
  facet normal 0 0 1
    outer loop
      vertex -1.803 7.02223 45
      vertex -7.23569 0.455231 45
      vertex -1.35851 7.12158 45
    endloop
  endfacet
  facet normal 0 0 1
    outer loop
      vertex -2.24037 6.89516 45
      vertex -7.23569 0.455231 45
      vertex -1.803 7.02223 45
    endloop
  endfacet
  facet normal 0 0 1
    outer loop
      vertex -2.6689 6.74088 45
      vertex -7.23569 0.455231 45
      vertex -2.24037 6.89516 45
    endloop
  endfacet
  facet normal 0 0 1
    outer loop
      vertex -3.0869 6.56 45
      vertex -7.23569 0.455231 45
      vertex -2.6689 6.74088 45
    endloop
  endfacet
  facet normal 0 0 1
    outer loop
      vertex -3.49271 6.35322 45
      vertex -7.23569 0.455231 45
      vertex -3.0869 6.56 45
    endloop
  endfacet
  facet normal 0 0 1
    outer loop
      vertex -3.88474 6.12138 45
      vertex -7.23569 0.455231 45
      vertex -3.49271 6.35322 45
    endloop
  endfacet
  facet normal 0 0 1
    outer loop
      vertex -4.26144 5.86537 45
      vertex -7.23569 0.455231 45
      vertex -3.88474 6.12138 45
    endloop
  endfacet
  facet normal 0 0 1
    outer loop
      vertex -4.62132 5.58622 45
      vertex -7.23569 0.455231 45
      vertex -4.26144 5.86537 45
    endloop
  endfacet
  facet normal 0 0 1
    outer loop
      vertex -4.96297 5.28502 45
      vertex -7.23569 0.455231 45
      vertex -4.62132 5.58622 45
    endloop
  endfacet
  facet normal 0 0 1
    outer loop
      vertex -5.28502 4.96297 45
      vertex -7.23569 0.455231 45
      vertex -4.96297 5.28502 45
    endloop
  endfacet
  facet normal 0 0 1
    outer loop
      vertex -5.58622 4.62132 45
      vertex -7.23569 0.455231 45
      vertex -5.28502 4.96297 45
    endloop
  endfacet
  facet normal 0 0 1
    outer loop
      vertex -5.86537 4.26144 45
      vertex -7.23569 0.455231 45
      vertex -5.58622 4.62132 45
    endloop
  endfacet
  facet normal 0 0 1
    outer loop
      vertex -6.12138 3.88474 45
      vertex -7.23569 0.455231 45
      vertex -5.86537 4.26144 45
    endloop
  endfacet
  facet normal 0 0 1
    outer loop
      vertex -6.35322 3.49271 45
      vertex -7.23569 0.455231 45
      vertex -6.12138 3.88474 45
    endloop
  endfacet
  facet normal 0 0 1
    outer loop
      vertex -6.56 3.0869 45
      vertex -7.23569 0.455231 45
      vertex -6.35322 3.49271 45
    endloop
  endfacet
  facet normal 0 0 1
    outer loop
      vertex -6.74088 2.6689 45
      vertex -7.23569 0.455231 45
      vertex -6.56 3.0869 45
    endloop
  endfacet
  facet normal 0 0 1
    outer loop
      vertex -6.89516 2.24037 45
      vertex -7.23569 0.455231 45
      vertex -6.74088 2.6689 45
    endloop
  endfacet
  facet normal 0 0 1
    outer loop
      vertex -7.02223 1.803 45
      vertex -7.23569 0.455231 45
      vertex -6.89516 2.24037 45
    endloop
  endfacet
  facet normal 0 0 1
    outer loop
      vertex -7.12158 1.35851 45
      vertex -7.23569 0.455231 45
      vertex -7.02223 1.803 45
    endloop
  endfacet
  facet normal 0 0 1
    outer loop
      vertex -7.19283 0.908666 45
      vertex -7.23569 0.455231 45
      vertex -7.12158 1.35851 45
    endloop
  endfacet
endsolid OpenSCAD_Model
