solid OpenSCAD_Model
  facet normal -1 0 0
    outer loop
      vertex -37 -49 -14
      vertex -37 -49 14
      vertex -37 49 -14
    endloop
  endfacet
  facet normal -1 0 0
    outer loop
      vertex -37 49 -14
      vertex -37 -49 14
      vertex -37 49 14
    endloop
  endfacet
  facet normal 0 -1 0
    outer loop
      vertex -37 -49 14
      vertex -37 -49 -14
      vertex 37 -49 -14
    endloop
  endfacet
  facet normal 0 -1 0
    outer loop
      vertex 37 -49 14
      vertex -37 -49 14
      vertex 37 -49 -14
    endloop
  endfacet
  facet normal 0 0 -1
    outer loop
      vertex -37 -49 -14
      vertex -37 49 -14
      vertex 37 -49 -14
    endloop
  endfacet
  facet normal 0 0 -1
    outer loop
      vertex 37 -49 -14
      vertex -37 49 -14
      vertex -12.3333 49 -14
    endloop
  endfacet
  facet normal 0 0 -1
    outer loop
      vertex -9.33333 49 -14
      vertex -12.3333 49 -14
      vertex -12.3333 61 -14
    endloop
  endfacet
  facet normal 0 0 -1
    outer loop
      vertex 9.33333 58 -14
      vertex -12.3333 61 -14
      vertex 12.3333 61 -14
    endloop
  endfacet
  facet normal 0 0 -1
    outer loop
      vertex -9.33333 49 -14
      vertex -12.3333 61 -14
      vertex -9.33333 58 -14
    endloop
  endfacet
  facet normal 0 0 -1
    outer loop
      vertex -9.33333 58 -14
      vertex -12.3333 61 -14
      vertex 9.33333 58 -14
    endloop
  endfacet
  facet normal 0 0 -1
    outer loop
      vertex 37 -49 -14
      vertex -12.3333 49 -14
      vertex -9.33333 49 -14
    endloop
  endfacet
  facet normal 0 0 -1
    outer loop
      vertex 9.33333 49 -14
      vertex 37 -49 -14
      vertex -9.33333 49 -14
    endloop
  endfacet
  facet normal 0 0 -1
    outer loop
      vertex 9.33333 58 -14
      vertex 12.3333 49 -14
      vertex 9.33333 49 -14
    endloop
  endfacet
  facet normal 0 0 -1
    outer loop
      vertex 37 -49 -14
      vertex 9.33333 49 -14
      vertex 12.3333 49 -14
    endloop
  endfacet
  facet normal 0 0 -1
    outer loop
      vertex 12.3333 49 -14
      vertex 9.33333 58 -14
      vertex 12.3333 61 -14
    endloop
  endfacet
  facet normal 0 0 -1
    outer loop
      vertex 37 49 -14
      vertex 37 -49 -14
      vertex 12.3333 49 -14
    endloop
  endfacet
  facet normal 0 1 0
    outer loop
      vertex -37 49 -14
      vertex -37 49 14
      vertex -12.3333 49 -14
    endloop
  endfacet
  facet normal 0 1 0
    outer loop
      vertex 12.3333 49 0
      vertex -37 49 14
      vertex 37 49 14
    endloop
  endfacet
  facet normal 0 1 0
    outer loop
      vertex 12.3333 49 -14
      vertex 37 49 14
      vertex 37 49 -14
    endloop
  endfacet
  facet normal 0 1 0
    outer loop
      vertex 9.33333 49 0
      vertex -37 49 14
      vertex 12.3333 49 0
    endloop
  endfacet
  facet normal 0 1 0
    outer loop
      vertex -9.33333 49 0
      vertex -37 49 14
      vertex 9.33333 49 0
    endloop
  endfacet
  facet normal 0 1 0
    outer loop
      vertex 9.33333 49 -14
      vertex -9.33333 49 -14
      vertex 9.33333 49 0
    endloop
  endfacet
  facet normal 0 1 0
    outer loop
      vertex -12.3333 49 0
      vertex -37 49 14
      vertex -9.33333 49 0
    endloop
  endfacet
  facet normal 0 1 0
    outer loop
      vertex -12.3333 49 -14
      vertex -37 49 14
      vertex -12.3333 49 0
    endloop
  endfacet
  facet normal 0 1 0
    outer loop
      vertex 12.3333 49 0
      vertex 37 49 14
      vertex 12.3333 49 -14
    endloop
  endfacet
  facet normal 0 1 0
    outer loop
      vertex -9.33333 49 0
      vertex 9.33333 49 0
      vertex -9.33333 49 -14
    endloop
  endfacet
  facet normal 0 0 1
    outer loop
      vertex -35.4 -47.4 14
      vertex -37 -49 14
      vertex 37 -49 14
    endloop
  endfacet
  facet normal 0 0 1
    outer loop
      vertex -0.8 -47.4 14
      vertex -35.4 -47.4 14
      vertex 37 -49 14
    endloop
  endfacet
  facet normal 0 0 1
    outer loop
      vertex -37 49 14
      vertex -37 -49 14
      vertex -35.4 -47.4 14
    endloop
  endfacet
  facet normal 0 0 1
    outer loop
      vertex -35.4 0.8 14
      vertex -35.4 47.4 14
      vertex -37 49 14
    endloop
  endfacet
  facet normal 0 0 1
    outer loop
      vertex -37 49 14
      vertex -35.4 -47.4 14
      vertex -35.4 -0.8 14
    endloop
  endfacet
  facet normal 0 0 1
    outer loop
      vertex -35.4 0.8 14
      vertex -35.4 -0.8 14
      vertex -0.8 -0.8 14
    endloop
  endfacet
  facet normal 0 0 1
    outer loop
      vertex 0.8 -47.4 14
      vertex -0.8 -47.4 14
      vertex 37 -49 14
    endloop
  endfacet
  facet normal 0 0 1
    outer loop
      vertex 0.8 0.8 14
      vertex 0.8 47.4 14
      vertex -0.8 47.4 14
    endloop
  endfacet
  facet normal 0 0 1
    outer loop
      vertex -37 49 14
      vertex -35.4 -0.8 14
      vertex -35.4 0.8 14
    endloop
  endfacet
  facet normal 0 0 1
    outer loop
      vertex 37 49 14
      vertex -37 49 14
      vertex -35.4 47.4 14
    endloop
  endfacet
  facet normal 0 0 1
    outer loop
      vertex 37 49 14
      vertex -35.4 47.4 14
      vertex -0.8 47.4 14
    endloop
  endfacet
  facet normal 0 0 1
    outer loop
      vertex -0.8 0.8 14
      vertex -35.4 0.8 14
      vertex -0.8 -0.8 14
    endloop
  endfacet
  facet normal 0 0 1
    outer loop
      vertex -0.8 47.4 14
      vertex -0.8 0.8 14
      vertex 0.8 -0.8 14
    endloop
  endfacet
  facet normal 0 0 1
    outer loop
      vertex 35.4 0.8 14
      vertex 0.8 0.8 14
      vertex 35.4 -0.8 14
    endloop
  endfacet
  facet normal 0 0 1
    outer loop
      vertex 0.8 -47.4 14
      vertex -0.8 0.8 14
      vertex -0.8 -0.8 14
    endloop
  endfacet
  facet normal 0 0 1
    outer loop
      vertex 37 49 14
      vertex 35.4 -0.8 14
      vertex 37 -49 14
    endloop
  endfacet
  facet normal 0 0 1
    outer loop
      vertex 0.8 -0.8 14
      vertex 35.4 -0.8 14
      vertex 0.8 0.8 14
    endloop
  endfacet
  facet normal 0 0 1
    outer loop
      vertex 0.8 -47.4 14
      vertex 0.8 -0.8 14
      vertex -0.8 0.8 14
    endloop
  endfacet
  facet normal 0 0 1
    outer loop
      vertex 35.4 -0.8 14
      vertex 35.4 -47.4 14
      vertex 37 -49 14
    endloop
  endfacet
  facet normal 0 0 1
    outer loop
      vertex -0.8 47.4 14
      vertex 0.8 -0.8 14
      vertex 0.8 0.8 14
    endloop
  endfacet
  facet normal 0 0 1
    outer loop
      vertex 37 49 14
      vertex -0.8 47.4 14
      vertex 0.8 47.4 14
    endloop
  endfacet
  facet normal 0 0 1
    outer loop
      vertex 37 49 14
      vertex 0.8 47.4 14
      vertex 35.4 47.4 14
    endloop
  endfacet
  facet normal 0 0 1
    outer loop
      vertex 37 49 14
      vertex 35.4 0.8 14
      vertex 35.4 -0.8 14
    endloop
  endfacet
  facet normal 0 0 1
    outer loop
      vertex 37 49 14
      vertex 35.4 47.4 14
      vertex 35.4 0.8 14
    endloop
  endfacet
  facet normal 0 0 1
    outer loop
      vertex 35.4 -47.4 14
      vertex 0.8 -47.4 14
      vertex 37 -49 14
    endloop
  endfacet
  facet normal 0 0 1
    outer loop
      vertex -0.8 -0.8 14
      vertex -0.8 -47.4 14
      vertex 0.8 -47.4 14
    endloop
  endfacet
  facet normal 1 0 0
    outer loop
      vertex 37 -49 14
      vertex 37 -49 -14
      vertex 37 49 -14
    endloop
  endfacet
  facet normal 1 0 0
    outer loop
      vertex 37 49 14
      vertex 37 -49 14
      vertex 37 49 -14
    endloop
  endfacet
  facet normal 1 0 0
    outer loop
      vertex 12.3333 49 0
      vertex 12.3333 49 -14
      vertex 12.3333 61 -14
    endloop
  endfacet
  facet normal 1 0 0
    outer loop
      vertex 12.3333 61 0
      vertex 12.3333 49 0
      vertex 12.3333 61 -14
    endloop
  endfacet
  facet normal 0 1 0
    outer loop
      vertex -12.3333 61 -14
      vertex -12.3333 61 0
      vertex 12.3333 61 -14
    endloop
  endfacet
  facet normal 0 1 0
    outer loop
      vertex 12.3333 61 -14
      vertex -12.3333 61 0
      vertex 12.3333 61 0
    endloop
  endfacet
  facet normal -1 0 0
    outer loop
      vertex -12.3333 49 -14
      vertex -12.3333 49 0
      vertex -12.3333 61 -14
    endloop
  endfacet
  facet normal -1 0 0
    outer loop
      vertex -12.3333 61 -14
      vertex -12.3333 49 0
      vertex -12.3333 61 0
    endloop
  endfacet
  facet normal 1 0 0
    outer loop
      vertex -9.33333 58 -14
      vertex -9.33333 58 0
      vertex -9.33333 49 0
    endloop
  endfacet
  facet normal 1 0 0
    outer loop
      vertex -9.33333 49 -14
      vertex -9.33333 58 -14
      vertex -9.33333 49 0
    endloop
  endfacet
  facet normal 0 -1 0
    outer loop
      vertex 9.33333 58 -14
      vertex 9.33333 58 0
      vertex -9.33333 58 0
    endloop
  endfacet
  facet normal 0 -1 0
    outer loop
      vertex -9.33333 58 -14
      vertex 9.33333 58 -14
      vertex -9.33333 58 0
    endloop
  endfacet
  facet normal -1 0 0
    outer loop
      vertex 9.33333 58 0
      vertex 9.33333 58 -14
      vertex 9.33333 49 0
    endloop
  endfacet
  facet normal -1 0 0
    outer loop
      vertex 9.33333 49 0
      vertex 9.33333 58 -14
      vertex 9.33333 49 -14
    endloop
  endfacet
  facet normal 0 0 1
    outer loop
      vertex -12.3333 61 0
      vertex -12.3333 49 0
      vertex -9.33333 49 0
    endloop
  endfacet
  facet normal 0 0 1
    outer loop
      vertex 9.33333 58 0
      vertex -12.3333 61 0
      vertex -9.33333 58 0
    endloop
  endfacet
  facet normal 0 0 1
    outer loop
      vertex -9.33333 58 0
      vertex -12.3333 61 0
      vertex -9.33333 49 0
    endloop
  endfacet
  facet normal 0 0 1
    outer loop
      vertex 12.3333 61 0
      vertex -12.3333 61 0
      vertex 9.33333 58 0
    endloop
  endfacet
  facet normal 0 0 1
    outer loop
      vertex 12.3333 49 0
      vertex 9.33333 58 0
      vertex 9.33333 49 0
    endloop
  endfacet
  facet normal 0 0 1
    outer loop
      vertex 12.3333 61 0
      vertex 9.33333 58 0
      vertex 12.3333 49 0
    endloop
  endfacet
  facet normal 1 0 0
    outer loop
      vertex -35.4 -0.8 -12.5
      vertex -35.4 -0.8 14
      vertex -35.4 -47.4 14
    endloop
  endfacet
  facet normal 1 0 0
    outer loop
      vertex -35.4 -47.4 -12.5
      vertex -35.4 -0.8 -12.5
      vertex -35.4 -47.4 14
    endloop
  endfacet
  facet normal 0 1 0
    outer loop
      vertex -0.8 -47.4 14
      vertex -0.8 -47.4 -12.5
      vertex -35.4 -47.4 14
    endloop
  endfacet
  facet normal 0 1 0
    outer loop
      vertex -35.4 -47.4 14
      vertex -0.8 -47.4 -12.5
      vertex -35.4 -47.4 -12.5
    endloop
  endfacet
  facet normal -1 0 0
    outer loop
      vertex -0.8 -0.8 14
      vertex -0.8 -0.8 -12.5
      vertex -0.8 -47.4 14
    endloop
  endfacet
  facet normal -1 0 0
    outer loop
      vertex -0.8 -47.4 14
      vertex -0.8 -0.8 -12.5
      vertex -0.8 -47.4 -12.5
    endloop
  endfacet
  facet normal 0 -1 0
    outer loop
      vertex -0.8 -0.8 -12.5
      vertex -0.8 -0.8 14
      vertex -35.4 -0.8 14
    endloop
  endfacet
  facet normal 0 -1 0
    outer loop
      vertex -35.4 -0.8 -12.5
      vertex -0.8 -0.8 -12.5
      vertex -35.4 -0.8 14
    endloop
  endfacet
  facet normal 1 0 0
    outer loop
      vertex -35.4 47.4 -12.5
      vertex -35.4 47.4 14
      vertex -35.4 0.8 14
    endloop
  endfacet
  facet normal 1 0 0
    outer loop
      vertex -35.4 0.8 -12.5
      vertex -35.4 47.4 -12.5
      vertex -35.4 0.8 14
    endloop
  endfacet
  facet normal 0 1 0
    outer loop
      vertex -0.8 0.8 14
      vertex -0.8 0.8 -12.5
      vertex -35.4 0.8 14
    endloop
  endfacet
  facet normal 0 1 0
    outer loop
      vertex -35.4 0.8 14
      vertex -0.8 0.8 -12.5
      vertex -35.4 0.8 -12.5
    endloop
  endfacet
  facet normal -1 0 0
    outer loop
      vertex -0.8 47.4 14
      vertex -0.8 47.4 -12.5
      vertex -0.8 0.8 14
    endloop
  endfacet
  facet normal -1 0 0
    outer loop
      vertex -0.8 0.8 14
      vertex -0.8 47.4 -12.5
      vertex -0.8 0.8 -12.5
    endloop
  endfacet
  facet normal 0 -1 0
    outer loop
      vertex -0.8 47.4 -12.5
      vertex -0.8 47.4 14
      vertex -35.4 47.4 14
    endloop
  endfacet
  facet normal 0 -1 0
    outer loop
      vertex -35.4 47.4 -12.5
      vertex -0.8 47.4 -12.5
      vertex -35.4 47.4 14
    endloop
  endfacet
  facet normal 1 0 0
    outer loop
      vertex 0.8 -0.8 -12.5
      vertex 0.8 -0.8 14
      vertex 0.8 -47.4 14
    endloop
  endfacet
  facet normal 1 0 0
    outer loop
      vertex 0.8 -47.4 -12.5
      vertex 0.8 -0.8 -12.5
      vertex 0.8 -47.4 14
    endloop
  endfacet
  facet normal 0 1 0
    outer loop
      vertex 35.4 -47.4 14
      vertex 35.4 -47.4 -12.5
      vertex 0.8 -47.4 14
    endloop
  endfacet
  facet normal 0 1 0
    outer loop
      vertex 0.8 -47.4 14
      vertex 35.4 -47.4 -12.5
      vertex 0.8 -47.4 -12.5
    endloop
  endfacet
  facet normal -1 0 0
    outer loop
      vertex 35.4 -0.8 14
      vertex 35.4 -0.8 -12.5
      vertex 35.4 -47.4 14
    endloop
  endfacet
  facet normal -1 0 0
    outer loop
      vertex 35.4 -47.4 14
      vertex 35.4 -0.8 -12.5
      vertex 35.4 -47.4 -12.5
    endloop
  endfacet
  facet normal 0 -1 0
    outer loop
      vertex 35.4 -0.8 -12.5
      vertex 35.4 -0.8 14
      vertex 0.8 -0.8 14
    endloop
  endfacet
  facet normal 0 -1 0
    outer loop
      vertex 0.8 -0.8 -12.5
      vertex 35.4 -0.8 -12.5
      vertex 0.8 -0.8 14
    endloop
  endfacet
  facet normal 1 0 0
    outer loop
      vertex 0.8 47.4 -12.5
      vertex 0.8 47.4 14
      vertex 0.8 0.8 14
    endloop
  endfacet
  facet normal 1 0 0
    outer loop
      vertex 0.8 0.8 -12.5
      vertex 0.8 47.4 -12.5
      vertex 0.8 0.8 14
    endloop
  endfacet
  facet normal 0 1 0
    outer loop
      vertex 35.4 0.8 14
      vertex 35.4 0.8 -12.5
      vertex 0.8 0.8 14
    endloop
  endfacet
  facet normal 0 1 0
    outer loop
      vertex 0.8 0.8 14
      vertex 35.4 0.8 -12.5
      vertex 0.8 0.8 -12.5
    endloop
  endfacet
  facet normal -1 0 0
    outer loop
      vertex 35.4 47.4 14
      vertex 35.4 47.4 -12.5
      vertex 35.4 0.8 14
    endloop
  endfacet
  facet normal -1 0 0
    outer loop
      vertex 35.4 0.8 14
      vertex 35.4 47.4 -12.5
      vertex 35.4 0.8 -12.5
    endloop
  endfacet
  facet normal 0 -1 0
    outer loop
      vertex 35.4 47.4 -12.5
      vertex 35.4 47.4 14
      vertex 0.8 47.4 14
    endloop
  endfacet
  facet normal 0 -1 0
    outer loop
      vertex 0.8 47.4 -12.5
      vertex 35.4 47.4 -12.5
      vertex 0.8 47.4 14
    endloop
  endfacet
  facet normal 0 0 1
    outer loop
      vertex -0.8 -47.4 -12.5
      vertex -0.8 -0.8 -12.5
      vertex -35.4 -0.8 -12.5
    endloop
  endfacet
  facet normal 0 0 1
    outer loop
      vertex -35.4 -47.4 -12.5
      vertex -0.8 -47.4 -12.5
      vertex -35.4 -0.8 -12.5
    endloop
  endfacet
  facet normal 0 0 1
    outer loop
      vertex -0.8 0.8 -12.5
      vertex -0.8 47.4 -12.5
      vertex -35.4 47.4 -12.5
    endloop
  endfacet
  facet normal 0 0 1
    outer loop
      vertex -35.4 0.8 -12.5
      vertex -0.8 0.8 -12.5
      vertex -35.4 47.4 -12.5
    endloop
  endfacet
  facet normal 0 0 1
    outer loop
      vertex 35.4 -47.4 -12.5
      vertex 35.4 -0.8 -12.5
      vertex 0.8 -0.8 -12.5
    endloop
  endfacet
  facet normal 0 0 1
    outer loop
      vertex 0.8 -47.4 -12.5
      vertex 35.4 -47.4 -12.5
      vertex 0.8 -0.8 -12.5
    endloop
  endfacet
  facet normal 0 0 1
    outer loop
      vertex 35.4 0.8 -12.5
      vertex 35.4 47.4 -12.5
      vertex 0.8 47.4 -12.5
    endloop
  endfacet
  facet normal 0 0 1
    outer loop
      vertex 0.8 0.8 -12.5
      vertex 35.4 0.8 -12.5
      vertex 0.8 47.4 -12.5
    endloop
  endfacet
endsolid OpenSCAD_Model
