999
dxflib 2.2.0.0
  0
SECTION
  2
HEADER
  9
$ACADVER
  1
AC1015
  9
$HANDSEED
  5
FFFF
  9
$DIMASZ
 40
2.5
  9
$PLIMMIN
 10
0.0
 20
0.0
  9
$DIMEXE
 40
1.25
  9
$DIMGAP
 40
0.625
  9
$PLIMMAX
 10
210.0
 20
297.0
  9
$INSUNITS
 70
4
  9
$DIMSTYLE
  2
Standard
  9
$MEASUREMENT
 70
1
  9
$DIMEXO
 40
0.625
  9
$DIMTXT
 40
2.5
  0
ENDSEC
  0
SECTION
  2
TABLES
  0
TABLE
  2
VPORT
  5
8
100
AcDbSymbolTable
 70
1
  0
VPORT
  5
30
100
AcDbSymbolTableRecord
100
AcDbViewportTableRecord
  2
*Active
 70
0
 10
0.0
 20
0.0
 11
1.0
 21
1.0
 12
286.3055555555554861
 22
148.5
 13
0.0
 23
0.0
 14
10.0
 24
10.0
 15
10.0
 25
10.0
 16
0.0
 26
0.0
 36
1.0
 17
0.0
 27
0.0
 37
0.0
 40
297.0
 41
1.92798353909465
 42
50.0
 43
0.0
 44
0.0
 50
0.0
 51
0.0
 71
0
 72
100
 73
1
 74
3
 75
1
 76
1
 77
0
 78
0
281
0
 65
1
110
0.0
120
0.0
130
0.0
111
1.0
121
0.0
131
0.0
112
0.0
122
1.0
132
0.0
 79
0
146
0.0
  0
ENDTAB
  0
TABLE
  2
LTYPE
  5
5
100
AcDbSymbolTable
 70
21
  0
LTYPE
  5
14
100
AcDbSymbolTableRecord
100
AcDbLinetypeTableRecord
  2
ByBlock
 70
0
  3

 72
65
 73
0
 40
0.0
  0
LTYPE
  5
15
100
AcDbSymbolTableRecord
100
AcDbLinetypeTableRecord
  2
ByLayer
 70
0
  3

 72
65
 73
0
 40
0.0
  0
LTYPE
  5
16
100
AcDbSymbolTableRecord
100
AcDbLinetypeTableRecord
  2
CONTINUOUS
 70
0
  3
Solid line
 72
65
 73
0
 40
0.0
  0
LTYPE
  5
31
100
AcDbSymbolTableRecord
100
AcDbLinetypeTableRecord
  2
DOT
 70
0
  3
Dot . . . . . . . . . . . . . . . . . . . . . .
 72
65
 73
2
 40
6.3499999999999996
 49
0.0
 74
0
 49
-6.3499999999999996
 74
0
  0
LTYPE
  5
32
100
AcDbSymbolTableRecord
100
AcDbLinetypeTableRecord
  2
DOT2
 70
0
  3
Dot (.5x) .....................................
 72
65
 73
2
 40
3.1749999999999998
 49
0.0
 74
0
 49
-3.1749999999999998
 74
0
  0
LTYPE
  5
33
100
AcDbSymbolTableRecord
100
AcDbLinetypeTableRecord
  2
DOTX2
 70
0
  3
Dot (2x) .  .  .  .  .  .  .  .  .  .  .  .  .
 72
65
 73
2
 40
12.6999999999999993
 49
0.0
 74
0
 49
-12.6999999999999993
 74
0
  0
LTYPE
  5
34
100
AcDbSymbolTableRecord
100
AcDbLinetypeTableRecord
  2
DASHED
 70
0
  3
Dashed __ __ __ __ __ __ __ __ __ __ __ __ __ _
 72
65
 73
2
 40
19.0500000000000007
 49
12.6999999999999993
 74
0
 49
-6.3499999999999996
 74
0
  0
LTYPE
  5
35
100
AcDbSymbolTableRecord
100
AcDbLinetypeTableRecord
  2
DASHED2
 70
0
  3
Dashed (.5x) _ _ _ _ _ _ _ _ _ _ _ _ _ _ _ _ _
 72
65
 73
2
 40
9.5250000000000004
 49
6.3499999999999996
 74
0
 49
-3.1749999999999998
 74
0
  0
LTYPE
  5
36
100
AcDbSymbolTableRecord
100
AcDbLinetypeTableRecord
  2
DASHEDX2
 70
0
  3
Dashed (2x) ____  ____  ____  ____  ____  ___
 72
65
 73
2
 40
38.1000000000000014
 49
25.3999999999999986
 74
0
 49
-12.6999999999999993
 74
0
  0
LTYPE
  5
37
100
AcDbSymbolTableRecord
100
AcDbLinetypeTableRecord
  2
DASHDOT
 70
0
  3
Dash dot __ . __ . __ . __ . __ . __ . __ . __
 72
65
 73
4
 40
25.3999999999999986
 49
12.6999999999999993
 74
0
 49
-6.3499999999999996
 74
0
 49
0.0
 74
0
 49
-6.3499999999999996
 74
0
  0
LTYPE
  5
38
100
AcDbSymbolTableRecord
100
AcDbLinetypeTableRecord
  2
DASHDOT2
 70
0
  3
Dash dot (.5x) _._._._._._._._._._._._._._._.
 72
65
 73
4
 40
12.6999999999999993
 49
6.3499999999999996
 74
0
 49
-3.1749999999999998
 74
0
 49
0.0
 74
0
 49
-3.1749999999999998
 74
0
  0
LTYPE
  5
39
100
AcDbSymbolTableRecord
100
AcDbLinetypeTableRecord
  2
DASHDOTX2
 70
0
  3
Dash dot (2x) ____  .  ____  .  ____  .  ___
 72
65
 73
4
 40
50.7999999999999972
 49
25.3999999999999986
 74
0
 49
-12.6999999999999993
 74
0
 49
0.0
 74
0
 49
-12.6999999999999993
 74
0
  0
LTYPE
  5
3A
100
AcDbSymbolTableRecord
100
AcDbLinetypeTableRecord
  2
DIVIDE
 70
0
  3
Divide ____ . . ____ . . ____ . . ____ . . ____
 72
65
 73
6
 40
31.75
 49
12.6999999999999993
 74
0
 49
-6.3499999999999996
 74
0
 49
0.0
 74
0
 49
-6.3499999999999996
 74
0
 49
0.0
 74
0
 49
-6.3499999999999996
 74
0
  0
LTYPE
  5
3B
100
AcDbSymbolTableRecord
100
AcDbLinetypeTableRecord
  2
DIVIDE2
 70
0
  3
Divide (.5x) __..__..__..__..__..__..__..__.._
 72
65
 73
6
 40
15.875
 49
6.3499999999999996
 74
0
 49
-3.1749999999999998
 74
0
 49
0.0
 74
0
 49
-3.1749999999999998
 74
0
 49
0.0
 74
0
 49
-3.1749999999999998
 74
0
  0
LTYPE
  5
3C
100
AcDbSymbolTableRecord
100
AcDbLinetypeTableRecord
  2
DIVIDEX2
 70
0
  3
Divide (2x) ________  .  .  ________  .  .  _
 72
65
 73
6
 40
63.5
 49
25.3999999999999986
 74
0
 49
-12.6999999999999993
 74
0
 49
0.0
 74
0
 49
-12.6999999999999993
 74
0
 49
0.0
 74
0
 49
-12.6999999999999993
 74
0
  0
LTYPE
  5
3D
100
AcDbSymbolTableRecord
100
AcDbLinetypeTableRecord
  2
CENTER
 70
0
  3
Center ____ _ ____ _ ____ _ ____ _ ____ _ ____
 72
65
 73
4
 40
50.7999999999999972
 49
31.75
 74
0
 49
-6.3499999999999996
 74
0
 49
6.3499999999999996
 74
0
 49
-6.3499999999999996
 74
0
  0
LTYPE
  5
3E
100
AcDbSymbolTableRecord
100
AcDbLinetypeTableRecord
  2
CENTER2
 70
0
  3
Center (.5x) ___ _ ___ _ ___ _ ___ _ ___ _ ___
 72
65
 73
4
 40
28.5749999999999993
 49
19.0500000000000007
 74
0
 49
-3.1749999999999998
 74
0
 49
3.1749999999999998
 74
0
 49
-3.1749999999999998
 74
0
  0
LTYPE
  5
3F
100
AcDbSymbolTableRecord
100
AcDbLinetypeTableRecord
  2
CENTERX2
 70
0
  3
Center (2x) ________  __  ________  __  _____
 72
65
 73
4
 40
101.5999999999999943
 49
63.5
 74
0
 49
-12.6999999999999993
 74
0
 49
12.6999999999999993
 74
0
 49
-12.6999999999999993
 74
0
  0
LTYPE
  5
40
100
AcDbSymbolTableRecord
100
AcDbLinetypeTableRecord
  2
BORDER
 70
0
  3
Border __ __ . __ __ . __ __ . __ __ . __ __ .
 72
65
 73
6
 40
44.4500000000000028
 49
12.6999999999999993
 74
0
 49
-6.3499999999999996
 74
0
 49
12.6999999999999993
 74
0
 49
-6.3499999999999996
 74
0
 49
0.0
 74
0
 49
-6.3499999999999996
 74
0
  0
LTYPE
  5
41
100
AcDbSymbolTableRecord
100
AcDbLinetypeTableRecord
  2
BORDER2
 70
0
  3
Border (.5x) __.__.__.__.__.__.__.__.__.__.__.
 72
65
 73
6
 40
22.2250000000000014
 49
6.3499999999999996
 74
0
 49
-3.1749999999999998
 74
0
 49
6.3499999999999996
 74
0
 49
-3.1749999999999998
 74
0
 49
0.0
 74
0
 49
-3.1749999999999998
 74
0
  0
LTYPE
  5
42
100
AcDbSymbolTableRecord
100
AcDbLinetypeTableRecord
  2
BORDERX2
 70
0
  3
Border (2x) ____  ____  .  ____  ____  .  ___
 72
65
 73
6
 40
88.9000000000000057
 49
25.3999999999999986
 74
0
 49
-12.6999999999999993
 74
0
 49
25.3999999999999986
 74
0
 49
-12.6999999999999993
 74
0
 49
0.0
 74
0
 49
-12.6999999999999993
 74
0
  0
ENDTAB
  0
TABLE
  2
LAYER
  5
2
100
AcDbSymbolTable
 70
2
  0
LAYER
  5
10
100
AcDbSymbolTableRecord
100
AcDbLayerTableRecord
  2
0
 70
0
 62
7
  6
CONTINUOUS
290
1
390
F
  0
LAYER
  5
43
100
AcDbSymbolTableRecord
100
AcDbLayerTableRecord
  2
final
 70
0
 62
7
  6
CONTINUOUS
290
1
390
F
  0
ENDTAB
  0
TABLE
  2
STYLE
  5
3
100
AcDbSymbolTable
 70
1
  0
STYLE
  5
11
100
AcDbSymbolTableRecord
100
AcDbTextStyleTableRecord
  2
Standard
 70
0
 40
0.0
 41
0.75
 50
0.0
 71
0
 42
2.5
  3
txt
  4

  0
ENDTAB
  0
TABLE
  2
VIEW
  5
6
100
AcDbSymbolTable
 70
0
  0
ENDTAB
  0
TABLE
  2
UCS
  5
7
100
AcDbSymbolTable
 70
0
  0
ENDTAB
  0
TABLE
  2
APPID
  5
9
100
AcDbSymbolTable
 70
1
  0
APPID
  5
12
100
AcDbSymbolTableRecord
100
AcDbRegAppTableRecord
  2
ACAD
 70
0
  0
ENDTAB
  0
TABLE
  2
DIMSTYLE
  5
A
100
AcDbSymbolTable
 70
1
100
AcDbDimStyleTable
 71
0
  0
DIMSTYLE
105
27
100
AcDbSymbolTableRecord
100
AcDbDimStyleTableRecord
  2
Standard
 41
2.5
 42
0.625
 43
3.75
 44
1.25
 70
0
 73
0
 74
0
 77
1
 78
8
140
2.5
141
2.5
143
0.03937007874016
147
0.625
171
3
172
1
271
2
272
2
274
3
278
44
283
0
284
8
340
11
  0
ENDTAB
  0
TABLE
  2
BLOCK_RECORD
  5
1
100
AcDbSymbolTable
 70
1
  0
BLOCK_RECORD
  5
1F
100
AcDbSymbolTableRecord
100
AcDbBlockTableRecord
  2
*Model_Space
340
22
  0
BLOCK_RECORD
  5
1B
100
AcDbSymbolTableRecord
100
AcDbBlockTableRecord
  2
*Paper_Space
340
1E
  0
BLOCK_RECORD
  5
23
100
AcDbSymbolTableRecord
100
AcDbBlockTableRecord
  2
*Paper_Space0
340
26
  0
ENDTAB
  0
ENDSEC
  0
SECTION
  2
BLOCKS
  0
BLOCK
  5
20
100
AcDbEntity
  8
0
100
AcDbBlockBegin
  2
*Model_Space
 70
0
 10
0.0
 20
0.0
 30
0.0
  3
*Model_Space
  1

  0
ENDBLK
  5
21
100
AcDbEntity
  8
0
100
AcDbBlockEnd
  0
BLOCK
  5
1C
100
AcDbEntity
 67
1
  8
0
100
AcDbBlockBegin
  2
*Paper_Space
 70
0
 10
0.0
 20
0.0
 30
0.0
  3
*Paper_Space
  1

  0
ENDBLK
  5
1D
100
AcDbEntity
 67
1
  8
0
100
AcDbBlockEnd
  0
BLOCK
  5
24
100
AcDbEntity
  8
0
100
AcDbBlockBegin
  2
*Paper_Space0
 70
0
 10
0.0
 20
0.0
 30
0.0
  3
*Paper_Space0
  1

  0
ENDBLK
  5
25
100
AcDbEntity
  8
0
100
AcDbBlockEnd
  0
ENDSEC
  0
SECTION
  2
ENTITIES
  0
LWPOLYLINE
  5
44
  8
final
 62
5
370
-1
  6
ByLayer
100
AcDbEntity
100
AcDbPolyline
 90
104
 70
0
 10
-52.8750322084086051
 20
-19.868476940398125
 10
-52.7087752084086034
 20
40.099425059601856
 10
-52.487947208408599
 20
41.3383830596018527
 10
-52.0079132084086027
 20
42.2068340596018743
 10
-51.2107342084086028
 20
43.0722240596018651
 10
-50.1081202084086001
 20
43.8429420596018531
 10
-49.0558972084086022
 20
44.3438490596018653
 10
-48.1401082084086056
 20
44.52150505960185
 10
-42.8637292084085999
 20
44.4711090596018721
 10
-41.4058002084085999
 20
43.9259150596018628
 10
-40.1341782084085992
 20
42.7163920596018727
 10
-39.2509662084085988
 20
41.4508800596018716
 10
-38.8182692084086014
 20
40.1232700596018503
 10
-38.8762622084086047
 20
22.3119460596018655
 10
-37.8305302084086037
 20
21.2536100596018684
 10
-36.6588032084085995
 20
20.9764310596018504
 10
-35.184694208408601
 20
21.4803980596018675
 10
-32.1860862084086037
 20
22.7781150596018733
 10
-29.4278632084085956
 20
23.6068240596018768
 10
-25.9833212084085972
 20
24.0425780596018512
 10
-22.6423722084086023
 20
24.1522770596018574
 10
-19.5327942084086033
 20
23.9980320596018544
 10
-16.3878392084086073
 20
23.3963250596018781
 10
-13.1654992084086047
 20
22.1868030596018571
 10
-10.7375412084086008
 20
21.0187700596018772
 10
-8.2268702084085987
 20
19.2846610596018593
 10
-5.7340212084086062
 20
17.0674640596018605
 10
-3.6855672084085995
 20
14.0436530596018656
 10
-2.1825732084085985
 20
11.7284570596018511
 10
-0.9132192084086057
 20
9.0711400596018734
 10
0.0598717915913909
 20
8.3516060596018633
 10
1.0050957915914012
 20
9.4451840596018712
 10
1.4870527915913954
 20
11.3762070596018532
 10
2.400046791591393
 20
13.4600320596018719
 10
4.3012147915913914
 20
15.7603570596018585
 10
6.5312777915913927
 20
18.3935920596018718
 10
9.0133177915914047
 20
20.2582740596018596
 10
12.1757197915914048
 20
21.9213700596018555
 10
15.9680807915914045
 20
23.1686910596018549
 10
19.332067791591399
 20
23.8994460596018712
 10
26.4002247915913983
 20
23.962441059601872
 10
29.9532017915913968
 20
23.6600590596018776
 10
33.5817727915914048
 20
22.4127390596018756
 10
36.0386157915913969
 20
21.3544050596018735
 10
38.4954617915914099
 20
19.7921020596018593
 10
39.6545907915913887
 20
20.7244430596018674
 10
42.6028027915914009
 20
22.8033140596018598
 10
48.3984367915914078
 20
22.7781120596018525
 10
49.8473487915913864
 20
22.0599550596018616
 10
51.0190727915913982
 20
20.863031059601866
 10
52.0774067915914003
 20
19.1369370596018769
 10
52.2537957915914006
 20
17.877018059601852
 10
52.2145407915914035
 20
-40.6460239403981234
 10
51.736882791591384
 20
-42.3140589403981267
 10
50.9780887915913894
 20
-43.7729699403981272
 10
49.9932547915914114
 20
-44.9633469403981394
 10
48.6941797915913952
 20
-45.6465439403981463
 10
42.0749117915913899
 20
-45.6717469403981227
 10
40.37340779159139
 20
-44.6995079403981492
 10
39.1200337915914105
 20
-43.068901940398149
 10
38.0678787915914114
 20
-40.9228419403981434
 10
38.1984997915914022
 20
-23.6087309403981465
 10
37.2274207915913991
 20
-22.8781929403981223
 10
35.8732567915914018
 20
-22.3525629403981441
 10
32.1582097915914034
 20
-23.6978199403981478
 10
29.2717007915913996
 20
-24.6065389403981385
 10
25.0666567915913987
 20
-25.1856219403981356
 10
18.5906447915914015
 20
-25.1013479403981421
 10
16.2933957915913936
 20
-24.6465439403981463
 10
13.2456267915913912
 20
-23.881450940398139
 10
10.4033977915914022
 20
-22.5820039403981241
 10
8.204592791591395
 20
-21.2971359403981353
 10
5.0686297915913912
 20
-18.5951039403981326
 10
3.4714977915914034
 20
-16.6983079403981378
 10
1.9854087915913965
 20
-14.0887939403981477
 10
1.012803791591395
 20
-11.9970839403981415
 10
0.5859727915914021
 20
-10.5957329403981362
 10
-0.187335208408598
 20
-9.7046469403981348
 10
-1.1811242084086047
 20
-10.0905289403981442
 10
-1.696149208408599
 20
-10.5646029403981458
 10
-3.6350632084085959
 20
-14.6605739403981374
 10
-5.3558402084086083
 20
-17.0814729403981289
 10
-7.2569592084086025
 20
-18.9491149403981467
 10
-9.6298052084085981
 20
-20.7832859403981445
 10
-12.5015572084085989
 20
-22.254794940398142
 10
-15.8344122084086081
 20
-23.6613349403981488
 10
-19.5067052084086043
 20
-24.6150449403981497
 10
-22.780886208408603
 20
-24.9399059403981482
 10
-26.220467208408607
 20
-24.9379299403981349
 10
-30.9850582084086028
 20
-24.3090829403981274
 10
-33.6323702084086023
 20
-23.4203449403981381
 10
-35.8173402084086021
 20
-22.4594739403981407
 10
-37.6988202084086055
 20
-21.6617699403981305
 10
-38.5461782084086053
 20
-21.154218940398124
 10
-39.4061352084085996
 20
-20.6970669403981447
 10
-40.2034632084085999
 20
-21.3908879403981302
 10
-40.622820208408605
 20
-22.3870869403981487
 10
-41.7797192084086007
 20
-23.2128269403981449
 10
-42.8523812084086018
 20
-23.9086229403981463
 10
-48.9561932084085996
 20
-23.8499519403981424
 10
-49.9910542084085989
 20
-23.4226899403981292
 10
-51.6511842084086013
 20
-21.80036094039815
 10
-52.6990162084086009
 20
-20.6477829403981445
 10
-52.8750322084086051
 20
-19.868476940398125
  0
LWPOLYLINE
  5
45
  8
final
 62
5
370
-1
  6
ByLayer
100
AcDbEntity
100
AcDbPolyline
 90
27
 70
0
 10
13.1711397915914006
 20
-5.8291999403981265
 10
12.8608537915913956
 20
-3.7914649403981286
 10
12.9447237915914002
 20
2.5733460596018745
 10
13.4310297915913992
 20
5.5793660596018526
 10
14.3240907915914022
 20
8.5184360596018678
 10
15.4352877915913922
 20
10.6569640596018758
 10
18.3704037915914
 20
13.2817910596018578
 10
20.5002877915914041
 20
14.2378470596018758
 10
23.627444791591401
 20
14.6096470596018548
 10
26.4426847915914038
 20
14.1463790596018555
 10
28.5598147915913927
 20
12.791165059601866
 10
30.3333327915914026
 20
11.4243990596018534
 10
32.0021097915913941
 20
8.8038930596018758
 10
33.3271237915914043
 20
4.8752920596018612
 10
33.7799547915914076
 20
1.9067030596018526
 10
33.3523227915913907
 20
-5.6024139403981223
 10
32.4214637915913926
 20
-8.6088029403981352
 10
31.1133727915914022
 20
-11.3214559403981241
 10
28.870097791591391
 20
-13.6151289403981366
 10
26.7402207915913976
 20
-15.1287609403981378
 10
24.9915237915914048
 20
-15.7158589403981352
 10
21.7292017915913931
 20
-15.6823819403981304
 10
19.0496477915913971
 20
-14.7724009403981427
 10
17.2383317915913921
 20
-13.2504929403981464
 10
15.0663297915914001
 20
-10.7473309403981432
 10
13.7917097915914013
 20
-8.017753940398137
 10
13.1711397915914006
 20
-5.8291999403981265
  0
LWPOLYLINE
  5
46
  8
final
 62
5
370
-1
  6
ByLayer
100
AcDbEntity
100
AcDbPolyline
 90
27
 70
0
 10
-34.297883696571283
 20
-5.7412400451139263
 10
-34.6081696965712879
 20
-3.7035050451139284
 10
-34.5242996965712834
 20
2.6613059548860747
 10
-34.0379936965712844
 20
5.6673259548860528
 10
-33.1449326965712814
 20
8.606395954886068
 10
-32.0337356965712914
 20
10.744923954886076
 10
-29.0986196965712764
 20
13.369750954886058
 10
-26.9687356965712723
 20
14.325806954886076
 10
-23.8415786965712897
 20
14.6976069548860551
 10
-21.0263386965712726
 20
14.2343389548860557
 10
-18.909208696571298
 20
12.8791249548860662
 10
-17.1356906965712739
 20
11.5123589548860537
 10
-15.4669136965712966
 20
8.8918529548860761
 10
-14.1418996965712864
 20
4.9632519548860614
 10
-13.6890686965712831
 20
1.9946629548860528
 10
-14.1167006965713
 20
-5.5144540451139221
 10
-15.0475596965712981
 20
-8.520843045113935
 10
-16.3556506965712884
 20
-11.2334960451139239
 10
-18.5989256965712997
 20
-13.5271690451139364
 10
-20.728802696571293
 20
-15.0408010451139376
 10
-22.4774996965712859
 20
-15.627899045113935
 10
-25.7398216965712976
 20
-15.5944220451139302
 10
-28.4193756965712936
 20
-14.6844410451139424
 10
-30.2306916965712986
 20
-13.1625330451139462
 10
-32.4026936965712835
 20
-10.659371045113943
 10
-33.6773136965712823
 20
-7.9297940451139368
 10
-34.297883696571283
 20
-5.7412400451139263
  0
ENDSEC
  0
SECTION
  2
OBJECTS
  0
DICTIONARY
  5
C
100
AcDbDictionary
280
0
281
1
  3
ACAD_GROUP
350
D
  3
ACAD_LAYOUT
350
1A
  3
ACAD_MLINESTYLE
350
17
  3
ACAD_PLOTSETTINGS
350
19
  3
ACAD_PLOTSTYLENAME
350
E
  3
AcDbVariableDictionary
350
47
  0
DICTIONARY
  5
D
100
AcDbDictionary
280
0
281
1
  0
ACDBDICTIONARYWDFLT
  5
E
100
AcDbDictionary
281
1
  3
Normal
350
F
100
AcDbDictionaryWithDefault
340
F
  0
ACDBPLACEHOLDER
  5
F
  0
DICTIONARY
  5
17
100
AcDbDictionary
280
0
281
1
  3
Standard
350
18
  0
MLINESTYLE
  5
18
100
AcDbMlineStyle
  2
STANDARD
 70
0
  3

 62
256
 51
90.0
 52
90.0
 71
2
 49
0.5
 62
256
  6
BYLAYER
 49
-0.5
 62
256
  6
BYLAYER
  0
DICTIONARY
  5
19
100
AcDbDictionary
280
0
281
1
  0
DICTIONARY
  5
1A
100
AcDbDictionary
281
1
  3
Layout1
350
1E
  3
Layout2
350
26
  3
Model
350
22
  0
LAYOUT
  5
1E
100
AcDbPlotSettings
  1

  2
C:\Program Files\AutoCAD 2002\plotters\DWF ePlot (optimized for plotting).pc3
  4

  6

 40
0.0
 41
0.0
 42
0.0
 43
0.0
 44
0.0
 45
0.0
 46
0.0
 47
0.0
 48
0.0
 49
0.0
140
0.0
141
0.0
142
1.0
143
1.0
 70
688
 72
0
 73
0
 74
5
  7

 75
16
147
1.0
148
0.0
149
0.0
100
AcDbLayout
  1
Layout1
 70
1
 71
1
 10
0.0
 20
0.0
 11
420.0
 21
297.0
 12
0.0
 22
0.0
 32
0.0
 14
100000000000000000000.0
 24
100000000000000000000.0
 34
100000000000000000000.0
 15
-100000000000000000000.0
 25
-100000000000000000000.0
 35
-100000000000000000000.0
146
0.0
 13
0.0
 23
0.0
 33
0.0
 16
1.0
 26
0.0
 36
0.0
 17
0.0
 27
1.0
 37
0.0
 76
0
330
1B
  0
LAYOUT
  5
22
100
AcDbPlotSettings
  1

  2
C:\Program Files\AutoCAD 2002\plotters\DWF ePlot (optimized for plotting).pc3
  4

  6

 40
0.0
 41
0.0
 42
0.0
 43
0.0
 44
0.0
 45
0.0
 46
0.0
 47
0.0
 48
0.0
 49
0.0
140
0.0
141
0.0
142
1.0
143
1.0
 70
1712
 72
0
 73
0
 74
0
  7

 75
0
147
1.0
148
0.0
149
0.0
100
AcDbLayout
  1
Model
 70
1
 71
0
 10
0.0
 20
0.0
 11
12.0
 21
9.0
 12
0.0
 22
0.0
 32
0.0
 14
0.0
 24
0.0
 34
0.0
 15
0.0
 25
0.0
 35
0.0
146
0.0
 13
0.0
 23
0.0
 33
0.0
 16
1.0
 26
0.0
 36
0.0
 17
0.0
 27
1.0
 37
0.0
 76
0
330
1F
  0
LAYOUT
  5
26
100
AcDbPlotSettings
  1

  2
C:\Program Files\AutoCAD 2002\plotters\DWF ePlot (optimized for plotting).pc3
  4

  6

 40
0.0
 41
0.0
 42
0.0
 43
0.0
 44
0.0
 45
0.0
 46
0.0
 47
0.0
 48
0.0
 49
0.0
140
0.0
141
0.0
142
1.0
143
1.0
 70
688
 72
0
 73
0
 74
5
  7

 75
16
147
1.0
148
0.0
149
0.0
100
AcDbLayout
  1
Layout2
 70
1
 71
2
 10
0.0
 20
0.0
 11
12.0
 21
9.0
 12
0.0
 22
0.0
 32
0.0
 14
0.0
 24
0.0
 34
0.0
 15
0.0
 25
0.0
 35
0.0
146
0.0
 13
0.0
 23
0.0
 33
0.0
 16
1.0
 26
0.0
 36
0.0
 17
0.0
 27
1.0
 37
0.0
 76
0
330
23
  0
DICTIONARY
  5
47
100
AcDbDictionary
281
1
  3
DIMASSOC
350
49
  3
HIDETEXT
350
48
  0
DICTIONARYVAR
  5
48
100
DictionaryVariables
280
0
  1
2
  0
DICTIONARYVAR
  5
49
100
DictionaryVariables
280
0
  1
1
  0
ENDSEC
  0
EOF
