solid OpenSCAD_Model
  facet normal 0 0 -1
    outer loop
      vertex 1.46783 4.51752 -62.8733
      vertex -3.5 6.06218 -62.8733
      vertex 3.5 6.06218 -62.8733
    endloop
  endfacet
  facet normal 0 0 -1
    outer loop
      vertex 4.51752 1.46783 -62.8733
      vertex 3.5 6.06218 -62.8733
      vertex 7 0 -62.8733
    endloop
  endfacet
  facet normal 0 0 -1
    outer loop
      vertex 2.79198 -3.84283 -62.8733
      vertex 7 0 -62.8733
      vertex 3.5 -6.06218 -62.8733
    endloop
  endfacet
  facet normal 0 0 -1
    outer loop
      vertex -7 0 -62.8733
      vertex -4.75 0 -62.8733
      vertex -4.51752 -1.46783 -62.8733
    endloop
  endfacet
  facet normal 0 0 -1
    outer loop
      vertex -7 0 -62.8733
      vertex -4.51752 -1.46783 -62.8733
      vertex -3.5 -6.06218 -62.8733
    endloop
  endfacet
  facet normal 0 0 -1
    outer loop
      vertex -4.51752 1.46783 -62.8733
      vertex -3.5 6.06218 -62.8733
      vertex -3.84283 2.79198 -62.8733
    endloop
  endfacet
  facet normal 0 0 -1
    outer loop
      vertex -2.79198 -3.84283 -62.8733
      vertex -3.5 -6.06218 -62.8733
      vertex -3.84283 -2.79198 -62.8733
    endloop
  endfacet
  facet normal 0 0 -1
    outer loop
      vertex -1.46783 -4.51752 -62.8733
      vertex -3.5 -6.06218 -62.8733
      vertex -2.79198 -3.84283 -62.8733
    endloop
  endfacet
  facet normal 0 0 -1
    outer loop
      vertex 0 -4.75 -62.8733
      vertex -3.5 -6.06218 -62.8733
      vertex -1.46783 -4.51752 -62.8733
    endloop
  endfacet
  facet normal 0 0 -1
    outer loop
      vertex 4.75 0 -62.8733
      vertex 7 0 -62.8733
      vertex 4.51752 -1.46783 -62.8733
    endloop
  endfacet
  facet normal 0 0 -1
    outer loop
      vertex -3.5 -6.06218 -62.8733
      vertex 0 -4.75 -62.8733
      vertex 3.5 -6.06218 -62.8733
    endloop
  endfacet
  facet normal 0 0 -1
    outer loop
      vertex 0 -4.75 -62.8733
      vertex 1.46783 -4.51752 -62.8733
      vertex 3.5 -6.06218 -62.8733
    endloop
  endfacet
  facet normal 0 0 -1
    outer loop
      vertex 3.84283 -2.79198 -62.8733
      vertex 7 0 -62.8733
      vertex 2.79198 -3.84283 -62.8733
    endloop
  endfacet
  facet normal 0 0 -1
    outer loop
      vertex 1.46783 -4.51752 -62.8733
      vertex 2.79198 -3.84283 -62.8733
      vertex 3.5 -6.06218 -62.8733
    endloop
  endfacet
  facet normal 0 0 -1
    outer loop
      vertex 4.51752 -1.46783 -62.8733
      vertex 7 0 -62.8733
      vertex 3.84283 -2.79198 -62.8733
    endloop
  endfacet
  facet normal 0 0 -1
    outer loop
      vertex 1.46783 4.51752 -62.8733
      vertex 3.5 6.06218 -62.8733
      vertex 2.79198 3.84283 -62.8733
    endloop
  endfacet
  facet normal 0 0 -1
    outer loop
      vertex 3.84283 2.79198 -62.8733
      vertex 3.5 6.06218 -62.8733
      vertex 4.51752 1.46783 -62.8733
    endloop
  endfacet
  facet normal 0 0 -1
    outer loop
      vertex 4.75 0 -62.8733
      vertex 4.51752 1.46783 -62.8733
      vertex 7 0 -62.8733
    endloop
  endfacet
  facet normal 0 0 -1
    outer loop
      vertex 2.79198 3.84283 -62.8733
      vertex 3.5 6.06218 -62.8733
      vertex 3.84283 2.79198 -62.8733
    endloop
  endfacet
  facet normal 0 0 -1
    outer loop
      vertex 0 4.75 -62.8733
      vertex -3.5 6.06218 -62.8733
      vertex 1.46783 4.51752 -62.8733
    endloop
  endfacet
  facet normal 0 0 -1
    outer loop
      vertex -3.84283 2.79198 -62.8733
      vertex -3.5 6.06218 -62.8733
      vertex -2.79198 3.84283 -62.8733
    endloop
  endfacet
  facet normal 0 0 -1
    outer loop
      vertex -1.46783 4.51752 -62.8733
      vertex -3.5 6.06218 -62.8733
      vertex 0 4.75 -62.8733
    endloop
  endfacet
  facet normal 0 0 -1
    outer loop
      vertex -2.79198 3.84283 -62.8733
      vertex -3.5 6.06218 -62.8733
      vertex -1.46783 4.51752 -62.8733
    endloop
  endfacet
  facet normal 0 0 -1
    outer loop
      vertex -7 0 -62.8733
      vertex -3.5 6.06218 -62.8733
      vertex -4.51752 1.46783 -62.8733
    endloop
  endfacet
  facet normal 0 0 -1
    outer loop
      vertex -7 0 -62.8733
      vertex -4.51752 1.46783 -62.8733
      vertex -4.75 0 -62.8733
    endloop
  endfacet
  facet normal 0 0 -1
    outer loop
      vertex -3.84283 -2.79198 -62.8733
      vertex -3.5 -6.06218 -62.8733
      vertex -4.51752 -1.46783 -62.8733
    endloop
  endfacet
  facet normal -0.866025 0.5 0
    outer loop
      vertex -7 0 -62.8733
      vertex -7 0 62.8733
      vertex -3.5 6.06218 -62.8733
    endloop
  endfacet
  facet normal -0.866025 0.5 0
    outer loop
      vertex -3.5 6.06218 -62.8733
      vertex -7 0 62.8733
      vertex -3.5 6.06218 62.8733
    endloop
  endfacet
  facet normal -0.866025 -0.5 0
    outer loop
      vertex -7 0 -62.8733
      vertex -3.5 -6.06218 -62.8733
      vertex -7 0 62.8733
    endloop
  endfacet
  facet normal -0.866025 -0.5 0
    outer loop
      vertex -7 0 62.8733
      vertex -3.5 -6.06218 -62.8733
      vertex -3.5 -6.06218 62.8733
    endloop
  endfacet
  facet normal 0 -1 0
    outer loop
      vertex -3.5 -6.06218 62.8733
      vertex -3.5 -6.06218 -62.8733
      vertex 3.5 -6.06218 -62.8733
    endloop
  endfacet
  facet normal 0 -1 0
    outer loop
      vertex 3.5 -6.06218 62.8733
      vertex -3.5 -6.06218 62.8733
      vertex 3.5 -6.06218 -62.8733
    endloop
  endfacet
  facet normal 0.866025 -0.5 0
    outer loop
      vertex 3.5 -6.06218 62.8733
      vertex 3.5 -6.06218 -62.8733
      vertex 7 0 -62.8733
    endloop
  endfacet
  facet normal 0.866025 -0.5 0
    outer loop
      vertex 7 0 62.8733
      vertex 3.5 -6.06218 62.8733
      vertex 7 0 -62.8733
    endloop
  endfacet
  facet normal 0.866025 0.5 0
    outer loop
      vertex 7 0 -62.8733
      vertex 3.5 6.06218 -62.8733
      vertex 3.5 6.06218 62.8733
    endloop
  endfacet
  facet normal 0.866025 0.5 0
    outer loop
      vertex 7 0 62.8733
      vertex 7 0 -62.8733
      vertex 3.5 6.06218 62.8733
    endloop
  endfacet
  facet normal 0 1 0
    outer loop
      vertex -3.5 6.06218 -62.8733
      vertex -3.5 6.06218 62.8733
      vertex 3.5 6.06218 -62.8733
    endloop
  endfacet
  facet normal 0 1 0
    outer loop
      vertex 3.5 6.06218 -62.8733
      vertex -3.5 6.06218 62.8733
      vertex 3.5 6.06218 62.8733
    endloop
  endfacet
  facet normal 0.987688 -0.156435 0
    outer loop
      vertex -4.51752 1.46783 -62.8733
      vertex -4.51752 1.46783 67.1267
      vertex -4.75 0 67.1267
    endloop
  endfacet
  facet normal 0.987688 -0.156435 0
    outer loop
      vertex -4.75 0 -62.8733
      vertex -4.51752 1.46783 -62.8733
      vertex -4.75 0 67.1267
    endloop
  endfacet
  facet normal 0.987688 0.156435 0
    outer loop
      vertex -4.75 0 67.1267
      vertex -4.51752 -1.46783 67.1267
      vertex -4.51752 -1.46783 -62.8733
    endloop
  endfacet
  facet normal 0.987688 0.156435 0
    outer loop
      vertex -4.75 0 -62.8733
      vertex -4.75 0 67.1267
      vertex -4.51752 -1.46783 -62.8733
    endloop
  endfacet
  facet normal 0.891007 -0.45399 0
    outer loop
      vertex -3.84283 2.79198 -62.8733
      vertex -3.84283 2.79198 67.1267
      vertex -4.51752 1.46783 67.1267
    endloop
  endfacet
  facet normal 0.891007 -0.45399 0
    outer loop
      vertex -4.51752 1.46783 -62.8733
      vertex -3.84283 2.79198 -62.8733
      vertex -4.51752 1.46783 67.1267
    endloop
  endfacet
  facet normal 0.707107 -0.707107 0
    outer loop
      vertex -2.79198 3.84283 -62.8733
      vertex -2.79198 3.84283 67.1267
      vertex -3.84283 2.79198 67.1267
    endloop
  endfacet
  facet normal 0.707107 -0.707107 0
    outer loop
      vertex -3.84283 2.79198 -62.8733
      vertex -2.79198 3.84283 -62.8733
      vertex -3.84283 2.79198 67.1267
    endloop
  endfacet
  facet normal 0.45399 -0.891007 0
    outer loop
      vertex -1.46783 4.51752 -62.8733
      vertex -1.46783 4.51752 67.1267
      vertex -2.79198 3.84283 67.1267
    endloop
  endfacet
  facet normal 0.45399 -0.891007 0
    outer loop
      vertex -2.79198 3.84283 -62.8733
      vertex -1.46783 4.51752 -62.8733
      vertex -2.79198 3.84283 67.1267
    endloop
  endfacet
  facet normal 0.156435 -0.987688 0
    outer loop
      vertex 0 4.75 -62.8733
      vertex 0 4.75 67.1267
      vertex -1.46783 4.51752 67.1267
    endloop
  endfacet
  facet normal 0.156435 -0.987688 0
    outer loop
      vertex -1.46783 4.51752 -62.8733
      vertex 0 4.75 -62.8733
      vertex -1.46783 4.51752 67.1267
    endloop
  endfacet
  facet normal -0.156435 -0.987688 0
    outer loop
      vertex 1.46783 4.51752 -62.8733
      vertex 1.46783 4.51752 67.1267
      vertex 0 4.75 67.1267
    endloop
  endfacet
  facet normal -0.156435 -0.987688 0
    outer loop
      vertex 0 4.75 -62.8733
      vertex 1.46783 4.51752 -62.8733
      vertex 0 4.75 67.1267
    endloop
  endfacet
  facet normal -0.45399 -0.891007 0
    outer loop
      vertex 2.79198 3.84283 -62.8733
      vertex 2.79198 3.84283 67.1267
      vertex 1.46783 4.51752 67.1267
    endloop
  endfacet
  facet normal -0.45399 -0.891007 0
    outer loop
      vertex 1.46783 4.51752 -62.8733
      vertex 2.79198 3.84283 -62.8733
      vertex 1.46783 4.51752 67.1267
    endloop
  endfacet
  facet normal -0.707107 -0.707107 0
    outer loop
      vertex 3.84283 2.79198 -62.8733
      vertex 3.84283 2.79198 67.1267
      vertex 2.79198 3.84283 67.1267
    endloop
  endfacet
  facet normal -0.707107 -0.707107 0
    outer loop
      vertex 2.79198 3.84283 -62.8733
      vertex 3.84283 2.79198 -62.8733
      vertex 2.79198 3.84283 67.1267
    endloop
  endfacet
  facet normal -0.891007 -0.45399 0
    outer loop
      vertex 4.51752 1.46783 67.1267
      vertex 3.84283 2.79198 67.1267
      vertex 4.51752 1.46783 -62.8733
    endloop
  endfacet
  facet normal -0.891007 -0.45399 0
    outer loop
      vertex 4.51752 1.46783 -62.8733
      vertex 3.84283 2.79198 67.1267
      vertex 3.84283 2.79198 -62.8733
    endloop
  endfacet
  facet normal -0.987688 -0.156435 0
    outer loop
      vertex 4.75 0 67.1267
      vertex 4.51752 1.46783 67.1267
      vertex 4.75 0 -62.8733
    endloop
  endfacet
  facet normal -0.987688 -0.156435 0
    outer loop
      vertex 4.75 0 -62.8733
      vertex 4.51752 1.46783 67.1267
      vertex 4.51752 1.46783 -62.8733
    endloop
  endfacet
  facet normal -0.987688 0.156435 0
    outer loop
      vertex 4.75 0 67.1267
      vertex 4.75 0 -62.8733
      vertex 4.51752 -1.46783 67.1267
    endloop
  endfacet
  facet normal -0.987688 0.156435 0
    outer loop
      vertex 4.51752 -1.46783 67.1267
      vertex 4.75 0 -62.8733
      vertex 4.51752 -1.46783 -62.8733
    endloop
  endfacet
  facet normal -0.891007 0.45399 0
    outer loop
      vertex 4.51752 -1.46783 67.1267
      vertex 4.51752 -1.46783 -62.8733
      vertex 3.84283 -2.79198 67.1267
    endloop
  endfacet
  facet normal -0.891007 0.45399 0
    outer loop
      vertex 3.84283 -2.79198 67.1267
      vertex 4.51752 -1.46783 -62.8733
      vertex 3.84283 -2.79198 -62.8733
    endloop
  endfacet
  facet normal -0.707107 0.707107 0
    outer loop
      vertex 3.84283 -2.79198 67.1267
      vertex 3.84283 -2.79198 -62.8733
      vertex 2.79198 -3.84283 67.1267
    endloop
  endfacet
  facet normal -0.707107 0.707107 0
    outer loop
      vertex 2.79198 -3.84283 67.1267
      vertex 3.84283 -2.79198 -62.8733
      vertex 2.79198 -3.84283 -62.8733
    endloop
  endfacet
  facet normal -0.45399 0.891007 0
    outer loop
      vertex 2.79198 -3.84283 67.1267
      vertex 2.79198 -3.84283 -62.8733
      vertex 1.46783 -4.51752 67.1267
    endloop
  endfacet
  facet normal -0.45399 0.891007 0
    outer loop
      vertex 1.46783 -4.51752 67.1267
      vertex 2.79198 -3.84283 -62.8733
      vertex 1.46783 -4.51752 -62.8733
    endloop
  endfacet
  facet normal -0.156435 0.987688 0
    outer loop
      vertex 1.46783 -4.51752 67.1267
      vertex 1.46783 -4.51752 -62.8733
      vertex 0 -4.75 67.1267
    endloop
  endfacet
  facet normal -0.156435 0.987688 0
    outer loop
      vertex 0 -4.75 67.1267
      vertex 1.46783 -4.51752 -62.8733
      vertex 0 -4.75 -62.8733
    endloop
  endfacet
  facet normal 0.156435 0.987688 0
    outer loop
      vertex 0 -4.75 67.1267
      vertex 0 -4.75 -62.8733
      vertex -1.46783 -4.51752 67.1267
    endloop
  endfacet
  facet normal 0.156435 0.987688 0
    outer loop
      vertex -1.46783 -4.51752 67.1267
      vertex 0 -4.75 -62.8733
      vertex -1.46783 -4.51752 -62.8733
    endloop
  endfacet
  facet normal 0.45399 0.891007 0
    outer loop
      vertex -1.46783 -4.51752 67.1267
      vertex -1.46783 -4.51752 -62.8733
      vertex -2.79198 -3.84283 67.1267
    endloop
  endfacet
  facet normal 0.45399 0.891007 0
    outer loop
      vertex -2.79198 -3.84283 67.1267
      vertex -1.46783 -4.51752 -62.8733
      vertex -2.79198 -3.84283 -62.8733
    endloop
  endfacet
  facet normal 0.707107 0.707107 0
    outer loop
      vertex -2.79198 -3.84283 67.1267
      vertex -2.79198 -3.84283 -62.8733
      vertex -3.84283 -2.79198 67.1267
    endloop
  endfacet
  facet normal 0.707107 0.707107 0
    outer loop
      vertex -3.84283 -2.79198 67.1267
      vertex -2.79198 -3.84283 -62.8733
      vertex -3.84283 -2.79198 -62.8733
    endloop
  endfacet
  facet normal 0.891007 0.45399 0
    outer loop
      vertex -4.51752 -1.46783 67.1267
      vertex -3.84283 -2.79198 67.1267
      vertex -3.84283 -2.79198 -62.8733
    endloop
  endfacet
  facet normal 0.891007 0.45399 0
    outer loop
      vertex -4.51752 -1.46783 -62.8733
      vertex -4.51752 -1.46783 67.1267
      vertex -3.84283 -2.79198 -62.8733
    endloop
  endfacet
  facet normal 0 0 1
    outer loop
      vertex -3.5 6.06218 62.8733
      vertex -7 0 62.8733
      vertex -7 5.65117e-16 62.8733
    endloop
  endfacet
  facet normal 0 0 1
    outer loop
      vertex 7 0 62.8733
      vertex 7 -5.65117e-16 62.8733
      vertex 3.5 -6.06218 62.8733
    endloop
  endfacet
  facet normal 0 0 1
    outer loop
      vertex -4.51752 -1.46783 67.1267
      vertex -6.25 0 67.1267
      vertex -3.125 -5.41266 67.1267
    endloop
  endfacet
  facet normal 0 0 1
    outer loop
      vertex -3.84283 -2.79198 67.1267
      vertex -4.51752 -1.46783 67.1267
      vertex -3.125 -5.41266 67.1267
    endloop
  endfacet
  facet normal 0 0 1
    outer loop
      vertex -4.75 0 67.1267
      vertex -6.25 0 67.1267
      vertex -4.51752 -1.46783 67.1267
    endloop
  endfacet
  facet normal 0 0 1
    outer loop
      vertex -4.51752 1.46783 67.1267
      vertex -6.25 0 67.1267
      vertex -4.75 0 67.1267
    endloop
  endfacet
  facet normal 0 0 1
    outer loop
      vertex -3.125 5.41266 67.1267
      vertex -6.25 0 67.1267
      vertex -4.51752 1.46783 67.1267
    endloop
  endfacet
  facet normal 0 0 1
    outer loop
      vertex 4.51752 -1.46783 67.1267
      vertex 3.84283 -2.79198 67.1267
      vertex 3.125 -5.41266 67.1267
    endloop
  endfacet
  facet normal 0 0 1
    outer loop
      vertex 3.125 5.41266 67.1267
      vertex -3.125 5.41266 67.1267
      vertex -1.46783 4.51752 67.1267
    endloop
  endfacet
  facet normal 0 0 1
    outer loop
      vertex 2.79198 -3.84283 67.1267
      vertex 1.46783 -4.51752 67.1267
      vertex 3.125 -5.41266 67.1267
    endloop
  endfacet
  facet normal 0 0 1
    outer loop
      vertex 3.125 5.41266 67.1267
      vertex -1.46783 4.51752 67.1267
      vertex 0 4.75 67.1267
    endloop
  endfacet
  facet normal 0 0 1
    outer loop
      vertex 3.125 5.41266 67.1267
      vertex 0 4.75 67.1267
      vertex 1.46783 4.51752 67.1267
    endloop
  endfacet
  facet normal 0 0 1
    outer loop
      vertex 4.51752 1.46783 67.1267
      vertex 4.75 0 67.1267
      vertex 6.25 0 67.1267
    endloop
  endfacet
  facet normal 0 0 1
    outer loop
      vertex 3.125 5.41266 67.1267
      vertex 1.46783 4.51752 67.1267
      vertex 2.79198 3.84283 67.1267
    endloop
  endfacet
  facet normal 0 0 1
    outer loop
      vertex 3.125 5.41266 67.1267
      vertex 3.84283 2.79198 67.1267
      vertex 6.25 0 67.1267
    endloop
  endfacet
  facet normal 0 0 1
    outer loop
      vertex 3.125 5.41266 67.1267
      vertex 2.79198 3.84283 67.1267
      vertex 3.84283 2.79198 67.1267
    endloop
  endfacet
  facet normal 0 0 1
    outer loop
      vertex 6.25 0 67.1267
      vertex 4.51752 -1.46783 67.1267
      vertex 3.125 -5.41266 67.1267
    endloop
  endfacet
  facet normal 0 0 1
    outer loop
      vertex 6.25 0 67.1267
      vertex 4.75 0 67.1267
      vertex 4.51752 -1.46783 67.1267
    endloop
  endfacet
  facet normal 0 0 1
    outer loop
      vertex 3.84283 2.79198 67.1267
      vertex 4.51752 1.46783 67.1267
      vertex 6.25 0 67.1267
    endloop
  endfacet
  facet normal 0 0 1
    outer loop
      vertex 3.84283 -2.79198 67.1267
      vertex 2.79198 -3.84283 67.1267
      vertex 3.125 -5.41266 67.1267
    endloop
  endfacet
  facet normal 0 0 1
    outer loop
      vertex 3.125 -5.41266 67.1267
      vertex 1.46783 -4.51752 67.1267
      vertex -3.125 -5.41266 67.1267
    endloop
  endfacet
  facet normal 0 0 1
    outer loop
      vertex 1.46783 -4.51752 67.1267
      vertex 0 -4.75 67.1267
      vertex -3.125 -5.41266 67.1267
    endloop
  endfacet
  facet normal 0 0 1
    outer loop
      vertex 0 -4.75 67.1267
      vertex -1.46783 -4.51752 67.1267
      vertex -3.125 -5.41266 67.1267
    endloop
  endfacet
  facet normal 0 0 1
    outer loop
      vertex -1.46783 -4.51752 67.1267
      vertex -2.79198 -3.84283 67.1267
      vertex -3.125 -5.41266 67.1267
    endloop
  endfacet
  facet normal 0 0 1
    outer loop
      vertex -4.51752 1.46783 67.1267
      vertex -3.84283 2.79198 67.1267
      vertex -3.125 5.41266 67.1267
    endloop
  endfacet
  facet normal 0 0 1
    outer loop
      vertex -3.84283 2.79198 67.1267
      vertex -2.79198 3.84283 67.1267
      vertex -3.125 5.41266 67.1267
    endloop
  endfacet
  facet normal 0 0 1
    outer loop
      vertex -2.79198 -3.84283 67.1267
      vertex -3.84283 -2.79198 67.1267
      vertex -3.125 -5.41266 67.1267
    endloop
  endfacet
  facet normal 0 0 1
    outer loop
      vertex -2.79198 3.84283 67.1267
      vertex -1.46783 4.51752 67.1267
      vertex -3.125 5.41266 67.1267
    endloop
  endfacet
  facet normal -0.856101 0.49427 0.150954
    outer loop
      vertex -7 0 62.8733
      vertex -6.25 0 67.1267
      vertex -7 5.65117e-16 62.8733
    endloop
  endfacet
  facet normal -0.856101 0.49427 0.150954
    outer loop
      vertex -7 5.65117e-16 62.8733
      vertex -6.25 0 67.1267
      vertex -3.125 5.41266 67.1267
    endloop
  endfacet
  facet normal -0.856101 -0.49427 0.150954
    outer loop
      vertex -6.25 0 67.1267
      vertex -7 0 62.8733
      vertex -3.5 -6.06218 62.8733
    endloop
  endfacet
  facet normal -0.856101 -0.49427 0.150954
    outer loop
      vertex -6.25 0 67.1267
      vertex -3.5 -6.06218 62.8733
      vertex -3.125 -5.41266 67.1267
    endloop
  endfacet
  facet normal 0 -0.988541 0.150954
    outer loop
      vertex -3.125 -5.41266 67.1267
      vertex -3.5 -6.06218 62.8733
      vertex 3.5 -6.06218 62.8733
    endloop
  endfacet
  facet normal 0 -0.988541 0.150954
    outer loop
      vertex 3.125 -5.41266 67.1267
      vertex -3.125 -5.41266 67.1267
      vertex 3.5 -6.06218 62.8733
    endloop
  endfacet
  facet normal 0.856101 -0.49427 0.150954
    outer loop
      vertex 7 -5.65117e-16 62.8733
      vertex 3.125 -5.41266 67.1267
      vertex 3.5 -6.06218 62.8733
    endloop
  endfacet
  facet normal 0.856101 -0.49427 0.150954
    outer loop
      vertex 6.25 0 67.1267
      vertex 3.125 -5.41266 67.1267
      vertex 7 -5.65117e-16 62.8733
    endloop
  endfacet
  facet normal 0.856101 -0.49427 0.150954
    outer loop
      vertex 7 0 62.8733
      vertex 6.25 0 67.1267
      vertex 7 -5.65117e-16 62.8733
    endloop
  endfacet
  facet normal 0.856101 0.49427 0.150954
    outer loop
      vertex 7 0 62.8733
      vertex 3.5 6.06218 62.8733
      vertex 6.25 0 67.1267
    endloop
  endfacet
  facet normal 0.856101 0.49427 0.150954
    outer loop
      vertex 3.5 6.06218 62.8733
      vertex 3.125 5.41266 67.1267
      vertex 6.25 0 67.1267
    endloop
  endfacet
  facet normal 0 0.988541 0.150954
    outer loop
      vertex -3.5 6.06218 62.8733
      vertex -3.125 5.41266 67.1267
      vertex 3.5 6.06218 62.8733
    endloop
  endfacet
  facet normal 0 0.988541 0.150954
    outer loop
      vertex 3.5 6.06218 62.8733
      vertex -3.125 5.41266 67.1267
      vertex 3.125 5.41266 67.1267
    endloop
  endfacet
  facet normal -0.856101 0.49427 0.150954
    outer loop
      vertex -3.5 6.06218 62.8733
      vertex -7 5.65117e-16 62.8733
      vertex -3.125 5.41266 67.1267
    endloop
  endfacet
endsolid OpenSCAD_Model
