solid OpenSCAD_Model
  facet normal 0 0 -1
    outer loop
      vertex -2.575 -4.46003 -17
      vertex -3.575 -6.19208 -17
      vertex -5.15 0 -17
    endloop
  endfacet
  facet normal 0 0 -1
    outer loop
      vertex -2.575 4.46003 -17
      vertex -3.575 6.19208 -17
      vertex 3.575 6.19208 -17
    endloop
  endfacet
  facet normal 0 0 -1
    outer loop
      vertex 5.15 0 -17
      vertex 3.575 6.19208 -17
      vertex 7.15 0 -17
    endloop
  endfacet
  facet normal 0 0 -1
    outer loop
      vertex 2.575 -4.46003 -17
      vertex 7.15 0 -17
      vertex 3.575 -6.19208 -17
    endloop
  endfacet
  facet normal 0 0 -1
    outer loop
      vertex -7.15 0 -17
      vertex -3.575 6.19208 -17
      vertex -5.15 0 -17
    endloop
  endfacet
  facet normal 0 0 -1
    outer loop
      vertex -7.15 0 -17
      vertex -5.15 0 -17
      vertex -3.575 -6.19208 -17
    endloop
  endfacet
  facet normal 0 0 -1
    outer loop
      vertex 5.15 0 -17
      vertex 7.15 0 -17
      vertex 2.575 -4.46003 -17
    endloop
  endfacet
  facet normal 0 0 -1
    outer loop
      vertex -3.575 -6.19208 -17
      vertex 2.575 -4.46003 -17
      vertex 3.575 -6.19208 -17
    endloop
  endfacet
  facet normal 0 0 -1
    outer loop
      vertex 2.575 4.46003 -17
      vertex 3.575 6.19208 -17
      vertex 5.15 0 -17
    endloop
  endfacet
  facet normal 0 0 -1
    outer loop
      vertex -5.15 0 -17
      vertex -3.575 6.19208 -17
      vertex -2.575 4.46003 -17
    endloop
  endfacet
  facet normal 0 0 -1
    outer loop
      vertex 2.575 -4.46003 -17
      vertex -3.575 -6.19208 -17
      vertex -2.575 -4.46003 -17
    endloop
  endfacet
  facet normal 0 0 -1
    outer loop
      vertex -2.575 4.46003 -17
      vertex 3.575 6.19208 -17
      vertex 2.575 4.46003 -17
    endloop
  endfacet
  facet normal -0.866025 0.5 0
    outer loop
      vertex -7.15 0 -17
      vertex -7.15 0 -16
      vertex -3.575 6.19208 -17
    endloop
  endfacet
  facet normal -0.866025 0.5 0
    outer loop
      vertex -3.575 6.19208 -17
      vertex -7.15 0 -16
      vertex -3.575 6.19208 -16
    endloop
  endfacet
  facet normal -0.866025 -0.5 0
    outer loop
      vertex -7.15 0 -17
      vertex -3.575 -6.19208 -17
      vertex -7.15 0 -16
    endloop
  endfacet
  facet normal -0.866025 -0.5 0
    outer loop
      vertex -7.15 0 -16
      vertex -3.575 -6.19208 -17
      vertex -3.575 -6.19208 -16
    endloop
  endfacet
  facet normal 0 -1 0
    outer loop
      vertex -3.575 -6.19208 -16
      vertex -3.575 -6.19208 -17
      vertex 3.575 -6.19208 -17
    endloop
  endfacet
  facet normal 0 -1 0
    outer loop
      vertex 3.575 -6.19208 -16
      vertex -3.575 -6.19208 -16
      vertex 3.575 -6.19208 -17
    endloop
  endfacet
  facet normal 0.866025 -0.5 0
    outer loop
      vertex 3.575 -6.19208 -16
      vertex 3.575 -6.19208 -17
      vertex 7.15 0 -17
    endloop
  endfacet
  facet normal 0.866025 -0.5 0
    outer loop
      vertex 7.15 0 -16
      vertex 3.575 -6.19208 -16
      vertex 7.15 0 -17
    endloop
  endfacet
  facet normal 0.866025 0.5 0
    outer loop
      vertex 7.15 0 -17
      vertex 3.575 6.19208 -17
      vertex 3.575 6.19208 -16
    endloop
  endfacet
  facet normal 0.866025 0.5 0
    outer loop
      vertex 7.15 0 -16
      vertex 7.15 0 -17
      vertex 3.575 6.19208 -16
    endloop
  endfacet
  facet normal 0 1 0
    outer loop
      vertex -3.575 6.19208 -17
      vertex -3.575 6.19208 -16
      vertex 3.575 6.19208 -17
    endloop
  endfacet
  facet normal 0 1 0
    outer loop
      vertex 3.575 6.19208 -17
      vertex -3.575 6.19208 -16
      vertex 3.575 6.19208 -16
    endloop
  endfacet
  facet normal 0.866025 -0.5 0
    outer loop
      vertex -2.575 4.46003 -17
      vertex -2.575 4.46003 0
      vertex -5.15 0 0
    endloop
  endfacet
  facet normal 0.866025 -0.5 0
    outer loop
      vertex -5.15 0 -17
      vertex -2.575 4.46003 -17
      vertex -5.15 0 0
    endloop
  endfacet
  facet normal 0.866025 0.5 0
    outer loop
      vertex -5.15 0 0
      vertex -2.575 -4.46003 0
      vertex -2.575 -4.46003 -17
    endloop
  endfacet
  facet normal 0.866025 0.5 0
    outer loop
      vertex -5.15 0 -17
      vertex -5.15 0 0
      vertex -2.575 -4.46003 -17
    endloop
  endfacet
  facet normal 0 -1 0
    outer loop
      vertex 2.575 4.46003 -17
      vertex 2.575 4.46003 0
      vertex -2.575 4.46003 0
    endloop
  endfacet
  facet normal 0 -1 0
    outer loop
      vertex -2.575 4.46003 -17
      vertex 2.575 4.46003 -17
      vertex -2.575 4.46003 0
    endloop
  endfacet
  facet normal -0.866025 -0.5 0
    outer loop
      vertex 5.15 0 0
      vertex 2.575 4.46003 0
      vertex 5.15 0 -17
    endloop
  endfacet
  facet normal -0.866025 -0.5 0
    outer loop
      vertex 5.15 0 -17
      vertex 2.575 4.46003 0
      vertex 2.575 4.46003 -17
    endloop
  endfacet
  facet normal -0.866025 0.5 0
    outer loop
      vertex 5.15 0 0
      vertex 5.15 0 -17
      vertex 2.575 -4.46003 0
    endloop
  endfacet
  facet normal -0.866025 0.5 0
    outer loop
      vertex 2.575 -4.46003 0
      vertex 5.15 0 -17
      vertex 2.575 -4.46003 -17
    endloop
  endfacet
  facet normal 0 1 0
    outer loop
      vertex 2.575 -4.46003 0
      vertex 2.575 -4.46003 -17
      vertex -2.575 -4.46003 0
    endloop
  endfacet
  facet normal 0 1 0
    outer loop
      vertex -2.575 -4.46003 0
      vertex 2.575 -4.46003 -17
      vertex -2.575 -4.46003 -17
    endloop
  endfacet
  facet normal 0 0 1
    outer loop
      vertex -6.15 0 -16
      vertex -7.15 0 -16
      vertex -3.575 -6.19208 -16
    endloop
  endfacet
  facet normal 0 0 1
    outer loop
      vertex -6.15 0 -16
      vertex -3.075 5.32606 -16
      vertex -3.575 6.19208 -16
    endloop
  endfacet
  facet normal 0 0 1
    outer loop
      vertex 3.575 -6.19208 -16
      vertex -3.075 -5.32606 -16
      vertex -3.575 -6.19208 -16
    endloop
  endfacet
  facet normal 0 0 1
    outer loop
      vertex 3.075 5.32606 -16
      vertex 6.15 0 -16
      vertex 7.15 0 -16
    endloop
  endfacet
  facet normal 0 0 1
    outer loop
      vertex -3.575 6.19208 -16
      vertex -7.15 0 -16
      vertex -6.15 0 -16
    endloop
  endfacet
  facet normal 0 0 1
    outer loop
      vertex -3.075 -5.32606 -16
      vertex -6.15 0 -16
      vertex -3.575 -6.19208 -16
    endloop
  endfacet
  facet normal 0 0 1
    outer loop
      vertex 3.575 6.19208 -16
      vertex 3.075 5.32606 -16
      vertex 7.15 0 -16
    endloop
  endfacet
  facet normal 0 0 1
    outer loop
      vertex 3.575 6.19208 -16
      vertex -3.575 6.19208 -16
      vertex 3.075 5.32606 -16
    endloop
  endfacet
  facet normal 0 0 1
    outer loop
      vertex 7.15 0 -16
      vertex 6.15 0 -16
      vertex 3.575 -6.19208 -16
    endloop
  endfacet
  facet normal 0 0 1
    outer loop
      vertex 6.15 0 -16
      vertex 3.075 -5.32606 -16
      vertex 3.575 -6.19208 -16
    endloop
  endfacet
  facet normal 0 0 1
    outer loop
      vertex 3.075 -5.32606 -16
      vertex -3.075 -5.32606 -16
      vertex 3.575 -6.19208 -16
    endloop
  endfacet
  facet normal 0 0 1
    outer loop
      vertex -3.075 5.32606 -16
      vertex 3.075 5.32606 -16
      vertex -3.575 6.19208 -16
    endloop
  endfacet
  facet normal 0 0 -1
    outer loop
      vertex -2.57369 4.45776 0
      vertex -2.575 4.46003 0
      vertex 2.57369 4.45776 0
    endloop
  endfacet
  facet normal 0 0 -1
    outer loop
      vertex 5.14654 -0.00144338 0
      vertex 5.15 0 0
      vertex 2.575 -4.46003 0
    endloop
  endfacet
  facet normal 0 0 -1
    outer loop
      vertex -2.57369 -4.45776 0
      vertex 2.575 -4.46003 0
      vertex -2.575 -4.46003 0
    endloop
  endfacet
  facet normal 0 0 -1
    outer loop
      vertex -5.14737 0 0
      vertex -2.575 -4.46003 0
      vertex -5.15 0 0
    endloop
  endfacet
  facet normal 0 0 -1
    outer loop
      vertex -2.575 4.46003 0
      vertex -5.14737 0 0
      vertex -5.15 0 0
    endloop
  endfacet
  facet normal 0 0 -1
    outer loop
      vertex 5.14654 -0.00144338 0
      vertex 2.575 -4.46003 0
      vertex 2.57369 -4.45776 0
    endloop
  endfacet
  facet normal 0 0 -1
    outer loop
      vertex 2.57369 -4.45776 0
      vertex 2.575 -4.46003 0
      vertex -2.57369 -4.45776 0
    endloop
  endfacet
  facet normal 0 0 -1
    outer loop
      vertex -2.57452 -4.45631 0
      vertex -2.57369 -4.45776 0
      vertex -2.575 -4.46003 0
    endloop
  endfacet
  facet normal 0 0 -1
    outer loop
      vertex 5.14737 0 0
      vertex 5.15 0 0
      vertex 5.14654 -0.00144338 0
    endloop
  endfacet
  facet normal 0 0 -1
    outer loop
      vertex 2.57452 4.45631 0
      vertex 5.15 0 0
      vertex 5.14737 0 0
    endloop
  endfacet
  facet normal 0 0 -1
    outer loop
      vertex 2.575 4.46003 0
      vertex 5.15 0 0
      vertex 2.57452 4.45631 0
    endloop
  endfacet
  facet normal 0 0 -1
    outer loop
      vertex 2.575 4.46003 0
      vertex 2.57452 4.45631 0
      vertex 2.57369 4.45776 0
    endloop
  endfacet
  facet normal 0 0 -1
    outer loop
      vertex 2.575 4.46003 0
      vertex 2.57369 4.45776 0
      vertex -2.575 4.46003 0
    endloop
  endfacet
  facet normal 0 0 -1
    outer loop
      vertex -5.14654 0.00144338 0
      vertex -2.575 4.46003 0
      vertex -2.57369 4.45776 0
    endloop
  endfacet
  facet normal 0 0 -1
    outer loop
      vertex -2.575 4.46003 0
      vertex -5.14654 0.00144338 0
      vertex -5.14737 0 0
    endloop
  endfacet
  facet normal 0 0 -1
    outer loop
      vertex -2.57452 -4.45631 0
      vertex -2.575 -4.46003 0
      vertex -5.14737 0 0
    endloop
  endfacet
  facet normal -0.866025 -0.5 0
    outer loop
      vertex -6.15 0 -16
      vertex -3.075 -5.32606 -16
      vertex -6.15 0 0
    endloop
  endfacet
  facet normal -0.866025 -0.5 0
    outer loop
      vertex -6.15 0 0
      vertex -3.075 -5.32606 -16
      vertex -3.075 -5.32606 0
    endloop
  endfacet
  facet normal 0 -1 0
    outer loop
      vertex -3.075 -5.32606 0
      vertex -3.075 -5.32606 -16
      vertex 3.075 -5.32606 -16
    endloop
  endfacet
  facet normal 0 -1 0
    outer loop
      vertex 3.075 -5.32606 0
      vertex -3.075 -5.32606 0
      vertex 3.075 -5.32606 -16
    endloop
  endfacet
  facet normal 0.866025 -0.5 0
    outer loop
      vertex 3.075 -5.32606 0
      vertex 3.075 -5.32606 -16
      vertex 6.15 0 -16
    endloop
  endfacet
  facet normal 0.866025 -0.5 0
    outer loop
      vertex 6.15 0 0
      vertex 3.075 -5.32606 0
      vertex 6.15 0 -16
    endloop
  endfacet
  facet normal 0.866025 0.5 0
    outer loop
      vertex 6.15 0 -16
      vertex 3.075 5.32606 -16
      vertex 3.075 5.32606 0
    endloop
  endfacet
  facet normal 0.866025 0.5 0
    outer loop
      vertex 6.15 0 0
      vertex 6.15 0 -16
      vertex 3.075 5.32606 0
    endloop
  endfacet
  facet normal 0 1 0
    outer loop
      vertex -3.075 5.32606 -16
      vertex -3.075 5.32606 0
      vertex 3.075 5.32606 -16
    endloop
  endfacet
  facet normal 0 1 0
    outer loop
      vertex 3.075 5.32606 -16
      vertex -3.075 5.32606 0
      vertex 3.075 5.32606 0
    endloop
  endfacet
  facet normal -0.866025 0.5 0
    outer loop
      vertex -6.15 0 -16
      vertex -6.15 0 0
      vertex -3.075 5.32606 -16
    endloop
  endfacet
  facet normal -0.866025 0.5 0
    outer loop
      vertex -3.075 5.32606 -16
      vertex -6.15 0 0
      vertex -3.075 5.32606 0
    endloop
  endfacet
  facet normal 0.844479 -0.48756 -0.221676
    outer loop
      vertex -5.14654 0.00144338 0
      vertex -1 1.73205 11.99
      vertex -2 0 11.99
    endloop
  endfacet
  facet normal 0.844479 -0.48756 -0.221676
    outer loop
      vertex -5.14737 0 0
      vertex -5.14654 0.00144338 0
      vertex -2 0 11.99
    endloop
  endfacet
  facet normal 0.844479 0.48756 -0.221676
    outer loop
      vertex -2 0 11.99
      vertex -2.57452 -4.45631 0
      vertex -5.14737 0 0
    endloop
  endfacet
  facet normal 0.844479 -0.48756 -0.221676
    outer loop
      vertex -2.57369 4.45776 0
      vertex -1 1.73205 11.99
      vertex -5.14654 0.00144338 0
    endloop
  endfacet
  facet normal 0 -0.97512 -0.221676
    outer loop
      vertex 2.57369 4.45776 0
      vertex 1 1.73205 11.99
      vertex -1 1.73205 11.99
    endloop
  endfacet
  facet normal 0 -0.97512 -0.221676
    outer loop
      vertex -2.57369 4.45776 0
      vertex 2.57369 4.45776 0
      vertex -1 1.73205 11.99
    endloop
  endfacet
  facet normal -0.844479 -0.48756 -0.221676
    outer loop
      vertex 2.57452 4.45631 0
      vertex 2 0 11.99
      vertex 2.57369 4.45776 0
    endloop
  endfacet
  facet normal -0.844479 -0.48756 -0.221676
    outer loop
      vertex 2.57369 4.45776 0
      vertex 2 0 11.99
      vertex 1 1.73205 11.99
    endloop
  endfacet
  facet normal -0.844479 -0.48756 -0.221676
    outer loop
      vertex 2.57452 4.45631 0
      vertex 5.14737 0 0
      vertex 2 0 11.99
    endloop
  endfacet
  facet normal -0.844479 0.48756 -0.221676
    outer loop
      vertex 5.14737 0 0
      vertex 5.14654 -0.00144338 0
      vertex 2 0 11.99
    endloop
  endfacet
  facet normal -0.844479 0.48756 -0.221676
    outer loop
      vertex 2 0 11.99
      vertex 5.14654 -0.00144338 0
      vertex 1 -1.73205 11.99
    endloop
  endfacet
  facet normal -0.844479 0.48756 -0.221676
    outer loop
      vertex 5.14654 -0.00144338 0
      vertex 2.57369 -4.45776 0
      vertex 1 -1.73205 11.99
    endloop
  endfacet
  facet normal 0 0.97512 -0.221676
    outer loop
      vertex 1 -1.73205 11.99
      vertex 2.57369 -4.45776 0
      vertex -1 -1.73205 11.99
    endloop
  endfacet
  facet normal 0 0.97512 -0.221676
    outer loop
      vertex -1 -1.73205 11.99
      vertex 2.57369 -4.45776 0
      vertex -2.57369 -4.45776 0
    endloop
  endfacet
  facet normal 0.844479 0.48756 -0.221676
    outer loop
      vertex -2 0 11.99
      vertex -1 -1.73205 11.99
      vertex -2.57369 -4.45776 0
    endloop
  endfacet
  facet normal 0.844479 0.48756 -0.221676
    outer loop
      vertex -2.57452 -4.45631 0
      vertex -2 0 11.99
      vertex -2.57369 -4.45776 0
    endloop
  endfacet
  facet normal -0.847565 0.489342 0.205372
    outer loop
      vertex -1.5 2.59808 13
      vertex -6.15 0 0
      vertex -3 0 13
    endloop
  endfacet
  facet normal -0.847565 -0.489342 0.205372
    outer loop
      vertex -3 0 13
      vertex -6.15 0 0
      vertex -3.075 -5.32606 0
    endloop
  endfacet
  facet normal -0.847565 0.489342 0.205372
    outer loop
      vertex -3.075 5.32606 0
      vertex -6.15 0 0
      vertex -1.5 2.59808 13
    endloop
  endfacet
  facet normal -0.847565 -0.489342 0.205372
    outer loop
      vertex -3 0 13
      vertex -3.075 -5.32606 0
      vertex -1.5 -2.59808 13
    endloop
  endfacet
  facet normal 0 -0.978684 0.205372
    outer loop
      vertex -1.5 -2.59808 13
      vertex -3.075 -5.32606 0
      vertex 3.075 -5.32606 0
    endloop
  endfacet
  facet normal 0 -0.978684 0.205372
    outer loop
      vertex 1.5 -2.59808 13
      vertex -1.5 -2.59808 13
      vertex 3.075 -5.32606 0
    endloop
  endfacet
  facet normal 0.847565 -0.489342 0.205372
    outer loop
      vertex 6.15 0 0
      vertex 1.5 -2.59808 13
      vertex 3.075 -5.32606 0
    endloop
  endfacet
  facet normal 0.847565 -0.489342 0.205372
    outer loop
      vertex 3 0 13
      vertex 1.5 -2.59808 13
      vertex 6.15 0 0
    endloop
  endfacet
  facet normal 0.847565 0.489342 0.205372
    outer loop
      vertex 3.075 5.32606 0
      vertex 3 0 13
      vertex 6.15 0 0
    endloop
  endfacet
  facet normal 0 0.978684 0.205372
    outer loop
      vertex -3.075 5.32606 0
      vertex -1.5 2.59808 13
      vertex 3.075 5.32606 0
    endloop
  endfacet
  facet normal 0 0.978684 0.205372
    outer loop
      vertex 3.075 5.32606 0
      vertex -1.5 2.59808 13
      vertex 1.5 2.59808 13
    endloop
  endfacet
  facet normal 0.847565 0.489342 0.205372
    outer loop
      vertex 3.075 5.32606 0
      vertex 1.5 2.59808 13
      vertex 3 0 13
    endloop
  endfacet
  facet normal 0 0 -1
    outer loop
      vertex 1 1.73205 11.99
      vertex 2 0 11.99
      vertex -1 1.73205 11.99
    endloop
  endfacet
  facet normal 0 0 -1
    outer loop
      vertex -1 1.73205 11.99
      vertex 2 0 11.99
      vertex 1 -1.73205 11.99
    endloop
  endfacet
  facet normal 0 0 -1
    outer loop
      vertex -1 1.73205 11.99
      vertex 1 -1.73205 11.99
      vertex -1 -1.73205 11.99
    endloop
  endfacet
  facet normal 0 0 -1
    outer loop
      vertex -1 1.73205 11.99
      vertex -1 -1.73205 11.99
      vertex -2 0 11.99
    endloop
  endfacet
  facet normal 0 0 1
    outer loop
      vertex -1.5 2.59808 13
      vertex -3 0 13
      vertex -1.5 -2.59808 13
    endloop
  endfacet
  facet normal 0 0 1
    outer loop
      vertex 3 0 13
      vertex -1.5 2.59808 13
      vertex 1.5 -2.59808 13
    endloop
  endfacet
  facet normal 0 0 1
    outer loop
      vertex 1.5 -2.59808 13
      vertex -1.5 2.59808 13
      vertex -1.5 -2.59808 13
    endloop
  endfacet
  facet normal 0 0 1
    outer loop
      vertex 1.5 2.59808 13
      vertex -1.5 2.59808 13
      vertex 3 0 13
    endloop
  endfacet
endsolid OpenSCAD_Model
