solid OpenSCAD_Model
  facet normal 0 0 -1
    outer loop
      vertex -2.575 -4.46003 -17
      vertex -3.075 -5.32606 -17
      vertex -5.15 0 -17
    endloop
  endfacet
  facet normal 0 0 -1
    outer loop
      vertex 2.575 4.46003 -17
      vertex -3.075 5.32606 -17
      vertex 3.075 5.32606 -17
    endloop
  endfacet
  facet normal 0 0 -1
    outer loop
      vertex 5.15 0 -17
      vertex 3.075 5.32606 -17
      vertex 6.15 0 -17
    endloop
  endfacet
  facet normal 0 0 -1
    outer loop
      vertex 2.575 -4.46003 -17
      vertex 6.15 0 -17
      vertex 3.075 -5.32606 -17
    endloop
  endfacet
  facet normal 0 0 -1
    outer loop
      vertex -6.15 0 -17
      vertex -3.075 5.32606 -17
      vertex -5.15 0 -17
    endloop
  endfacet
  facet normal 0 0 -1
    outer loop
      vertex -6.15 0 -17
      vertex -5.15 0 -17
      vertex -3.075 -5.32606 -17
    endloop
  endfacet
  facet normal 0 0 -1
    outer loop
      vertex 2.575 -4.46003 -17
      vertex -3.075 -5.32606 -17
      vertex -2.575 -4.46003 -17
    endloop
  endfacet
  facet normal 0 0 -1
    outer loop
      vertex 5.15 0 -17
      vertex 6.15 0 -17
      vertex 2.575 -4.46003 -17
    endloop
  endfacet
  facet normal 0 0 -1
    outer loop
      vertex -3.075 -5.32606 -17
      vertex 2.575 -4.46003 -17
      vertex 3.075 -5.32606 -17
    endloop
  endfacet
  facet normal 0 0 -1
    outer loop
      vertex 2.575 4.46003 -17
      vertex 3.075 5.32606 -17
      vertex 5.15 0 -17
    endloop
  endfacet
  facet normal 0 0 -1
    outer loop
      vertex -2.575 4.46003 -17
      vertex -3.075 5.32606 -17
      vertex 2.575 4.46003 -17
    endloop
  endfacet
  facet normal 0 0 -1
    outer loop
      vertex -5.15 0 -17
      vertex -3.075 5.32606 -17
      vertex -2.575 4.46003 -17
    endloop
  endfacet
  facet normal -0.866025 0.5 0
    outer loop
      vertex -6.15 0 -17
      vertex -6.15 0 0
      vertex -3.075 5.32606 -17
    endloop
  endfacet
  facet normal -0.866025 0.5 0
    outer loop
      vertex -3.075 5.32606 -17
      vertex -6.15 0 0
      vertex -3.075 5.32606 0
    endloop
  endfacet
  facet normal -0.866025 -0.5 0
    outer loop
      vertex -6.15 0 -17
      vertex -3.075 -5.32606 -17
      vertex -6.15 0 0
    endloop
  endfacet
  facet normal -0.866025 -0.5 0
    outer loop
      vertex -6.15 0 0
      vertex -3.075 -5.32606 -17
      vertex -3.075 -5.32606 0
    endloop
  endfacet
  facet normal 0 -1 0
    outer loop
      vertex -3.075 -5.32606 0
      vertex -3.075 -5.32606 -17
      vertex 3.075 -5.32606 -17
    endloop
  endfacet
  facet normal 0 -1 0
    outer loop
      vertex 3.075 -5.32606 0
      vertex -3.075 -5.32606 0
      vertex 3.075 -5.32606 -17
    endloop
  endfacet
  facet normal 0.866025 -0.5 0
    outer loop
      vertex 3.075 -5.32606 0
      vertex 3.075 -5.32606 -17
      vertex 6.15 0 -17
    endloop
  endfacet
  facet normal 0.866025 -0.5 0
    outer loop
      vertex 6.15 0 0
      vertex 3.075 -5.32606 0
      vertex 6.15 0 -17
    endloop
  endfacet
  facet normal 0.866025 0.5 0
    outer loop
      vertex 6.15 0 -17
      vertex 3.075 5.32606 -17
      vertex 3.075 5.32606 0
    endloop
  endfacet
  facet normal 0.866025 0.5 0
    outer loop
      vertex 6.15 0 0
      vertex 6.15 0 -17
      vertex 3.075 5.32606 0
    endloop
  endfacet
  facet normal 0 1 0
    outer loop
      vertex -3.075 5.32606 -17
      vertex -3.075 5.32606 0
      vertex 3.075 5.32606 -17
    endloop
  endfacet
  facet normal 0 1 0
    outer loop
      vertex 3.075 5.32606 -17
      vertex -3.075 5.32606 0
      vertex 3.075 5.32606 0
    endloop
  endfacet
  facet normal 0.866025 -0.5 0
    outer loop
      vertex -2.575 4.46003 -17
      vertex -2.575 4.46003 0
      vertex -5.15 0 0
    endloop
  endfacet
  facet normal 0.866025 -0.5 0
    outer loop
      vertex -5.15 0 -17
      vertex -2.575 4.46003 -17
      vertex -5.15 0 0
    endloop
  endfacet
  facet normal 0.866025 0.5 0
    outer loop
      vertex -5.15 0 0
      vertex -2.575 -4.46003 0
      vertex -2.575 -4.46003 -17
    endloop
  endfacet
  facet normal 0.866025 0.5 0
    outer loop
      vertex -5.15 0 -17
      vertex -5.15 0 0
      vertex -2.575 -4.46003 -17
    endloop
  endfacet
  facet normal 0 -1 0
    outer loop
      vertex 2.575 4.46003 -17
      vertex 2.575 4.46003 0
      vertex -2.575 4.46003 0
    endloop
  endfacet
  facet normal 0 -1 0
    outer loop
      vertex -2.575 4.46003 -17
      vertex 2.575 4.46003 -17
      vertex -2.575 4.46003 0
    endloop
  endfacet
  facet normal -0.866025 -0.5 0
    outer loop
      vertex 5.15 0 0
      vertex 2.575 4.46003 0
      vertex 5.15 0 -17
    endloop
  endfacet
  facet normal -0.866025 -0.5 0
    outer loop
      vertex 5.15 0 -17
      vertex 2.575 4.46003 0
      vertex 2.575 4.46003 -17
    endloop
  endfacet
  facet normal -0.866025 0.5 0
    outer loop
      vertex 5.15 0 0
      vertex 5.15 0 -17
      vertex 2.575 -4.46003 0
    endloop
  endfacet
  facet normal -0.866025 0.5 0
    outer loop
      vertex 2.575 -4.46003 0
      vertex 5.15 0 -17
      vertex 2.575 -4.46003 -17
    endloop
  endfacet
  facet normal 0 1 0
    outer loop
      vertex 2.575 -4.46003 0
      vertex 2.575 -4.46003 -17
      vertex -2.575 -4.46003 0
    endloop
  endfacet
  facet normal 0 1 0
    outer loop
      vertex -2.575 -4.46003 0
      vertex 2.575 -4.46003 -17
      vertex -2.575 -4.46003 -17
    endloop
  endfacet
  facet normal -0.847565 0.489342 0.205372
    outer loop
      vertex -3.075 5.32606 0
      vertex -6.15 0 0
      vertex -1.5 2.59808 13
    endloop
  endfacet
  facet normal 0 0.978684 0.205372
    outer loop
      vertex -3.075 5.32606 0
      vertex -1.5 2.59808 13
      vertex 3.075 5.32606 0
    endloop
  endfacet
  facet normal 0 0.978684 0.205372
    outer loop
      vertex 3.075 5.32606 0
      vertex -1.5 2.59808 13
      vertex 1.5 2.59808 13
    endloop
  endfacet
  facet normal -0.847565 0.489342 0.205372
    outer loop
      vertex -1.5 2.59808 13
      vertex -6.15 0 0
      vertex -3 0 13
    endloop
  endfacet
  facet normal -0.847565 -0.489342 0.205372
    outer loop
      vertex -3 0 13
      vertex -6.15 0 0
      vertex -3.075 -5.32606 0
    endloop
  endfacet
  facet normal -0.847565 -0.489342 0.205372
    outer loop
      vertex -3 0 13
      vertex -3.075 -5.32606 0
      vertex -1.5 -2.59808 13
    endloop
  endfacet
  facet normal 0 -0.978684 0.205372
    outer loop
      vertex -1.5 -2.59808 13
      vertex -3.075 -5.32606 0
      vertex 3.075 -5.32606 0
    endloop
  endfacet
  facet normal 0 -0.978684 0.205372
    outer loop
      vertex 1.5 -2.59808 13
      vertex -1.5 -2.59808 13
      vertex 3.075 -5.32606 0
    endloop
  endfacet
  facet normal 0.847565 -0.489342 0.205372
    outer loop
      vertex 6.15 0 0
      vertex 1.5 -2.59808 13
      vertex 3.075 -5.32606 0
    endloop
  endfacet
  facet normal 0.847565 -0.489342 0.205372
    outer loop
      vertex 3 0 13
      vertex 1.5 -2.59808 13
      vertex 6.15 0 0
    endloop
  endfacet
  facet normal 0.847565 0.489342 0.205372
    outer loop
      vertex 3.075 5.32606 0
      vertex 3 0 13
      vertex 6.15 0 0
    endloop
  endfacet
  facet normal 0.847565 0.489342 0.205372
    outer loop
      vertex 3.075 5.32606 0
      vertex 1.5 2.59808 13
      vertex 3 0 13
    endloop
  endfacet
  facet normal 0 0 -1
    outer loop
      vertex -2.57439 4.45898 0
      vertex -2.575 4.46003 0
      vertex 2.57439 4.45898 0
    endloop
  endfacet
  facet normal 0 0 -1
    outer loop
      vertex 5.14841 -0.000665661 0
      vertex 5.15 0 0
      vertex 2.575 -4.46003 0
    endloop
  endfacet
  facet normal 0 0 -1
    outer loop
      vertex -2.57439 -4.45898 0
      vertex 2.575 -4.46003 0
      vertex -2.575 -4.46003 0
    endloop
  endfacet
  facet normal 0 0 -1
    outer loop
      vertex -5.14879 0 0
      vertex -2.575 -4.46003 0
      vertex -5.15 0 0
    endloop
  endfacet
  facet normal 0 0 -1
    outer loop
      vertex -2.575 4.46003 0
      vertex -5.14879 0 0
      vertex -5.15 0 0
    endloop
  endfacet
  facet normal 0 0 -1
    outer loop
      vertex 5.14841 -0.000665661 0
      vertex 2.575 -4.46003 0
      vertex 2.57439 -4.45898 0
    endloop
  endfacet
  facet normal 0 0 -1
    outer loop
      vertex 2.57439 -4.45898 0
      vertex 2.575 -4.46003 0
      vertex -2.57439 -4.45898 0
    endloop
  endfacet
  facet normal 0 0 -1
    outer loop
      vertex -2.57478 -4.45832 0
      vertex -2.57439 -4.45898 0
      vertex -2.575 -4.46003 0
    endloop
  endfacet
  facet normal 0 0 -1
    outer loop
      vertex 5.14879 0 0
      vertex 5.15 0 0
      vertex 5.14841 -0.000665661 0
    endloop
  endfacet
  facet normal 0 0 -1
    outer loop
      vertex 2.57478 4.45832 0
      vertex 5.15 0 0
      vertex 5.14879 0 0
    endloop
  endfacet
  facet normal 0 0 -1
    outer loop
      vertex 2.575 4.46003 0
      vertex 5.15 0 0
      vertex 2.57478 4.45832 0
    endloop
  endfacet
  facet normal 0 0 -1
    outer loop
      vertex 2.575 4.46003 0
      vertex 2.57478 4.45832 0
      vertex 2.57439 4.45898 0
    endloop
  endfacet
  facet normal 0 0 -1
    outer loop
      vertex 2.575 4.46003 0
      vertex 2.57439 4.45898 0
      vertex -2.575 4.46003 0
    endloop
  endfacet
  facet normal 0 0 -1
    outer loop
      vertex -5.14841 0.000665661 0
      vertex -2.575 4.46003 0
      vertex -2.57439 4.45898 0
    endloop
  endfacet
  facet normal 0 0 -1
    outer loop
      vertex -2.575 4.46003 0
      vertex -5.14841 0.000665661 0
      vertex -5.14879 0 0
    endloop
  endfacet
  facet normal 0 0 -1
    outer loop
      vertex -2.57478 -4.45832 0
      vertex -2.575 -4.46003 0
      vertex -5.14879 0 0
    endloop
  endfacet
  facet normal 0 0 1
    outer loop
      vertex -2.00022 -0.00171408 13
      vertex -3 0 13
      vertex -1.5 -2.59808 13
    endloop
  endfacet
  facet normal 0 0 1
    outer loop
      vertex 2.00121 0 13
      vertex 1.00159 -1.73139 13
      vertex 1.5 -2.59808 13
    endloop
  endfacet
  facet normal 0 0 1
    outer loop
      vertex -2.00121 0 13
      vertex -1.00159 1.73139 13
      vertex -1.5 2.59808 13
    endloop
  endfacet
  facet normal 0 0 1
    outer loop
      vertex -2.00121 0 13
      vertex -3 0 13
      vertex -2.00022 -0.00171408 13
    endloop
  endfacet
  facet normal 0 0 1
    outer loop
      vertex -1.5 2.59808 13
      vertex -3 0 13
      vertex -2.00121 0 13
    endloop
  endfacet
  facet normal 0 0 1
    outer loop
      vertex -1.00159 1.73139 13
      vertex -1.00061 1.7331 13
      vertex -1.5 2.59808 13
    endloop
  endfacet
  facet normal 0 0 1
    outer loop
      vertex 1.00061 -1.7331 13
      vertex -1.00061 -1.7331 13
      vertex 1.5 -2.59808 13
    endloop
  endfacet
  facet normal 0 0 1
    outer loop
      vertex 1.00061 1.7331 13
      vertex 2.00022 0.00171408 13
      vertex 3 0 13
    endloop
  endfacet
  facet normal 0 0 1
    outer loop
      vertex 1.5 2.59808 13
      vertex 1.00061 1.7331 13
      vertex 3 0 13
    endloop
  endfacet
  facet normal 0 0 1
    outer loop
      vertex 1.5 2.59808 13
      vertex -1.5 2.59808 13
      vertex 1.00061 1.7331 13
    endloop
  endfacet
  facet normal 0 0 1
    outer loop
      vertex 1.00159 -1.73139 13
      vertex 1.00061 -1.7331 13
      vertex 1.5 -2.59808 13
    endloop
  endfacet
  facet normal 0 0 1
    outer loop
      vertex 3 0 13
      vertex 2.00121 0 13
      vertex 1.5 -2.59808 13
    endloop
  endfacet
  facet normal 0 0 1
    outer loop
      vertex 3 0 13
      vertex 2.00022 0.00171408 13
      vertex 2.00121 0 13
    endloop
  endfacet
  facet normal 0 0 1
    outer loop
      vertex -1.00061 1.7331 13
      vertex 1.00061 1.7331 13
      vertex -1.5 2.59808 13
    endloop
  endfacet
  facet normal 0 0 1
    outer loop
      vertex 1.5 -2.59808 13
      vertex -1.00061 -1.7331 13
      vertex -1.5 -2.59808 13
    endloop
  endfacet
  facet normal 0 0 1
    outer loop
      vertex -1.00061 -1.7331 13
      vertex -2.00022 -0.00171408 13
      vertex -1.5 -2.59808 13
    endloop
  endfacet
  facet normal 0.847593 0.489358 -0.20522
    outer loop
      vertex -2.00121 0 13
      vertex -2.00022 -0.00171408 13
      vertex -2.57478 -4.45832 0
    endloop
  endfacet
  facet normal 0.847593 0.489358 -0.20522
    outer loop
      vertex -5.14879 0 0
      vertex -2.00121 0 13
      vertex -2.57478 -4.45832 0
    endloop
  endfacet
  facet normal 0.847593 -0.489358 -0.20522
    outer loop
      vertex -5.14841 0.000665661 0
      vertex -1.00159 1.73139 13
      vertex -2.00121 0 13
    endloop
  endfacet
  facet normal 0.847593 -0.489358 -0.20522
    outer loop
      vertex -5.14879 0 0
      vertex -5.14841 0.000665661 0
      vertex -2.00121 0 13
    endloop
  endfacet
  facet normal 0.847593 -0.489358 -0.20522
    outer loop
      vertex -2.57439 4.45898 0
      vertex -1.00061 1.7331 13
      vertex -1.00159 1.73139 13
    endloop
  endfacet
  facet normal 0.847593 -0.489358 -0.20522
    outer loop
      vertex -5.14841 0.000665661 0
      vertex -2.57439 4.45898 0
      vertex -1.00159 1.73139 13
    endloop
  endfacet
  facet normal 0 -0.978716 -0.20522
    outer loop
      vertex 2.57439 4.45898 0
      vertex 1.00061 1.7331 13
      vertex -1.00061 1.7331 13
    endloop
  endfacet
  facet normal 0 -0.978716 -0.20522
    outer loop
      vertex -2.57439 4.45898 0
      vertex 2.57439 4.45898 0
      vertex -1.00061 1.7331 13
    endloop
  endfacet
  facet normal -0.847593 -0.489358 -0.20522
    outer loop
      vertex 2.57478 4.45832 0
      vertex 2.00022 0.00171408 13
      vertex 2.57439 4.45898 0
    endloop
  endfacet
  facet normal -0.847593 -0.489358 -0.20522
    outer loop
      vertex 2.57439 4.45898 0
      vertex 2.00022 0.00171408 13
      vertex 1.00061 1.7331 13
    endloop
  endfacet
  facet normal -0.847593 -0.489358 -0.20522
    outer loop
      vertex 5.14879 0 0
      vertex 2.00121 0 13
      vertex 2.57478 4.45832 0
    endloop
  endfacet
  facet normal -0.847593 -0.489358 -0.20522
    outer loop
      vertex 2.57478 4.45832 0
      vertex 2.00121 0 13
      vertex 2.00022 0.00171408 13
    endloop
  endfacet
  facet normal -0.847593 0.489358 -0.20522
    outer loop
      vertex 5.14879 0 0
      vertex 5.14841 -0.000665661 0
      vertex 2.00121 0 13
    endloop
  endfacet
  facet normal -0.847593 0.489358 -0.20522
    outer loop
      vertex 2.00121 0 13
      vertex 5.14841 -0.000665661 0
      vertex 1.00159 -1.73139 13
    endloop
  endfacet
  facet normal -0.847593 0.489358 -0.20522
    outer loop
      vertex 5.14841 -0.000665661 0
      vertex 2.57439 -4.45898 0
      vertex 1.00159 -1.73139 13
    endloop
  endfacet
  facet normal -0.847593 0.489358 -0.20522
    outer loop
      vertex 1.00159 -1.73139 13
      vertex 2.57439 -4.45898 0
      vertex 1.00061 -1.7331 13
    endloop
  endfacet
  facet normal 0 0.978716 -0.20522
    outer loop
      vertex 1.00061 -1.7331 13
      vertex 2.57439 -4.45898 0
      vertex -1.00061 -1.7331 13
    endloop
  endfacet
  facet normal 0 0.978716 -0.20522
    outer loop
      vertex -1.00061 -1.7331 13
      vertex 2.57439 -4.45898 0
      vertex -2.57439 -4.45898 0
    endloop
  endfacet
  facet normal 0.847593 0.489358 -0.20522
    outer loop
      vertex -2.00022 -0.00171408 13
      vertex -1.00061 -1.7331 13
      vertex -2.57439 -4.45898 0
    endloop
  endfacet
  facet normal 0.847593 0.489358 -0.20522
    outer loop
      vertex -2.57478 -4.45832 0
      vertex -2.00022 -0.00171408 13
      vertex -2.57439 -4.45898 0
    endloop
  endfacet
endsolid OpenSCAD_Model
