solid OpenSCAD_Model
  facet normal 0 0 -1
    outer loop
      vertex -5 0 0
      vertex -2.5 4.33013 0
      vertex -2.5 -4.33013 0
    endloop
  endfacet
  facet normal 0 0 -1
    outer loop
      vertex -2.5 -4.33013 0
      vertex -2.5 4.33013 0
      vertex 2.5 4.33013 0
    endloop
  endfacet
  facet normal 0 0 -1
    outer loop
      vertex -2.5 -4.33013 0
      vertex 2.5 4.33013 0
      vertex 5 0 0
    endloop
  endfacet
  facet normal 0 0 -1
    outer loop
      vertex -2.5 -4.33013 0
      vertex 5 0 0
      vertex 2.5 -4.33013 0
    endloop
  endfacet
  facet normal -0.866025 0.5 0
    outer loop
      vertex -5 0 0
      vertex -5 0 105
      vertex -2.5 4.33013 0
    endloop
  endfacet
  facet normal -0.866025 0.5 0
    outer loop
      vertex -2.5 4.33013 0
      vertex -5 0 105
      vertex -2.5 4.33013 105
    endloop
  endfacet
  facet normal -0.866025 -0.5 0
    outer loop
      vertex -5 0 0
      vertex -2.5 -4.33013 0
      vertex -5 0 105
    endloop
  endfacet
  facet normal -0.866025 -0.5 0
    outer loop
      vertex -5 0 105
      vertex -2.5 -4.33013 0
      vertex -2.5 -4.33013 105
    endloop
  endfacet
  facet normal 0 -1 0
    outer loop
      vertex -2.5 -4.33013 105
      vertex -2.5 -4.33013 0
      vertex 2.5 -4.33013 0
    endloop
  endfacet
  facet normal 0 -1 0
    outer loop
      vertex 2.5 -4.33013 105
      vertex -2.5 -4.33013 105
      vertex 2.5 -4.33013 0
    endloop
  endfacet
  facet normal 0.866025 -0.5 0
    outer loop
      vertex 2.5 -4.33013 105
      vertex 2.5 -4.33013 0
      vertex 5 0 0
    endloop
  endfacet
  facet normal 0.866025 -0.5 0
    outer loop
      vertex 5 0 105
      vertex 2.5 -4.33013 105
      vertex 5 0 0
    endloop
  endfacet
  facet normal 0.866025 0.5 0
    outer loop
      vertex 5 0 0
      vertex 2.5 4.33013 0
      vertex 2.5 4.33013 105
    endloop
  endfacet
  facet normal 0.866025 0.5 0
    outer loop
      vertex 5 0 105
      vertex 5 0 0
      vertex 2.5 4.33013 105
    endloop
  endfacet
  facet normal 0 1 0
    outer loop
      vertex -2.5 4.33013 0
      vertex -2.5 4.33013 105
      vertex 2.5 4.33013 0
    endloop
  endfacet
  facet normal 0 1 0
    outer loop
      vertex 2.5 4.33013 0
      vertex -2.5 4.33013 105
      vertex 2.5 4.33013 105
    endloop
  endfacet
  facet normal -0.841635 0.485918 0.235658
    outer loop
      vertex -2.5 4.33013 105
      vertex -5 0 105
      vertex -1.8 3.11769 110
    endloop
  endfacet
  facet normal 0 0.971836 0.235658
    outer loop
      vertex -2.5 4.33013 105
      vertex -1.8 3.11769 110
      vertex 2.5 4.33013 105
    endloop
  endfacet
  facet normal 0 0.971836 0.235658
    outer loop
      vertex 2.5 4.33013 105
      vertex -1.8 3.11769 110
      vertex 1.8 3.11769 110
    endloop
  endfacet
  facet normal -0.841635 0.485918 0.235658
    outer loop
      vertex -1.8 3.11769 110
      vertex -5 0 105
      vertex -3.6 0 110
    endloop
  endfacet
  facet normal -0.841635 -0.485918 0.235658
    outer loop
      vertex -3.6 0 110
      vertex -5 0 105
      vertex -2.5 -4.33013 105
    endloop
  endfacet
  facet normal -0.841635 -0.485918 0.235658
    outer loop
      vertex -1.8 -3.11769 110
      vertex -3.6 0 110
      vertex -2.5 -4.33013 105
    endloop
  endfacet
  facet normal 0 -0.971836 0.235658
    outer loop
      vertex -1.8 -3.11769 110
      vertex -2.5 -4.33013 105
      vertex 2.5 -4.33013 105
    endloop
  endfacet
  facet normal 0 -0.971836 0.235658
    outer loop
      vertex 1.8 -3.11769 110
      vertex -1.8 -3.11769 110
      vertex 2.5 -4.33013 105
    endloop
  endfacet
  facet normal 0.841635 -0.485918 0.235658
    outer loop
      vertex 5 0 105
      vertex 1.8 -3.11769 110
      vertex 2.5 -4.33013 105
    endloop
  endfacet
  facet normal 0.841635 -0.485918 0.235658
    outer loop
      vertex 3.6 0 110
      vertex 1.8 -3.11769 110
      vertex 5 0 105
    endloop
  endfacet
  facet normal 0.841635 0.485918 0.235658
    outer loop
      vertex 5 0 105
      vertex 2.5 4.33013 105
      vertex 3.6 0 110
    endloop
  endfacet
  facet normal 0.841635 0.485918 0.235658
    outer loop
      vertex 2.5 4.33013 105
      vertex 1.8 3.11769 110
      vertex 3.6 0 110
    endloop
  endfacet
  facet normal 0 0 1
    outer loop
      vertex -2.19802 -0.0154341 110
      vertex -3.6 0 110
      vertex -1.8 -3.11769 110
    endloop
  endfacet
  facet normal 0 0 1
    outer loop
      vertex 2.20693 0 110
      vertex 1.11238 -1.89582 110
      vertex 1.8 -3.11769 110
    endloop
  endfacet
  facet normal 0 0 1
    outer loop
      vertex -2.20693 0 110
      vertex -1.11238 1.89582 110
      vertex -1.8 3.11769 110
    endloop
  endfacet
  facet normal 0 0 1
    outer loop
      vertex -2.20693 0 110
      vertex -3.6 0 110
      vertex -2.19802 -0.0154341 110
    endloop
  endfacet
  facet normal 0 0 1
    outer loop
      vertex -1.8 3.11769 110
      vertex -3.6 0 110
      vertex -2.20693 0 110
    endloop
  endfacet
  facet normal 0 0 1
    outer loop
      vertex -1.11238 1.89582 110
      vertex -1.10347 1.91126 110
      vertex -1.8 3.11769 110
    endloop
  endfacet
  facet normal 0 0 1
    outer loop
      vertex 1.10347 -1.91126 110
      vertex -1.10347 -1.91126 110
      vertex 1.8 -3.11769 110
    endloop
  endfacet
  facet normal 0 0 1
    outer loop
      vertex 1.10347 1.91126 110
      vertex 2.19802 0.0154341 110
      vertex 3.6 0 110
    endloop
  endfacet
  facet normal 0 0 1
    outer loop
      vertex 1.8 3.11769 110
      vertex 1.10347 1.91126 110
      vertex 3.6 0 110
    endloop
  endfacet
  facet normal 0 0 1
    outer loop
      vertex 1.8 3.11769 110
      vertex -1.8 3.11769 110
      vertex 1.10347 1.91126 110
    endloop
  endfacet
  facet normal 0 0 1
    outer loop
      vertex 1.11238 -1.89582 110
      vertex 1.10347 -1.91126 110
      vertex 1.8 -3.11769 110
    endloop
  endfacet
  facet normal 0 0 1
    outer loop
      vertex 3.6 0 110
      vertex 2.20693 0 110
      vertex 1.8 -3.11769 110
    endloop
  endfacet
  facet normal 0 0 1
    outer loop
      vertex 3.6 0 110
      vertex 2.19802 0.0154341 110
      vertex 2.20693 0 110
    endloop
  endfacet
  facet normal 0 0 1
    outer loop
      vertex -1.10347 1.91126 110
      vertex 1.10347 1.91126 110
      vertex -1.8 3.11769 110
    endloop
  endfacet
  facet normal 0 0 1
    outer loop
      vertex 1.8 -3.11769 110
      vertex -1.10347 -1.91126 110
      vertex -1.8 -3.11769 110
    endloop
  endfacet
  facet normal 0 0 1
    outer loop
      vertex -1.10347 -1.91126 110
      vertex -2.19802 -0.0154341 110
      vertex -1.8 -3.11769 110
    endloop
  endfacet
  facet normal 0.842096 0.486184 -0.233452
    outer loop
      vertex -1.10347 -1.91126 110
      vertex -1.79653 -3.11169 105
      vertex -1.80198 -3.10226 105
    endloop
  endfacet
  facet normal 0.842096 0.486184 -0.233452
    outer loop
      vertex -2.19802 -0.0154341 110
      vertex -1.10347 -1.91126 110
      vertex -1.80198 -3.10226 105
    endloop
  endfacet
  facet normal 0.842096 0.486184 -0.233452
    outer loop
      vertex -2.20693 0 110
      vertex -2.19802 -0.0154341 110
      vertex -1.80198 -3.10226 105
    endloop
  endfacet
  facet normal 0.842096 0.486184 -0.233452
    outer loop
      vertex -3.59307 0 105
      vertex -2.20693 0 110
      vertex -1.80198 -3.10226 105
    endloop
  endfacet
  facet normal 0 0.972368 -0.233452
    outer loop
      vertex 1.10347 -1.91126 110
      vertex 1.79653 -3.11169 105
      vertex -1.10347 -1.91126 110
    endloop
  endfacet
  facet normal 0 0.972368 -0.233452
    outer loop
      vertex -1.10347 -1.91126 110
      vertex 1.79653 -3.11169 105
      vertex -1.79653 -3.11169 105
    endloop
  endfacet
  facet normal -0.842096 0.486184 -0.233452
    outer loop
      vertex 3.58762 -0.00943196 105
      vertex 1.79653 -3.11169 105
      vertex 1.11238 -1.89582 110
    endloop
  endfacet
  facet normal -0.842096 0.486184 -0.233452
    outer loop
      vertex 1.11238 -1.89582 110
      vertex 1.79653 -3.11169 105
      vertex 1.10347 -1.91126 110
    endloop
  endfacet
  facet normal -0.842096 0.486184 -0.233452
    outer loop
      vertex 3.59307 0 105
      vertex 3.58762 -0.00943196 105
      vertex 2.20693 0 110
    endloop
  endfacet
  facet normal -0.842096 0.486184 -0.233452
    outer loop
      vertex 2.20693 0 110
      vertex 3.58762 -0.00943196 105
      vertex 1.11238 -1.89582 110
    endloop
  endfacet
  facet normal -0.842096 -0.486184 -0.233452
    outer loop
      vertex 2.20693 0 110
      vertex 2.19802 0.0154341 110
      vertex 3.59307 0 105
    endloop
  endfacet
  facet normal -0.842096 -0.486184 -0.233452
    outer loop
      vertex 3.59307 0 105
      vertex 2.19802 0.0154341 110
      vertex 1.80198 3.10226 105
    endloop
  endfacet
  facet normal -0.842096 -0.486184 -0.233452
    outer loop
      vertex 1.80198 3.10226 105
      vertex 2.19802 0.0154341 110
      vertex 1.79653 3.11169 105
    endloop
  endfacet
  facet normal -0.842096 -0.486184 -0.233452
    outer loop
      vertex 1.79653 3.11169 105
      vertex 2.19802 0.0154341 110
      vertex 1.10347 1.91126 110
    endloop
  endfacet
  facet normal 0 -0.972368 -0.233452
    outer loop
      vertex 1.79653 3.11169 105
      vertex 1.10347 1.91126 110
      vertex -1.10347 1.91126 110
    endloop
  endfacet
  facet normal 0 -0.972368 -0.233452
    outer loop
      vertex -1.79653 3.11169 105
      vertex 1.79653 3.11169 105
      vertex -1.10347 1.91126 110
    endloop
  endfacet
  facet normal 0.842096 -0.486184 -0.233452
    outer loop
      vertex -1.79653 3.11169 105
      vertex -1.10347 1.91126 110
      vertex -1.11238 1.89582 110
    endloop
  endfacet
  facet normal 0.842096 -0.486184 -0.233452
    outer loop
      vertex -3.58762 0.00943196 105
      vertex -1.79653 3.11169 105
      vertex -1.11238 1.89582 110
    endloop
  endfacet
  facet normal 0.842096 -0.486184 -0.233452
    outer loop
      vertex -3.58762 0.00943196 105
      vertex -1.11238 1.89582 110
      vertex -2.20693 0 110
    endloop
  endfacet
  facet normal 0.842096 -0.486184 -0.233452
    outer loop
      vertex -3.59307 0 105
      vertex -3.58762 0.00943196 105
      vertex -2.20693 0 110
    endloop
  endfacet
  facet normal 0 0 -1
    outer loop
      vertex -1.79653 3.11169 105
      vertex -1.8 3.11769 105
      vertex 1.79653 3.11169 105
    endloop
  endfacet
  facet normal 0 0 -1
    outer loop
      vertex 3.58762 -0.00943196 105
      vertex 3.6 0 105
      vertex 1.8 -3.11769 105
    endloop
  endfacet
  facet normal 0 0 -1
    outer loop
      vertex -1.79653 -3.11169 105
      vertex 1.8 -3.11769 105
      vertex -1.8 -3.11769 105
    endloop
  endfacet
  facet normal 0 0 -1
    outer loop
      vertex -3.59307 0 105
      vertex -1.8 -3.11769 105
      vertex -3.6 0 105
    endloop
  endfacet
  facet normal 0 0 -1
    outer loop
      vertex -1.80198 -3.10226 105
      vertex -1.8 -3.11769 105
      vertex -3.59307 0 105
    endloop
  endfacet
  facet normal 0 0 -1
    outer loop
      vertex -1.8 3.11769 105
      vertex -3.59307 0 105
      vertex -3.6 0 105
    endloop
  endfacet
  facet normal 0 0 -1
    outer loop
      vertex 1.79653 -3.11169 105
      vertex 1.8 -3.11769 105
      vertex -1.79653 -3.11169 105
    endloop
  endfacet
  facet normal 0 0 -1
    outer loop
      vertex 3.58762 -0.00943196 105
      vertex 1.8 -3.11769 105
      vertex 1.79653 -3.11169 105
    endloop
  endfacet
  facet normal 0 0 -1
    outer loop
      vertex 3.59307 0 105
      vertex 3.6 0 105
      vertex 3.58762 -0.00943196 105
    endloop
  endfacet
  facet normal 0 0 -1
    outer loop
      vertex 1.80198 3.10226 105
      vertex 3.6 0 105
      vertex 3.59307 0 105
    endloop
  endfacet
  facet normal 0 0 -1
    outer loop
      vertex 1.8 3.11769 105
      vertex 3.6 0 105
      vertex 1.80198 3.10226 105
    endloop
  endfacet
  facet normal 0 0 -1
    outer loop
      vertex 1.8 3.11769 105
      vertex 1.80198 3.10226 105
      vertex 1.79653 3.11169 105
    endloop
  endfacet
  facet normal 0 0 -1
    outer loop
      vertex 1.8 3.11769 105
      vertex 1.79653 3.11169 105
      vertex -1.8 3.11769 105
    endloop
  endfacet
  facet normal 0 0 -1
    outer loop
      vertex -3.58762 0.00943196 105
      vertex -1.8 3.11769 105
      vertex -1.79653 3.11169 105
    endloop
  endfacet
  facet normal 0 0 -1
    outer loop
      vertex -1.8 3.11769 105
      vertex -3.58762 0.00943196 105
      vertex -3.59307 0 105
    endloop
  endfacet
  facet normal 0 0 -1
    outer loop
      vertex -1.79653 -3.11169 105
      vertex -1.8 -3.11769 105
      vertex -1.80198 -3.10226 105
    endloop
  endfacet
  facet normal 0 -1 0
    outer loop
      vertex 1.8 3.11769 100
      vertex 1.8 3.11769 105
      vertex -1.8 3.11769 105
    endloop
  endfacet
  facet normal 0 -1 0
    outer loop
      vertex -1.8 3.11769 100
      vertex 1.8 3.11769 100
      vertex -1.8 3.11769 105
    endloop
  endfacet
  facet normal 0.866025 -0.5 0
    outer loop
      vertex -1.8 3.11769 100
      vertex -1.8 3.11769 105
      vertex -3.6 0 105
    endloop
  endfacet
  facet normal 0.866025 -0.5 0
    outer loop
      vertex -3.6 0 100
      vertex -1.8 3.11769 100
      vertex -3.6 0 105
    endloop
  endfacet
  facet normal 0.866025 0.5 0
    outer loop
      vertex -3.6 0 105
      vertex -1.8 -3.11769 105
      vertex -1.8 -3.11769 100
    endloop
  endfacet
  facet normal 0.866025 0.5 0
    outer loop
      vertex -3.6 0 100
      vertex -3.6 0 105
      vertex -1.8 -3.11769 100
    endloop
  endfacet
  facet normal 0 1 0
    outer loop
      vertex 1.8 -3.11769 105
      vertex 1.8 -3.11769 100
      vertex -1.8 -3.11769 105
    endloop
  endfacet
  facet normal 0 1 0
    outer loop
      vertex -1.8 -3.11769 105
      vertex 1.8 -3.11769 100
      vertex -1.8 -3.11769 100
    endloop
  endfacet
  facet normal -0.866025 0.5 0
    outer loop
      vertex 3.6 0 105
      vertex 3.6 0 100
      vertex 1.8 -3.11769 105
    endloop
  endfacet
  facet normal -0.866025 0.5 0
    outer loop
      vertex 1.8 -3.11769 105
      vertex 3.6 0 100
      vertex 1.8 -3.11769 100
    endloop
  endfacet
  facet normal -0.866025 -0.5 0
    outer loop
      vertex 3.6 0 105
      vertex 1.8 3.11769 105
      vertex 3.6 0 100
    endloop
  endfacet
  facet normal -0.866025 -0.5 0
    outer loop
      vertex 3.6 0 100
      vertex 1.8 3.11769 105
      vertex 1.8 3.11769 100
    endloop
  endfacet
  facet normal 0 0 1
    outer loop
      vertex -1.8 -3.11769 100
      vertex 1.8 -3.11769 100
      vertex 3.6 0 100
    endloop
  endfacet
  facet normal 0 0 1
    outer loop
      vertex -1.8 3.11769 100
      vertex -1.8 -3.11769 100
      vertex 1.8 3.11769 100
    endloop
  endfacet
  facet normal 0 0 1
    outer loop
      vertex 1.8 3.11769 100
      vertex -1.8 -3.11769 100
      vertex 3.6 0 100
    endloop
  endfacet
  facet normal 0 0 1
    outer loop
      vertex -3.6 0 100
      vertex -1.8 -3.11769 100
      vertex -1.8 3.11769 100
    endloop
  endfacet
endsolid OpenSCAD_Model
