<?xml version="1.0" encoding="UTF-8" standalone="no"?>
<svg
   xmlns:dc="http://purl.org/dc/elements/1.1/"
   xmlns:cc="http://creativecommons.org/ns#"
   xmlns:rdf="http://www.w3.org/1999/02/22-rdf-syntax-ns#"
   xmlns:svg="http://www.w3.org/2000/svg"
   xmlns="http://www.w3.org/2000/svg"
   width="210mm"
   height="297mm"
   viewBox="0 0 744.09448819 1052.3622047"
   id="svg2"
   version="1.1">
  <defs
     id="defs4" />
  <metadata
     id="metadata7">
    <rdf:RDF>
      <cc:Work
         rdf:about="">
        <dc:format>image/svg+xml</dc:format>
        <dc:type
           rdf:resource="http://purl.org/dc/dcmitype/StillImage" />
        <dc:title></dc:title>
      </cc:Work>
    </rdf:RDF>
  </metadata>
  <path
     style="fill:none;stroke:#000000;stroke-width:1"
     d="M -0.55105651,97.507919 C -2.7553366,93.766789 -6.6961046,89.616568 -13.173024,84.056068 c -3.5087,-3.01224 -5.6436,-4.68493 -17.79519,-13.94248 -9.524599,-7.25618 -14.275469,-11.28219 -19.781489,-16.7633 -5.5046,-5.4797 -8.73948,-9.84361 -11.51547,-15.5346 -1.77241,-3.63358 -2.99078,-7.13586 -3.74805,-10.77407 -0.96206,-4.622052 -1.09312,-6.187182 -1.08789,-12.992232 0.007,-8.9300297 0.30428,-10.4150897 3.27897,-16.3723597 2.20971,-4.42529 3.88688,-6.75472 7.3834,-10.2548803 3.3931,-3.39662 5.59547,-4.94102 10.36025,-7.2651 5.29451,-2.58246 9.12369,-3.25965 17.012259,-3.00866 6.12985,0.19504 8.37101,0.79713 13.23159,3.55468 7.6485394,4.33922 13.5838494,11.3060103 15.22577945,17.8718004 0,0 0.88756216,10.7210557 -0.49192065,13.2829516 -1.3794829,2.561897 -7.0944832,6.109138 -7.0944832,9.262242 0,3.153103 5.0281595,7.889161 6.7003452,10.838793 1.67218571,2.949632 2.02901071,3.842845 2.10291151,6.577177 0.073901,2.734333 -1.04617426,3.949262 -3.28737641,6.290027 -2.2412021,2.340765 -4.5305354,5.066073 -4.7276044,9.007453 -0.1970689,3.941379 4.3839952,9.62305 5.3208624,19.372882 0.9368672,9.749832 1.53507359,24.301527 1.53507359,24.301527 z"
     id="path4147" />
  <path
     style="fill:none;stroke:#000000;stroke-width:1"
     d="m 6.2437467,97.507925 c 2.20428,-3.74113 6.1450483,-7.89135 12.6219663,-13.45185 3.5087,-3.01224 5.6436,-4.68493 17.79519,-13.942482 9.524599,-7.25618 14.275469,-11.28219 19.781489,-16.7633 5.5046,-5.4797 8.73948,-9.84361 11.51547,-15.5346 1.77241,-3.63358 2.99078,-7.13586 3.74805,-10.77407 0.96206,-4.622052 1.09312,-6.187182 1.08789,-12.992232 -0.007,-8.9300303 -0.30428,-10.4150903 -3.27897,-16.3723603 -2.20971,-4.42529 -3.88688,-6.75472 -7.3834,-10.2548797 -3.3931,-3.396621 -5.59547,-4.941021 -10.36025,-7.265101 -5.29451,-2.58246 -9.12369,-3.25965 -17.012259,-3.00866 -6.12985,0.19504 -8.37101,0.79713 -13.23159,3.55468 -7.648538,4.33922 -13.5838483,11.3060107 -15.2257783,17.8718007 0,0 -0.0063,9.0084546 -0.413847,11.8894643 -0.362378,2.561897 -7.3977928,7.363277 -7.3977928,10.516381 0,3.153103 3.4041503,5.087928 5.7713738,9.863352 2.500911,5.045113 2.848197,5.306007 2.774296,8.040339 -0.0739,2.734333 -2.458934,3.590988 -4.585832,6.429376 -2.63509851,3.516592 -4.0394156,5.414445 -3.8423466,9.355825 0.197069,3.941379 5.1613986,8.786957 5.6180186,18.676138 0.451778,9.784312 2.018322,24.162179 2.018322,24.162179 z"
     id="path4147-3" />
</svg>
